<?xml version="1.0" standalone="no"?>
<!DOCTYPE svg PUBLIC "-//W3C//DTD SVG 1.1//EN" "http://www.w3.org/Graphics/SVG/1.1/DTD/svg11.dtd" >
<svg>
<metadata>
Created by FontForge 20090914 at Fri Feb 15 12:03:08 2013
 By www-data
Digitized data (C) 2004 Monotype Imaging Inc. All rights reserved. GE Inspira is a trademark of the General Electric Company.
</metadata>
<defs>
<font id="GEInspira" horiz-adv-x="1116" >
  <font-face 
    font-family="GE Inspira"
    font-weight="400"
    font-stretch="normal"
    units-per-em="2048"
    panose-1="2 15 6 3 3 4 0 2 2 3"
    ascent="1638"
    descent="-410"
    x-height="1044"
    cap-height="1393"
    bbox="-372.999 -475 2337 1884"
    underline-thickness="115"
    underline-position="-207"
    unicode-range="U+0020-U+FB04"
  />
<missing-glyph horiz-adv-x="1024" 
d="M51 0v1536h922v-1536h-922zM179 128h666v1280h-666v-1280zM523 2029z" />
    <glyph glyph-name=".notdef" horiz-adv-x="1024" 
d="M51 0v1536h922v-1536h-922zM179 128h666v1280h-666v-1280zM523 2029z" />
    <glyph glyph-name="space" unicode=" " horiz-adv-x="475" 
 />
    <glyph glyph-name="exclam" unicode="!" horiz-adv-x="514" 
d="M322 375c0 -42.667 -21.333 -64 -64 -64c-42 0 -63 21.333 -63 64v966c0 42.667 21 64 63 64c42.667 0 64 -21.333 64 -64v-966zM256 -20c-26 0 -47.833 8.83301 -65.5 26.5s-26.5 39.5 -26.5 65.5s8.83301 48.167 26.5 66.5s39.5 27.5 65.5 27.5c26.667 0 49 -9 67 -27
s27 -40.333 27 -67c0 -26 -9 -47.833 -27 -65.5s-40.333 -26.5 -67 -26.5z" />
    <glyph glyph-name="quotedbl" unicode="&#x22;" horiz-adv-x="639" 
d="M526 1040c0 -42 -21 -63 -63 -63c-41.333 0 -62 21 -62 63v303c0 41.333 20.667 62 62 62c42 0 63 -20.667 63 -62v-303zM238 1040c0 -42 -21.333 -63 -64 -63c-40.667 0 -61 21 -61 63v303c0 41.333 20.333 62 61 62c42.667 0 64 -20.667 64 -62v-303z" />
    <glyph glyph-name="numbersign" unicode="#" horiz-adv-x="1196" 
d="M896 897l-63 -401h194c30.667 0 46 -13.333 46 -40c0 -24 -5.33301 -41.833 -16 -53.5s-26.667 -17.5 -48 -17.5h-195l-53 -332c-6 -39.333 -29.333 -59 -70 -59c-32 0 -48 14.667 -48 44c0 4.66699 0.333008 9.66699 1 15l53 332h-303l-53 -332
c-6 -39.333 -29.333 -59 -70 -59c-32 0 -48 14.667 -48 44c0 4.66699 0.333008 9.66699 1 15l54 332h-193c-32.667 0 -49 13 -49 39c0 24 5.5 42 16.5 54s27.833 18 50.5 18h191l63 401h-192c-32.667 0 -49 13 -49 39c0 24 5.5 42 16.5 54s27.833 18 50.5 18h193l53 340
c6 38 28.667 57 68 57c33.333 0 50 -14.333 50 -43c0 -4 -0.333008 -8.66699 -1 -14l-53 -340h303l53 340c6 38 28.667 57 68 57c34 0 51 -13.667 51 -41c0 -4.66699 -0.666992 -10 -2 -16l-54 -340h195c30.667 0 46 -13.333 46 -40c0 -24 -5.33301 -41.833 -16 -53.5
s-26.667 -17.5 -48 -17.5h-193zM474 897l-63 -401h305l63 401h-305z" />
    <glyph glyph-name="dollar" unicode="$" horiz-adv-x="1085" 
d="M596 -18l-0.00195312 -127.003c0 -34.667 -17 -52 -51 -52c-32.667 0 -49 17.333 -49 52v127c-61.333 5.33301 -115 16.333 -161 33s-89.333 38 -130 64s-65.5 44.833 -74.5 56.5s-13.5 25.834 -13.5 42.501s5.66699 31.5 17 44.5s25.333 19.5 42 19.5
c8.66699 0 15.667 -1 21 -3s15.333 -8.66699 30 -20c90.667 -66.667 180.334 -105 269.001 -115v551c-142 40.667 -238.667 90.834 -290 150.501s-77 135.834 -77 228.501c0 100 33.5 185 100.5 255s155.833 110.667 266.5 122v111c0 34 16.333 51 49 51c34 0 51 -17 51 -51
v-111c88 -5.33301 167.333 -29.5 238 -72.5s106 -80.833 106 -113.5c0 -16.667 -5.66699 -32.167 -17 -46.5s-26.666 -21.5 -45.999 -21.5c-8 0 -14.667 1.33301 -20 4s-17.333 11.667 -36 27c-69.333 55.333 -144.333 88 -225 98v-522c138 -42 234.667 -93.833 290 -155.5
s83 -140.167 83 -235.5c0 -110 -33.333 -200 -100 -270s-157.667 -110.333 -273 -121zM495.998 794.997v491.001c-75.333 -8 -133.833 -33.5 -175.5 -76.5s-62.5 -99.5 -62.5 -169.5c0 -57.333 17.167 -105.333 51.5 -144s96.5 -72.334 186.5 -101.001zM595.998 624.998
v-521c76.667 9.33301 136.5 38 179.5 86s64.5 109 64.5 183c0 59.333 -19 109.5 -57 150.5s-100.333 74.833 -187 101.5z" />
    <glyph glyph-name="percent" unicode="%" horiz-adv-x="1720" 
d="M420 598c-90.667 0 -163.167 37.1689 -217.5 111.502s-81.5 173.166 -81.5 296.499c0 135.333 28.333 237 85 305s128 102 214 102s157.333 -34 214 -102s85 -169.667 85 -305c0 -124.667 -27.5 -223.834 -82.5 -297.501s-127.167 -110.5 -216.5 -110.5zM420 1300
c-62.667 0 -109 -26.8311 -139 -80.498s-45 -124.834 -45 -213.501c0 -83.333 15.167 -153 45.5 -209s76.5 -84 138.5 -84c59.333 0 104.833 26.833 136.5 80.5s47.5 124.5 47.5 212.5c0 91.333 -15.167 163.166 -45.5 215.499s-76.5 78.5 -138.5 78.5zM1348 1319
l-894.998 -1307c-14.667 -21.333 -30.334 -32 -47.001 -32c-14 0 -27.167 5.16699 -39.5 15.5s-18.5 20.833 -18.5 31.5c0 9.33301 2.33301 17.333 7 24l909 1329c15.333 22 31 33 47 33c13.333 0 26.166 -5 38.499 -15s18.5 -20.667 18.5 -32s-6.66699 -27 -20 -47z
M1300 -19.9961c-90.667 0 -163.167 37.498 -217.5 112.498s-81.5 173.167 -81.5 294.5c0 138.667 29.167 241.334 87.5 308.001s128.833 100 211.5 100c83.333 0 154 -33.167 212 -99.5s87 -169.166 87 -308.499c0 -123.333 -27.167 -222 -81.5 -296
s-126.833 -111 -217.5 -111zM1300 682.002c-62.667 0 -109 -27.5 -139 -82.5s-45 -125.833 -45 -212.5c0 -84 15.5 -153.833 46.5 -209.5s76.833 -83.5 137.5 -83.5c60 0 105.833 27.167 137.5 81.5s47.5 124.833 47.5 211.5c0 93.333 -15.5 165.833 -46.5 217.5
s-77.167 77.5 -138.5 77.5z" />
    <glyph glyph-name="ampersand" unicode="&#x26;" horiz-adv-x="1272" 
d="M941 393c17.333 51.333 30.502 105.001 39.502 161.001s13.5 114.333 13.5 175c0 42.667 21 64 63 64c40 0 60 -21.333 60 -64c0 -79.333 -6.83301 -154 -20.5 -224s-34.167 -135.333 -61.5 -196l230 -208c14 -13.333 21 -26.333 21 -39
c0 -15.333 -6.83301 -30.5 -20.5 -45.5s-28.5 -22.5 -44.5 -22.5c-15.333 0 -32.333 7.16699 -51 21.5s-68.334 59.166 -149.001 134.499l-52 47c-53.333 -72.667 -116 -127 -188 -163s-153.333 -54 -244 -54c-128.667 0 -233.167 38.667 -313.5 116
s-120.5 173.666 -120.5 288.999c0 82.667 21.167 155.667 63.5 219s103.166 112 182.499 146c-56 51.333 -96 101 -120 149s-36 103.333 -36 166c0 100.667 35.833 183.834 107.5 249.501s160.167 98.5 265.5 98.5c104.667 0 193.5 -21.5 266.5 -64.5
s109.5 -80.167 109.5 -111.5c0 -16.667 -6.83301 -32.5 -20.5 -47.5s-28.5 -22.5 -44.5 -22.5c-14 0 -29 7.66699 -45 23c-76.667 68 -162 102 -256 102c-76.667 0 -138.5 -20.167 -185.5 -60.5s-70.5 -95.833 -70.5 -166.5c0 -48.667 12.5 -93.167 37.5 -133.5
s70.667 -90.333 137 -150zM881.002 274.001l-440 390c-66 -18.667 -117.667 -53 -155 -103s-56 -108 -56 -174c0 -82 28.333 -150.333 85 -205s132 -82 226 -82c74 0 139.333 14.5 196 43.5s104.667 72.5 144 130.5z" />
    <glyph glyph-name="quotesingle" unicode="'" horiz-adv-x="350" 
d="M238 1040c0 -42 -21.333 -63 -64 -63c-40.667 0 -61 21 -61 63v303c0 41.333 20.333 62 61 62c42.667 0 64 -20.667 64 -62v-303z" />
    <glyph glyph-name="parenleft" unicode="(" horiz-adv-x="434" 
d="M338 -92c2.66699 -6.66699 4.00195 -15.668 4.00195 -27.001c0 -10 -4.5 -19.667 -13.5 -29s-23.5 -14 -43.5 -14c-14 0 -27.667 5.83301 -41 17.5s-32.333 59.167 -57 142.5s-46.667 188 -66 314s-29 247.333 -29 364s9.66699 238 29 364s41.166 231 65.499 315
s43.333 131.833 57 143.5s27.5 17.5 41.5 17.5c20 0 34.5 -4.66699 43.5 -14s13.5 -19 13.5 -29c0 -12 -1.33301 -21.667 -4 -29c-1.33301 -4 -2.66602 -9 -3.99902 -15c-2 -6 -4.66699 -12.667 -8 -20c-32.667 -89.333 -59.334 -204 -80.001 -344s-31 -269 -31 -387
s10.167 -247.167 30.5 -387.5s47.166 -255.5 80.499 -345.5c6 -15.333 10 -27.666 12 -36.999zM283.002 1536z" />
    <glyph glyph-name="parenright" unicode=")" horiz-adv-x="434" 
d="M96 -92c2 10.667 6.33301 22.998 13 36.998c34.667 98 61.667 216 81 354s29 264.333 29 379s-9.66699 240.834 -29 378.501s-46.333 255.167 -81 352.5c-11.333 24.667 -17 46 -17 64c0 10 4.66699 19.667 14 29s24 14 44 14c16 0 31 -7.66699 45 -23
s32.167 -63.833 54.5 -145.5s43.333 -183 63 -304s29.5 -243.5 29.5 -367.5c0 -122 -9.5 -242.167 -28.5 -360.5s-39.833 -219.666 -62.5 -303.999s-41.167 -134.333 -55.5 -150s-29.5 -23.5 -45.5 -23.5c-20 0 -34.667 4.66699 -44 14s-14 19 -14 29
c0 11.333 1.33301 20.333 4 27zM143 1536z" />
    <glyph glyph-name="asterisk" unicode="*" horiz-adv-x="885" 
d="M530 1010l149.002 -195c9.33301 -12.667 14 -23.667 14 -33c0 -17.333 -8.66699 -32.333 -26 -45c-17.333 -9.33301 -31 -14 -41 -14c-14.667 0 -28.334 9 -41.001 27l-143 202l-136 -202c-12.667 -18 -26.334 -27 -41.001 -27c-10.667 0 -23.667 4 -39 12
c-18.667 13.333 -28 28.333 -28 45c0 9.33301 4.66699 20.333 14 33l144 197l-233 77c-26 8.66699 -39 25.334 -39 50.001c0 14 4.66699 28 14 42s22.333 21 39 21c8 0 17 -2 27 -6l229 -86l-6 239c0 19.333 5.16699 33.833 15.5 43.5s24.166 14.5 41.499 14.5
c20 0 35 -4.83301 45 -14.5s15 -23.834 15 -42.501l-6 -240l231 86c10.667 4 19.667 6 27 6c14.667 0 26.834 -6.16699 36.501 -18.5s14.5 -27.166 14.5 -44.499c0 -24.667 -13 -41.334 -39 -50.001z" />
    <glyph glyph-name="plus" unicode="+" horiz-adv-x="1085" 
d="M602 460v-365c0 -42 -19.667 -63 -59 -63c-40 0 -60 21 -60 63v365h-360c-44 0 -66 19 -66 57s22 57 66 57h360v365c0 42.667 20 64 60 64c39.333 0 59 -21.333 59 -64v-365h361c43.333 0 65 -19 65 -57s-21.667 -57 -65 -57h-361z" />
    <glyph glyph-name="comma" unicode="," horiz-adv-x="406" 
d="M166 -225c-32.667 0 -49 16.332 -49 48.999c0 12.667 6.66699 36.334 20 71.001c12.667 34.667 19 69 19 103l-9 108c0 49.333 21.333 74 64 74c30.667 0 52 -13.667 64 -41s18 -64 18 -110c0 -70.667 -14.333 -130.667 -43 -180s-56.667 -74 -84 -74zM223 -20.001z" />
    <glyph glyph-name="hyphen" unicode="-" horiz-adv-x="737" 
d="M584 485h-430c-42.667 0 -64 21.333 -64 64c0 42 21.333 63 64 63h430c42 0 63 -21 63 -63c0 -42.667 -21 -64 -63 -64z" />
    <glyph glyph-name="hyphen" unicode="&#x2010;" horiz-adv-x="737" 
d="M584 485h-430c-42.667 0 -64 21.333 -64 64c0 42 21.333 63 64 63h430c42 0 63 -21 63 -63c0 -42.667 -21 -64 -63 -64z" />
    <glyph glyph-name="period" unicode="." horiz-adv-x="406" 
d="M203 -20c-28.667 0 -52.667 9.66699 -72 29s-29 42.333 -29 69c0 27.333 9.66699 50.833 29 70.5s43.333 29.5 72 29.5c28 0 51.667 -9.66699 71 -29s29 -43 29 -71c0 -26 -9.83301 -48.833 -29.5 -68.5s-43.167 -29.5 -70.5 -29.5z" />
    <glyph glyph-name="slash" unicode="/" horiz-adv-x="721" 
d="M154 -41c-10 -28.667 -28 -43.001 -54 -43.001c-17.333 0 -33.5 4.83301 -48.5 14.5s-22.5 22.5 -22.5 38.5c0 10 2 20.333 6 31l538 1581c10 30 27.333 45 52 45c12 0 26.833 -4.83301 44.5 -14.5s26.5 -24.5 26.5 -44.5c0 -9.33301 -1.33301 -17.666 -4 -24.999z
M613 1536z" />
    <glyph glyph-name="zero" unicode="0" horiz-adv-x="1085" 
d="M543 -20c-134.667 0 -243.832 61.834 -327.499 185.501s-125.5 300.5 -125.5 530.5c0 240 42.667 419.5 128 538.5s193.666 178.5 324.999 178.5c130.667 0 238.667 -59.333 324 -178s128 -298.334 128 -539.001c0 -230 -41.833 -406.833 -125.5 -530.5
s-192.5 -185.5 -326.5 -185.5zM543.002 1292c-102 0 -181.833 -52.5 -239.5 -157.5s-86.5 -251.167 -86.5 -438.5c0 -179.333 29.5 -323.5 88.5 -432.5s138.167 -163.5 237.5 -163.5c96.667 0 175 53 235 159s90 251.667 90 437c0 192 -29.5 339.333 -88.5 442
s-137.833 154 -236.5 154z" />
    <glyph glyph-name="one" unicode="1" horiz-adv-x="1085" 
d="M541 1266l-254.999 -146.001c-7.33301 -4 -18 -6 -32 -6c-16.667 0 -29.334 6.83301 -38.001 20.5s-13 28.167 -13 43.5c0 22.667 15 42.334 45 59.001l270 154c26 14.667 50.667 22 74 22c50.667 0 76 -32 76 -96v-1198h237c44 0 66 -20 66 -60
c0 -39.333 -22 -59 -66 -59h-622c-44 0 -66 19.667 -66 59c0 40 22 60 66 60h258v1147z" />
    <glyph glyph-name="two" unicode="2" horiz-adv-x="1085" 
d="M315 119l541 -0.00195312c42.667 0 64 -20 64 -60c0 -39.333 -21.333 -59 -64 -59h-557c-48.667 0 -85.667 13 -111 39s-38 62 -38 108c0 92 33.333 184 100 276s167 184.333 301 277c107.333 72.667 178.5 134.667 213.5 186s52.5 106.333 52.5 165
c0 74.667 -22.667 133.5 -68 176.5s-107.333 64.5 -186 64.5c-53.333 0 -100.166 -8.83301 -140.499 -26.5s-88.5 -46.5 -144.5 -86.5c-10.667 -8 -22.667 -12 -36 -12c-14.667 0 -27.667 6.16699 -39 18.5s-17 26.833 -17 43.5c0 34.667 40.5 74 121.5 118
s166.167 66 255.5 66c119.333 0 212.666 -32 279.999 -96s101 -150.667 101 -260c0 -81.333 -21.333 -155 -64 -221s-130 -145.333 -262 -238c-114 -81.333 -199.5 -158.666 -256.5 -231.999s-85.5 -142.666 -85.5 -207.999c0 -26 13 -39 39 -39z" />
    <glyph glyph-name="three" unicode="3" horiz-adv-x="1085" 
d="M571 821c115.333 -16 202.001 -57.666 260.001 -124.999s87 -160 87 -278c0 -120.667 -41.5 -223.834 -124.5 -309.501s-191.833 -128.5 -326.5 -128.5c-86.667 0 -168.5 18.333 -245.5 55s-115.5 72 -115.5 106c0 17.333 6 32.666 18 45.999s26.667 20 44 20
c12 0 28.333 -7 49 -21c52.667 -32.667 96.667 -55.167 132 -67.5s75.333 -18.5 120 -18.5c97.333 0 175.333 30.167 234 90.5s88 134.833 88 223.5c0 100.667 -28.833 176.334 -86.5 227.001s-143.834 76 -258.501 76c-35.333 0 -53 15.667 -53 47
c0 16.667 14.333 44 43 82l301 377c7.33301 9.33301 11 18 11 26c0 15.333 -7.66699 23 -23 23h-537c-40.667 0 -61 19 -61 57c0 42.667 20.333 64 61 64h551c48 0 84 -9.83301 108 -29.5s36 -48.834 36 -87.501c0 -26.667 -7.66699 -53.167 -23 -79.5
s-36.333 -57.166 -63 -92.499z" />
    <glyph glyph-name="four" unicode="4" horiz-adv-x="1085" 
d="M858 309l0.000976562 -252c0 -42 -21 -63 -63 -63c-42.667 0 -64 21 -64 63v252h-512c-50.667 0 -88.5 9.83301 -113.5 29.5s-37.5 49.5 -37.5 89.5c0 38 10.667 78.333 32 121l400 799c17.333 34 37 51 59 51h9c3.33301 0 6.66602 -0.666992 9.99902 -2
c34 -8.66699 51 -28 51 -58c0 -7.33301 -2 -16 -6 -26l-414 -828c-6.66699 -13.333 -10 -24 -10 -32c0 -16.667 13.667 -25 41 -25h491v559c0 42.667 21.333 64 64 64c42 0 63 -21.333 63 -64v-559h98c42.667 0 64 -19.667 64 -59c0 -40 -21.333 -60 -64 -60h-98z" />
    <glyph glyph-name="five" unicode="5" horiz-adv-x="1085" 
d="M317 823c60.667 22 123.002 32.9971 187.002 32.9971c136 0 243.333 -39.167 322 -117.5s118 -187.166 118 -326.499c0 -120.667 -42 -222.834 -126 -306.501s-189.333 -125.5 -316 -125.5c-96.667 0 -181 19.167 -253 57.5s-108 72.833 -108 103.5
c0 18.667 6.33301 34.334 19 47.001s28.334 19 47.001 19c10.667 0 25.667 -7 45 -21c67.333 -57.333 150.666 -86 249.999 -86c91.333 0 166.666 30 225.999 90s89 134 89 222c0 102 -27.667 181.333 -83 238s-134 85 -236 85c-55.333 0 -114 -10 -176 -30
c-28.667 -10 -51.334 -15 -68.001 -15s-32.167 4.83301 -46.5 14.5s-21.5 26.834 -21.5 51.501c0 30.667 3 64 9 100l38 408c4 42.667 17.167 74.834 39.5 96.501s53.833 32.5 94.5 32.5h483c42 0 63 -21.333 63 -64c0 -38 -21 -57 -63 -57h-467c-15.333 0 -23 -7 -23 -21z
" />
    <glyph glyph-name="six" unicode="6" horiz-adv-x="1085" 
d="M252 659c29.333 64 74.332 114.499 134.999 151.499s127 55.5 199 55.5c122 0 219.333 -39.333 292 -118s109 -181.334 109 -308.001c0 -131.333 -40 -240.833 -120 -328.5s-182.667 -131.5 -308 -131.5c-142 0 -250.5 49 -325.5 147s-112.5 242 -112.5 432
c0 284.667 48.667 498.167 146 640.5s243.333 213.5 438 213.5c32 0 68.167 -3.66699 108.5 -11s64.333 -17.666 72 -30.999s11.5 -25.333 11.5 -36c0 -17.333 -5.5 -32.833 -16.5 -46.5s-24.5 -20.5 -40.5 -20.5h-9c-2 0 -4.66699 0.666992 -8 2
c-47.333 14.667 -93.666 22 -138.999 22c-128.667 0 -232 -54.167 -310 -162.5s-118.667 -265.166 -122 -470.499zM572.999 744.999c-90 0 -164 -29 -222 -87s-87 -128.667 -87 -212c0 -100 25.667 -182.667 77 -248s124 -98 218 -98c90.667 0 163.5 31.833 218.5 95.5
s82.5 144.5 82.5 242.5c0 94.667 -26.333 169.5 -79 224.5s-122 82.5 -208 82.5z" />
    <glyph glyph-name="seven" unicode="7" horiz-adv-x="1085" 
d="M334 55c0 120.667 52.835 304.167 158.502 550.5s213.167 445.166 322.5 596.499c10.667 17.333 16 30.333 16 39c0 20.667 -12.667 31 -38 31h-576c-42 0 -63 19.667 -63 59c0 41.333 21 62 63 62h629c37.333 0 67.5 -10.667 90.5 -32s34.5 -49.666 34.5 -84.999
c0 -41.333 -20.667 -92 -62 -152c-110.667 -160 -209.667 -341.667 -297 -545s-137.666 -380 -150.999 -530c-2.66699 -18.667 -9.33398 -32.5 -20.001 -41.5s-25.334 -13.5 -44.001 -13.5c-16.667 0 -31.334 5 -44.001 15s-19 25.333 -19 46z" />
    <glyph glyph-name="eight" unicode="8" horiz-adv-x="1085" 
d="M356 743c-64 29.333 -114.669 70.667 -152.002 124s-56 114.666 -56 183.999c0 106.667 36.833 193.667 110.5 261s167.167 101 280.5 101c116.667 0 211.834 -33.333 285.501 -100s110.5 -152.667 110.5 -258c0 -68.667 -18.5 -130 -55.5 -184s-87.833 -96 -152.5 -126
c83.333 -30.667 147.833 -77 193.5 -139s68.5 -134.333 68.5 -217c0 -121.333 -42.167 -219.833 -126.5 -295.5s-192.166 -113.5 -323.499 -113.5c-132.667 0 -240 36.667 -322 110s-123 170.333 -123 291c0 80.667 22.5 153.334 67.5 218.001s109.833 112.667 194.5 144z
M538.998 1292c-78.667 0 -142.835 -22.833 -192.502 -68.5s-74.5 -104.5 -74.5 -176.5c0 -70 23.833 -127.833 71.5 -173.5s112.834 -68.5 195.501 -68.5c82 0 147 22.667 195 68s72 103.333 72 174c0 72.667 -24.667 131.667 -74 177s-113.666 68 -192.999 68z
M538.997 680.001c-98 0 -175.499 -27.668 -232.499 -83.001s-85.5 -124 -85.5 -206c0 -91.333 28.167 -162.666 84.5 -213.999s134.166 -77 233.499 -77c101.333 0 180.5 26.833 237.5 80.5s85.5 126.5 85.5 218.5c0 81.333 -28.667 148.5 -86 201.5
s-136.333 79.5 -237 79.5z" />
    <glyph glyph-name="nine" unicode="9" horiz-adv-x="1085" 
d="M834 733c-34 -68.667 -80.332 -120.333 -138.999 -155s-124.334 -52 -197.001 -52c-120.667 0 -217.5 39.667 -290.5 119s-109.5 182.333 -109.5 309c0 134 39.333 244 118 330s182 129 310 129c143.333 0 252.333 -49.167 327 -147.5s112 -242.166 112 -431.499
c0 -282 -49 -494.833 -147 -638.5s-243.667 -215.5 -437 -215.5c-57.333 0 -103.5 5 -138.5 15s-52.5 30 -52.5 60c0 19.333 5.66699 35.5 17 48.5s24.333 19.5 39 19.5h9c2.66699 0 5.66699 -0.666992 9 -2c45.333 -14 91 -21 137 -21c132 0 237.167 56.167 315.5 168.5
s117.5 267.166 117.5 464.499zM526.001 1292c-91.333 0 -164.334 -31.167 -219.001 -93.5s-82 -143.833 -82 -244.5c0 -90.667 25.333 -164.5 76 -221.5s120.334 -85.5 209.001 -85.5c94 0 169 30.167 225 90.5s84 129.833 84 208.5c0 100 -26 182.667 -78 248
s-123.667 98 -215 98z" />
    <glyph glyph-name="colon" unicode=":" horiz-adv-x="406" 
d="M203 797c-26 0 -47.833 8.83301 -65.5 26.5s-26.5 39.5 -26.5 65.5s8.83301 47.833 26.5 65.5s39.5 26.5 65.5 26.5c26.667 0 49 -8.66699 67 -26s27 -39.333 27 -66s-9 -48.667 -27 -66s-40.333 -26 -67 -26zM203 -20c-26 0 -47.833 8.83301 -65.5 26.5
s-26.5 39.5 -26.5 65.5s8.83301 48.167 26.5 66.5s39.5 27.5 65.5 27.5c26.667 0 49 -9 67 -27s27 -40.333 27 -67c0 -26 -9 -47.833 -27 -65.5s-40.333 -26.5 -67 -26.5zM203 1044z" />
    <glyph glyph-name="semicolon" unicode=";" horiz-adv-x="406" 
d="M205 797c-26 0 -48.167 9 -66.5 27s-27.5 39.667 -27.5 65s9.16699 47 27.5 65s40.5 27 66.5 27c26.667 0 48.667 -8.66699 66 -26s26 -39.333 26 -66s-8.66699 -48.667 -26 -66s-39.333 -26 -66 -26zM166 -225c-32.667 0 -49 16.332 -49 48.999
c0 12.667 6.66699 36.334 20 71.001c12.667 34.667 19 69 19 103l-9 108c0 49.333 21.333 74 64 74c30.667 0 52 -13.667 64 -41s18 -64 18 -110c0 -70.667 -14.333 -130.667 -43 -180s-56.667 -74 -84 -74zM223 -20.001z" />
    <glyph glyph-name="less" unicode="&#x3c;" horiz-adv-x="1085" 
d="M264 518l691.999 -371c26 -14 39 -30.333 39 -49c0 -11.333 -5.33301 -25 -16 -41s-23 -24 -37 -24c-10 0 -24.333 4.66699 -43 14l-766 414c-28.667 15.333 -43 34.333 -43 57c0 24.667 14.333 43.667 43 57l766 414c18.667 10 32.334 15 41.001 15
c16.667 0 30 -8.5 40 -25.5s15 -29.833 15 -38.5c0 -18 -13 -35 -39 -51z" />
    <glyph glyph-name="equal" unicode="=" horiz-adv-x="1085" 
d="M963 639h-840c-44 0 -66 19 -66 57c0 38.667 22 58 66 58h840c43.333 0 65 -19.333 65 -58c0 -38 -21.667 -57 -65 -57zM963 270h-840c-44 0 -66 19.333 -66 58c0 38 22 57 66 57h840c43.333 0 65 -19 65 -57c0 -38.667 -21.667 -58 -65 -58zM243 460z" />
    <glyph glyph-name="greater" unicode="&#x3e;" horiz-adv-x="1085" 
d="M821 518l-692.002 369.999c-26 14 -39 31 -39 51c0 8.66699 5.16699 21.5 15.5 38.5s23.5 25.5 39.5 25.5c6.66699 0 13.334 -1.66699 20.001 -5l787 -422c28.667 -15.333 43 -34.666 43 -57.999c0 -22 -14.333 -41 -43 -57l-766 -414
c-17.333 -9.33301 -31.666 -14 -42.999 -14c-13.333 0 -25.5 8 -36.5 24s-16.5 29.667 -16.5 41c0 18 13 34.333 39 49z" />
    <glyph glyph-name="question" unicode="?" horiz-adv-x="903" 
d="M457 459v-109c0 -42 -21.333 -63 -64 -63c-42 0 -63 21 -63 63v119c0 69.333 16.167 131.833 48.5 187.5s85.833 109.167 160.5 160.5c63.333 44.667 106.833 87.334 130.5 128.001s35.5 84 35.5 130c0 62.667 -22.833 114.167 -68.5 154.5s-106.167 60.5 -181.5 60.5
c-92.667 0 -174.667 -32 -246 -96c-20.667 -18 -34.167 -28.667 -40.5 -32s-14.833 -5 -25.5 -5c-14 0 -27 5.16699 -39 15.5s-18 24.166 -18 41.499c0 39.333 37.667 82.333 113 129s162 70 260 70c114 0 205.333 -31.333 274 -94s103 -142.667 103 -240
c0 -62.667 -16.5 -122.167 -49.5 -178.5s-91.167 -115.5 -174.5 -177.5c-54.667 -40.667 -94.167 -80.5 -118.5 -119.5s-36.5 -87.167 -36.5 -144.5zM393 -20c-26 0 -47.833 8.83301 -65.5 26.5s-26.5 39.5 -26.5 65.5s8.83301 48.167 26.5 66.5s39.5 27.5 65.5 27.5
c26.667 0 49 -9 67 -27s27 -40.333 27 -67c0 -26 -9 -47.833 -27 -65.5s-40.333 -26.5 -67 -26.5z" />
    <glyph glyph-name="at" unicode="@" horiz-adv-x="1681" 
d="M1051 397c-21.333 -44.667 -54.001 -78.667 -98.001 -102s-94 -35 -150 -35c-96.667 0 -173.5 35.833 -230.5 107.5s-85.5 170.5 -85.5 296.5c0 114 33.333 209 100 285s151.667 114 255 114c39.333 0 77 -8.5 113 -25.5s62.333 -37.833 79 -62.5v29
c0 35.333 17.667 53 53 53c37.333 0 56 -17.667 56 -53v-508c0 -40.667 9 -73.5 27 -98.5s43.667 -37.5 77 -37.5c59.333 0 108 32.833 146 98.5s57 158.5 57 278.5c0 169.333 -54.833 307 -164.5 413s-254.167 159 -433.5 159c-182.667 0 -331.5 -60.167 -446.5 -180.5
s-172.5 -279.5 -172.5 -477.5c0 -188.667 54.333 -339.5 163 -452.5s249.667 -169.5 423 -169.5c124 0 236 29.333 336 88c19.333 10.667 34.333 16 45 16c14.667 0 26.5 -5.33301 35.5 -16s13.5 -23.667 13.5 -39c0 -17.333 -14 -35.666 -42 -54.999s-77.667 -41 -149 -65
s-153 -36 -245 -36c-203.333 0 -369.833 68.333 -499.5 205s-194.5 312 -194.5 526c0 221.333 68.333 403.333 205 546s313.334 214 530.001 214c212 0 383.167 -62.833 513.5 -188.5s195.5 -288.834 195.5 -489.501c0 -136 -30 -249.167 -90 -339.5
s-144 -135.5 -252 -135.5c-43.333 0 -80 12.833 -110 38.5s-50 58.5 -60 98.5zM1034 754c0 64.667 -16.999 115.667 -50.999 153s-81 56 -141 56c-71.333 0 -129.166 -29.167 -173.499 -87.5s-66.5 -132.5 -66.5 -222.5c0 -98 18.667 -171.333 56 -220
s93.666 -73 168.999 -73c59.333 0 108.666 20.667 147.999 62s59 92.333 59 153v179z" />
    <glyph glyph-name="A" unicode="A" horiz-adv-x="1171" 
d="M895 410l-611.998 -0.00195312c-56.667 -184.667 -92.334 -307 -107.001 -367c-7.33301 -32.667 -25 -49 -53 -49c-49.333 0 -74 19 -74 57c0 26 21 107.333 63 244c69.333 224.667 127.5 399.834 174.5 525.501s104.167 258.834 171.5 399.501
c48.667 101.333 78.667 156.5 90 165.5s25.333 13.5 42 13.5h14c17.333 0 31 -4.66699 41 -14s46 -79.833 108 -211.5s118.667 -272.334 170 -422.001s102.333 -316.5 153 -500.5c30.667 -111.333 46 -178.666 46 -201.999c0 -36.667 -23.667 -55 -71 -55
c-28.667 0 -47.334 16.333 -56.001 49c-10.667 56 -44 178.333 -100 367zM858.002 534.998c-74 244.667 -161.333 471 -262 679c-104.667 -210 -196 -436.333 -274 -679h536z" />
    <glyph glyph-name="B" unicode="B" horiz-adv-x="1167" 
d="M801 737c87.333 -15.333 154.831 -53 202.498 -113s71.5 -135 71.5 -225c0 -125.333 -39.667 -223.166 -119 -293.499s-185 -105.5 -317 -105.5h-317c-43.333 0 -77.166 11.667 -101.499 35s-36.5 56.666 -36.5 99.999v1102c0 46 11.833 83.5 35.5 112.5
s61.834 43.5 114.501 43.5h270c137.333 0 240.333 -30.167 309 -90.5s103 -150.5 103 -270.5c0 -68 -20.167 -130.167 -60.5 -186.5s-91.833 -92.5 -154.5 -108.5zM312.998 793l310.001 -0.00195312c77.333 0 140.666 21.333 189.999 64s74 98.334 74 167.001
c0 84.667 -23.333 146.167 -70 184.5s-119.667 57.5 -219 57.5h-250c-10 0 -18.333 -3.66699 -25 -11s-10 -16.666 -10 -27.999v-434zM312.999 665.998l0.000976562 -514.001c0 -20.667 9 -31 27 -31h307c94 0 167.333 23.833 220 71.5s79 115.834 79 204.501
s-28.333 155.667 -85 201s-138.334 68 -245.001 68h-303z" />
    <glyph glyph-name="C" unicode="C" horiz-adv-x="1190" 
d="M680 -20c-181.333 0 -324.667 64.667 -430 194s-158 303.333 -158 522c0 213.333 56.833 386.166 170.5 518.499s260.167 198.5 439.5 198.5c110 0 204.167 -20.167 282.5 -60.5s117.5 -78.166 117.5 -113.499c0 -17.333 -6.33301 -32.166 -19 -44.499
s-25.667 -18.5 -39 -18.5c-8 0 -15.167 1.33301 -21.5 4s-20.166 11.334 -41.499 26.001c-80.667 57.333 -173.667 86 -279 86c-144 0 -260.167 -54.5 -348.5 -163.5s-132.5 -253.167 -132.5 -432.5c0 -185.333 42.167 -331 126.5 -437s195.833 -159 334.5 -159
c56.667 0 111.5 9.16699 164.5 27.5s110.167 52.166 171.5 101.499c18.667 15.333 35.667 23 51 23s27.666 -6.33301 36.999 -19s14 -26 14 -40c0 -32.667 -45.333 -76.334 -136 -131.001s-192 -82 -304 -82z" />
    <glyph glyph-name="D" unicode="D" horiz-adv-x="1311" 
d="M580 0l-257.999 0.00195312c-43.333 0 -77.166 11.667 -101.499 35s-36.5 56.666 -36.5 99.999v1122c0 43.333 12.167 76.833 36.5 100.5s58.166 35.5 101.499 35.5h258c199.333 0 355.666 -60 468.999 -180s170 -279.333 170 -478
c0 -220.667 -57.5 -398.334 -172.5 -533.001s-270.5 -202 -466.5 -202zM586.001 1266h-245.999c-18 0 -27 -10.333 -27 -31v-1077c0 -20.667 9 -31 27 -31h246c161.333 0 285.666 53.667 372.999 161s131 253 131 437c0 170.667 -43 303.5 -129 398.5s-211 142.5 -375 142.5
z" />
    <glyph glyph-name="E" unicode="E" horiz-adv-x="1032" 
d="M313 788h505.998c42.667 0 64 -21.667 64 -65c0 -40.667 -21.333 -61 -64 -61h-506v-504c0 -20.667 9 -31 27 -31h545c43.333 0 65 -20.333 65 -61c0 -44 -21.667 -66 -65 -66h-563c-43.333 0 -77.166 11.667 -101.499 35s-36.5 56.666 -36.5 99.999v1102
c0 46 11.833 83.5 35.5 112.5s61.834 43.5 114.501 43.5h551c43.333 0 65 -21.333 65 -64c0 -42 -21.667 -63 -65 -63h-537c-10 0 -18.333 -3.66699 -25 -11s-10 -16.666 -10 -27.999v-439z" />
    <glyph glyph-name="F" unicode="F" horiz-adv-x="1004" 
d="M313 788h485.999c42 0 63 -21 63 -63s-21 -63 -63 -63h-486v-603c0 -43.333 -20.333 -65 -61 -65c-45.333 0 -68 21 -68 63v1180c0 46 11.833 83.5 35.5 112.5s61.834 43.5 114.501 43.5h551c43.333 0 65 -21.333 65 -64c0 -42 -21.667 -63 -65 -63h-539
c-10 0 -18 -4.33301 -24 -13s-9 -18.667 -9 -30v-435z" />
    <glyph glyph-name="G" unicode="G" horiz-adv-x="1319" 
d="M1165 217c0 -50.667 -13.167 -89.3281 -39.5 -115.995s-77.833 -53.5 -154.5 -80.5s-163.334 -40.5 -260.001 -40.5c-190.667 0 -341.5 64.167 -452.5 192.5s-166.5 300.166 -166.5 515.499c0 147.333 27.5 275.666 82.5 384.999s132.833 193.333 233.5 252
s207.667 88 321 88c63.333 0 122.333 -7.33301 177 -22s103.5 -34.834 146.5 -60.501s68.167 -43.834 75.5 -54.501s11 -22.334 11 -35.001c0 -16 -6.5 -31.167 -19.5 -45.5s-27.833 -21.5 -44.5 -21.5c-9.33301 0 -18.333 2.66699 -27 8l-28 18
c-90 61.333 -188.333 92 -295 92c-145.333 0 -265.666 -54.167 -360.999 -162.5s-143 -255.5 -143 -441.5c0 -178 44.333 -320.5 133 -427.5s209.667 -160.5 363 -160.5c71.333 0 137 10 197 30s95.333 35.167 106 45.5s16 30.5 16 60.5v366h-309c-42 0 -63 21.333 -63 64
c0 42 21 63 63 63h377c40.667 0 61 -21 61 -63v-449z" />
    <glyph glyph-name="H" unicode="H" horiz-adv-x="1350" 
d="M1165 59c0 -43.333 -21.667 -65 -65 -65c-42.667 0 -64 21.667 -64 65v590h-723v-590c0 -43.333 -21.667 -65 -65 -65c-42.667 0 -64 21.667 -64 65v1276c0 42.667 21.333 64 64 64c43.333 0 65 -21.333 65 -64v-559h723v559c0 42.667 21.333 64 64 64
c43.333 0 65 -21.333 65 -64v-1276z" />
    <glyph glyph-name="I" unicode="I" horiz-adv-x="498" 
d="M313 59c0 -43.333 -21.667 -65 -65 -65c-42.667 0 -64 21.667 -64 65v1276c0 42.667 21.333 64 64 64c43.333 0 65 -21.333 65 -64v-1276z" />
    <glyph glyph-name="J" unicode="J" horiz-adv-x="905" 
d="M766 473c0 -160 -33.499 -282.166 -100.499 -366.499s-167.167 -126.5 -300.5 -126.5c-78.667 0 -152 14.667 -220 44s-102 61.666 -102 96.999c0 17.333 5.66699 32.5 17 45.5s24.666 19.5 39.999 19.5c12.667 0 27 -4.66699 43 -14c78.667 -46.667 151 -70 217 -70
c94 0 163.667 30.667 209 92s68 155 68 281v860c0 42.667 21 64 63 64c44 0 66 -21.333 66 -64v-862z" />
    <glyph glyph-name="K" unicode="K" horiz-adv-x="1157" 
d="M473 686l-159.997 -122.997v-506c0 -42 -21.667 -63 -65 -63c-42.667 0 -64 21 -64 63v1278c0 42.667 21.333 64 64 64c43.333 0 65 -21.333 65 -64v-620c121.333 88.667 233.666 187.667 336.999 297s197.333 228.666 282 357.999c13.333 20.667 29.666 31 48.999 31
c17.333 0 33.333 -6 48 -18s22 -26 22 -42c0 -8 -2.33301 -17.333 -7 -28s-33.167 -51.334 -85.5 -122.001s-112.5 -142.834 -180.5 -216.501s-137.667 -141.167 -209 -202.5c90 -91.333 172.667 -182.833 248 -274.5s142.5 -181.5 201.5 -269.5s90.333 -137 94 -147
s5.5 -19.333 5.5 -28c0 -15.333 -7.33301 -29.333 -22 -42s-30.334 -19 -47.001 -19c-19.333 0 -37.333 11.667 -54 35c-85.333 132 -171.5 252.833 -258.5 362.5s-174.833 208.5 -263.5 296.5z" />
    <glyph glyph-name="L" unicode="L" horiz-adv-x="954" 
d="M860 0l-536 0.000976562c-43.333 0 -77.5 11.667 -102.5 35s-37.5 56.666 -37.5 99.999v1200c0 42.667 22 64 66 64c42 0 63 -21.333 63 -64v-1175c0 -22 9.66699 -33 29 -33h518c44 0 66 -20.333 66 -61c0 -44 -22 -66 -66 -66z" />
    <glyph glyph-name="M" unicode="M" horiz-adv-x="1565" 
d="M1380 57c0 -42 -21.001 -63 -63.001 -63c-38 0 -57 21 -57 63v1198l-402 -745c-19.333 -35.333 -44.666 -53 -75.999 -53c-29.333 0 -56 17.333 -80 52l-397 746v-1198c0 -42 -19.667 -63 -59 -63c-41.333 0 -62 21 -62 63v1231c0 31.333 9.5 57.666 28.5 78.999
s44.5 32 76.5 32c45.333 0 78 -18.667 98 -56l395 -733l396 733c20 37.333 52.667 56 98 56c32 0 57.333 -10.667 76 -32s28 -47.666 28 -78.999v-1231z" />
    <glyph glyph-name="N" unicode="N" horiz-adv-x="1360" 
d="M1176 96c0 -30 -9.83398 -54.5 -29.501 -73.5s-45.5 -28.5 -77.5 -28.5c-41.333 0 -72.666 19 -93.999 57l-670 1192v-1186c0 -42 -19.667 -63 -59 -63c-41.333 0 -62 21 -62 63v1231c0 36 10 63.5 30 82.5s45.667 28.5 77 28.5c44 0 76 -18.667 96 -56l668 -1189v1181
c0 42.667 19.667 64 59 64c41.333 0 62 -21.333 62 -64v-1239z" />
    <glyph glyph-name="O" unicode="O" horiz-adv-x="1356" 
d="M680 -20c-180 0 -322.999 67.168 -428.999 201.501s-159 305.833 -159 514.5c0 213.333 53.167 386.166 159.5 518.499s249.166 198.5 428.499 198.5s321.5 -67 426.5 -201s157.5 -306 157.5 -516c0 -207.333 -52.5 -378.5 -157.5 -513.5s-247.167 -202.5 -426.5 -202.5z
M678.001 1290c-141.333 0 -252.833 -55.667 -334.5 -167s-122.5 -253.666 -122.5 -426.999c0 -172.667 41.5 -314.834 124.5 -426.501s193.833 -167.5 332.5 -167.5c141.333 0 252.833 56 334.5 168s122.5 254 122.5 426s-40.833 314 -122.5 426s-193.167 168 -334.5 168z
" />
    <glyph glyph-name="P" unicode="P" horiz-adv-x="1083" 
d="M313 543l-0.000976562 -486.001c0 -42 -21 -63 -63 -63c-44 0 -66 21 -66 63v1180c0 46 11.833 83.5 35.5 112.5s61.834 43.5 114.501 43.5h262c135.333 0 240.833 -37.333 316.5 -112s113.5 -180.667 113.5 -318c0 -125.333 -41 -226.666 -123 -303.999
s-189 -116 -321 -116h-269zM312.999 669.999l279.001 -0.00195312c92 0 165.833 26.667 221.5 80s83.5 124.333 83.5 213c0 100.667 -25.333 176.334 -76 227.001s-126.334 76 -227.001 76h-246c-10 0 -18.333 -3.66699 -25 -11s-10 -16.666 -10 -27.999v-557z" />
    <glyph glyph-name="Q" unicode="Q" horiz-adv-x="1356" 
d="M745 -16c0.666992 -53.333 14.667 -93.001 42 -119.001s72.333 -39 135 -39c43.333 0 65 -20.667 65 -62c0 -39.333 -21.667 -59 -65 -59c-96 0 -171 23.833 -225 71.5s-81 116.834 -81 207.501c-162.667 15.333 -290.667 89.333 -384 222s-140 296 -140 490
c0 208 54.667 379.5 164 514.5s250.666 202.5 423.999 202.5c179.333 0 321.5 -67 426.5 -201s157.5 -306 157.5 -516c0 -194.667 -46.167 -358 -138.5 -490s-219.166 -206 -380.499 -222zM678 1290c-141.333 0 -252.833 -55.667 -334.5 -167
s-122.5 -253.666 -122.5 -426.999c0 -172.667 41.5 -314.834 124.5 -426.501s193.833 -167.5 332.5 -167.5c141.333 0 252.833 56 334.5 168s122.5 254 122.5 426s-40.833 314 -122.5 426s-193.167 168 -334.5 168z" />
    <glyph glyph-name="R" unicode="R" horiz-adv-x="1139" 
d="M313 627l-0.00390625 -569.999c0 -42 -21 -63 -63 -63c-44 0 -66 21 -66 63v1180c0 46 11.833 83.5 35.5 112.5s61.834 43.5 114.501 43.5h239c147.333 0 258 -31.167 332 -93.5s111 -155.5 111 -279.5c0 -94 -30.833 -174 -92.5 -240s-141.5 -105.333 -239.5 -118
c48.667 -18.667 95.167 -54 139.5 -106s86.833 -121 127.5 -207c81.333 -171.333 122 -269.333 122 -294c0 -18.667 -7.16699 -33.834 -21.5 -45.501s-33.166 -17.5 -56.499 -17.5s-39 10.333 -47 31c-79.333 209.333 -155.666 362.333 -228.999 459
s-160.666 145 -261.999 145h-144zM312.996 754.001l248 -0.000976562c102.667 0 182.667 23.667 240 71s86 113 86 197s-25.167 145.667 -75.5 185s-130.5 59 -240.5 59h-223c-10 0 -18.333 -3.66699 -25 -11s-10 -16.666 -10 -27.999v-473z" />
    <glyph glyph-name="S" unicode="S" horiz-adv-x="1042" 
d="M508 -20c-115.333 0 -214.833 23.501 -298.5 70.501s-125.5 88.833 -125.5 125.5c0 16.667 6.33301 31.834 19 45.501s26.667 20.5 42 20.5c16 0 33.333 -7.66699 52 -23c94.667 -78 198.334 -117 311.001 -117c89.333 0 160.833 24.167 214.5 72.5
s80.5 114.5 80.5 198.5c0 50.667 -11.833 93 -35.5 127s-54 60.833 -91 80.5s-100.167 43.167 -189.5 70.5c-102.667 30 -177.334 59.833 -224.001 89.5s-83.334 68.5 -110.001 116.5s-40 107 -40 177c0 112.667 39.833 204 119.5 274s178.167 105 295.5 105
c101.333 0 190.833 -22.667 268.5 -68s116.5 -86 116.5 -122c0 -16.667 -6.16699 -31.5 -18.5 -44.5s-27.166 -19.5 -44.499 -19.5c-10.667 0 -19.5 2.5 -26.5 7.5s-17.167 12.833 -30.5 23.5c-53.333 40 -99.833 66.667 -139.5 80s-81.5 20 -125.5 20
c-88 0 -157.667 -23.333 -209 -70s-77 -108.667 -77 -186c0 -48.667 10.833 -88.834 32.5 -120.501s49.834 -56.834 84.501 -75.501s91.667 -39.334 171 -62.001c161.333 -46 268.666 -101 321.999 -165s80 -143.333 80 -238c0 -117.333 -39.833 -212.166 -119.5 -284.499
s-181.167 -108.5 -304.5 -108.5z" />
    <glyph glyph-name="T" unicode="T" horiz-adv-x="973" 
d="M551 1266v-1207c0 -43.333 -21.333 -65 -64 -65c-43.333 0 -65 21.667 -65 65v1207h-340c-44 0 -66 21 -66 63c0 42.667 22 64 66 64h809c43.333 0 65 -21.333 65 -64c0 -42 -21.667 -63 -65 -63h-340z" />
    <glyph glyph-name="U" unicode="U" horiz-adv-x="1319" 
d="M1139 438c0 -138.667 -44.668 -249.667 -134.001 -333s-205.333 -125 -348 -125c-141.333 0 -256.166 41.667 -344.499 125s-132.5 194.333 -132.5 333v897c0 42.667 21.333 64 64 64c43.333 0 65 -21.333 65 -64v-897c0 -103.333 31.5 -185.166 94.5 -245.499
s147.5 -90.5 253.5 -90.5c104.667 0 189.667 30.167 255 90.5s98 142.166 98 245.499v897c0 42.667 21 64 63 64c44 0 66 -21.333 66 -64v-897z" />
    <glyph glyph-name="V" unicode="V" horiz-adv-x="1139" 
d="M541 156c87.333 168 165.669 351.672 235.002 551.005s130 414.333 182 645c8 32.667 26 49 54 49c48.667 0 73 -19.333 73 -58c0 -22.667 -24.167 -122.334 -72.5 -299.001s-99.333 -335.334 -153 -476.001s-109.667 -266.167 -168 -376.5s-93 -170.833 -104 -181.5
s-26.5 -16 -46.5 -16c-18 0 -32 2.83301 -42 8.5s-26 29.167 -48 70.5s-45.333 89.333 -70 144c-60 128.667 -112.5 265.5 -157.5 410.5s-85 295.167 -120 450.5s-52.5 243.666 -52.5 264.999c0 19.333 7.16699 33.833 21.5 43.5s31.166 14.5 50.499 14.5
c32 0 51 -17.667 57 -53c40.667 -234.667 91.167 -451.334 151.5 -650.001s130.166 -379.334 209.499 -542.001z" />
    <glyph glyph-name="W" unicode="W" horiz-adv-x="1812" 
d="M901 1092c-50 -217.333 -102.327 -401.998 -156.994 -553.998s-104.834 -276.333 -150.501 -373s-73.834 -149.334 -84.501 -158.001s-25.334 -13 -44.001 -13c-17.333 0 -30.5 3.66699 -39.5 11s-27.5 41.666 -55.5 102.999c-46 101.333 -92 222.666 -138 363.999
c-22.667 70.667 -45 148.5 -67 233.5s-43.333 176.833 -64 275.5c-41.333 197.333 -62 316 -62 356c0 19.333 6.83301 34.833 20.5 46.5s32.167 17.5 55.5 17.5c33.333 0 51.666 -17 54.999 -51c18.667 -142 54.334 -326.167 107.001 -552.5s118.667 -432.833 198 -619.5
c75.333 163.333 143.666 342.666 204.999 537.999s115.333 406.666 162 633.999c7.33301 34 29.666 51 66.999 51c35.333 0 56 -17.667 62 -53c18 -122.667 56.5 -303.5 115.5 -542.5s126.833 -448.167 203.5 -627.5c72 155.333 137.333 330.5 196 525.5
s110.667 409.833 156 644.5c6.66699 35.333 26.667 53 60 53c48 0 72 -18.333 72 -55c0 -16 -13.833 -86.833 -41.5 -212.5s-68.167 -275.667 -121.5 -450s-108.333 -326.666 -165 -456.999s-92 -201.666 -106 -213.999s-29.333 -18.5 -46 -18.5
c-14.667 0 -26 1.83301 -34 5.5s-14.833 9 -20.5 16s-25 47.333 -58 121s-68.333 165.834 -106 276.501s-70.334 220.5 -98.001 329.5s-53.167 225.5 -76.5 349.5z" />
    <glyph glyph-name="X" unicode="X" horiz-adv-x="1104" 
d="M651 707c124 -114.667 217.166 -225.004 279.499 -331.004s93.5 -211.667 93.5 -317c0 -43.333 -20 -65 -60 -65c-46 0 -69 21 -69 63c0 88 -26.333 177.167 -79 267.5s-137 191.833 -253 304.5c-125.333 -114.667 -216.666 -217.5 -273.999 -308.5
s-86 -179.5 -86 -265.5c0 -40.667 -20.333 -61 -61 -61c-44 0 -66 21.667 -66 65c0 100.667 33.667 204.167 101 310.5s167.333 218.833 300 337.5c-122.667 117.333 -211.334 226.5 -266.001 327.5s-82 200.5 -82 298.5c0 44 22 66 66 66c42 0 63 -21.333 63 -64
c0 -86 24 -172.333 72 -259s126.333 -184 235 -292c108.667 104.667 191.834 202.334 249.501 293.001s86.5 177.334 86.5 260.001c0 41.333 22 62 66 62c40.667 0 61 -22 61 -66c0 -95.333 -32.333 -194.666 -97 -297.999s-158 -212.666 -280 -327.999z" />
    <glyph glyph-name="Y" unicode="Y" horiz-adv-x="1028" 
d="M565 547l0.00195312 -490.002c0 -42 -21 -63 -63 -63c-44 0 -66 21 -66 63v488c-106 100.667 -197 229.334 -273 386.001s-114 292 -114 406c0 41.333 22 62 66 62c42 0 63 -21.333 63 -64c0 -98 30.167 -211.667 90.5 -341s137.5 -243.666 231.5 -342.999
c94.667 96 175.667 212 243 348s103 248.667 107 338c1.33301 23.333 7.16602 39.5 17.499 48.5s26.166 13.5 47.499 13.5c42.667 0 64 -22 64 -66c0 -99.333 -41.5 -229.5 -124.5 -390.5s-179.5 -292.833 -289.5 -395.5z" />
    <glyph glyph-name="Z" unicode="Z" horiz-adv-x="1051" 
d="M190 127l711.003 0.000976562c44 0 66 -21.333 66 -64c0 -42 -22 -63 -66 -63h-774c-21.333 0 -39 6.66699 -53 20s-21 30.666 -21 51.999c0 52.667 15.167 107.167 45.5 163.5s68.666 116.166 114.999 179.499s159.166 201.333 338.499 414
c175.333 209.333 274.666 355 297.999 437h-682c-44 0 -66 21 -66 63c0 42.667 22 64 66 64h745c21.333 0 39.333 -8.66699 54 -26s22 -36.666 22 -57.999c0 -56 -25 -127 -75 -213s-187.333 -260.333 -412 -523c-178 -207.333 -282 -356 -312 -446z" />
    <glyph glyph-name="bracketleft" unicode="[" horiz-adv-x="561" 
d="M435 1401l-124 -0.000976562c-18.667 0 -28 -11 -28 -33v-1382c0 -22 9.33301 -33 28 -33h124c21.333 0 37.666 -3.83301 48.999 -11.5s17 -22.167 17 -43.5c0 -40 -22 -60 -66 -60h-142c-43.333 0 -75.666 11.333 -96.999 34s-32 56.334 -32 101.001v1407
c0 45.333 10.667 79.333 32 102s53.666 34 96.999 34h142c44 0 66 -20 66 -60c0 -21.333 -5.66699 -35.833 -17 -43.5s-27.666 -11.5 -48.999 -11.5zM373 1536z" />
    <glyph glyph-name="backslash" unicode="\" horiz-adv-x="721" 
d="M686 0c4 -12 6 -21.667 6 -29c0 -16.667 -7 -30 -21 -40s-30.667 -15 -50 -15c-25.333 0 -43.333 14.333 -54 43l-538 1583c-2.66699 8 -4 16.333 -4 25c0 20 8.83301 34.833 26.5 44.5s32.5 14.5 44.5 14.5c23.333 0 40.333 -15 51 -45zM103 1536z" />
    <glyph glyph-name="bracketright" unicode="]" horiz-adv-x="561" 
d="M127 1516l141 0.000976562c42.667 0 74.834 -11.333 96.501 -34s32.5 -56.667 32.5 -102v-1407c0 -44.667 -10.833 -78.334 -32.5 -101.001s-53.834 -34 -96.501 -34h-141c-44 0 -66 20 -66 60c0 21.333 5.66699 35.833 17 43.5s27.666 11.5 48.999 11.5h123
c19.333 0 29 11 29 33v1382c0 22 -9.66699 33 -29 33h-123c-21.333 0 -37.666 3.83301 -48.999 11.5s-17 22.167 -17 43.5c0 40 22 60 66 60zM213 1536z" />
    <glyph glyph-name="asciicircum" unicode="^" horiz-adv-x="1208" 
d="M604 1247l-371.002 -517.999c-10 -14 -18.5 -24 -25.5 -30s-15.5 -9 -25.5 -9c-14 0 -28 5.66699 -42 17s-21 25 -21 41c0 13.333 6.66699 29.666 20 48.999l408 581c16.667 23.333 35.667 35 57 35c14.667 0 25.834 -3 33.501 -9s15.834 -14.667 24.501 -26l407 -585
c14 -20 21 -36.667 21 -50c0 -12 -6.33301 -23.833 -19 -35.5s-27.667 -17.5 -45 -17.5c-16.667 0 -33.667 13 -51 39z" />
    <glyph glyph-name="underscore" unicode="_" horiz-adv-x="1024" 
d="M1024 -322h-1024c-36.667 0 -55 19.333 -55 58c0 38 18.333 57 55 57h1024c36.667 0 55 -19 55 -57c0 -38.667 -18.333 -58 -55 -58z" />
    <glyph glyph-name="grave" unicode="`" horiz-adv-x="416" 
d="M268 1262l-197.999 157c-27.333 22 -41 42 -41 60c0 17.333 6 31.833 18 43.5s26.333 17.5 43 17.5c15.333 0 33.666 -9.66699 54.999 -29l203 -157c26 -20 39 -39.333 39 -58c0 -14 -6 -28 -18 -42s-25.667 -21 -41 -21c-13.333 0 -33.333 9.66699 -60 29z" />
    <glyph glyph-name="a" unicode="a" 
d="M965 57c0 -42 -21.3311 -63 -63.998 -63c-42 0 -63 21 -63 63v99c-34.667 -58.667 -78.334 -102.667 -131.001 -132s-114.334 -44 -185.001 -44c-134.667 0 -240 49.667 -316 149s-114 231 -114 395c0 161.333 38.833 291.833 116.5 391.5s187.167 149.5 328.5 149.5
c67.333 0 126 -13.5 176 -40.5s91.667 -67.5 125 -121.5v86c0 41.333 21 62 63 62c42.667 0 64 -20.667 64 -62v-932zM838.002 623c0 94.667 -27.999 171.832 -83.999 231.499s-127 89.5 -213 89.5c-101.333 0 -180.333 -39.667 -237 -119s-85 -179.666 -85 -300.999
c0 -131.333 27 -234.833 81 -310.5s134.333 -113.5 241 -113.5c87.333 0 158.666 29.833 213.999 89.5s83 136.5 83 230.5v203z" />
    <glyph glyph-name="b" unicode="b" 
d="M279 152v-95.001c0 -42 -22 -63 -66 -63c-40.667 0 -61 21 -61 63v1418c0 40.667 20.333 61 61 61c44 0 66 -20.333 66 -61v-594c29.333 54.667 71.833 99 127.5 133s117.5 51 185.5 51c140 0 247 -45.667 321 -137s111 -223.333 111 -396
c0 -169.333 -40.167 -303.666 -120.5 -402.999s-188.833 -149 -325.5 -149c-66.667 0 -126 14.833 -178 44.5s-92.333 72.167 -121 127.5zM279 601.999v-158.001c0 -101.333 27.333 -184 82 -248s126 -96 214 -96c100.667 0 179.5 39 236.5 117s85.5 183 85.5 315
s-27.333 233.667 -82 305s-133 107 -235 107c-86.667 0 -158.5 -30.167 -215.5 -90.5s-85.5 -144.166 -85.5 -251.499z" />
    <glyph glyph-name="c" unicode="c" horiz-adv-x="987" 
d="M905 899c0 -16.667 -6.00098 -31.332 -18.001 -43.999s-26.333 -19 -43 -19c-12 0 -30.667 9.33301 -56 28c-44 32 -83.333 53.333 -118 64s-71 16 -109 16c-102 0 -184.5 -38 -247.5 -114s-94.5 -178.667 -94.5 -308s30.5 -232 91.5 -308s142.5 -114 244.5 -114
c82.667 0 161.334 28.667 236.001 86c25.333 19.333 44.333 29 57 29c17.333 0 31.5 -7 42.5 -21s16.5 -28.667 16.5 -44c0 -32 -37 -68.333 -111 -109s-155.667 -61 -245 -61c-138 0 -249 49.5 -333 148.5s-126 230.167 -126 393.5s44.5 294.666 133.5 393.999
s202.167 149 339.5 149c94 0 174.167 -19.667 240.5 -59s99.5 -75 99.5 -107z" />
    <glyph glyph-name="d" unicode="d" 
d="M965 57c0 -42 -20.668 -63.001 -62.001 -63.001c-43.333 0 -65 21 -65 63v80c-30 -49.333 -71.667 -87.833 -125 -115.5s-110.666 -41.5 -171.999 -41.5c-142 0 -252.333 47.333 -331 142s-118 226 -118 394c0 164.667 40.833 297.334 122.5 398.001s190.5 151 326.5 151
c63.333 0 120.833 -13.833 172.5 -41.5s93.167 -67.167 124.5 -118.5v570c0 40.667 21.667 61 65 61c41.333 0 62 -20.333 62 -61v-1418zM837.999 622.999c0 94.667 -28 171.833 -84 231.5s-127 89.5 -213 89.5c-94 0 -171.167 -39.167 -231.5 -117.5
s-90.5 -181.833 -90.5 -310.5c0 -133.333 28.5 -236 85.5 -308s135.833 -108 236.5 -108c86 0 157 30.5 213 91.5s84 138.5 84 232.5v199z" />
    <glyph glyph-name="e" unicode="e" horiz-adv-x="1042" 
d="M221 483c0 -111.333 32.001 -203.002 96.001 -275.002s145.333 -108 244 -108c42 0 84.667 6.83301 128 20.5s80.666 30.834 111.999 51.501c21.333 14 37 21 47 21c16 0 29.5 -7 40.5 -21s16.5 -29 16.5 -45c0 -30 -35.833 -62 -107.5 -96s-151.167 -51 -238.5 -51
c-143.333 0 -257 48.333 -341 145s-126 225.667 -126 387c0 160 41.333 292.167 124 396.5s195 156.5 337 156.5c125.333 0 223.833 -42.167 295.5 -126.5s107.5 -197.166 107.5 -338.499c0 -38 -8.5 -67 -25.5 -87s-40.5 -30 -70.5 -30h-639zM829.001 601.998
c0 101.333 -24.833 183.666 -74.5 246.999s-118.167 95 -205.5 95c-91.333 0 -166.333 -31.167 -225 -93.5s-91.667 -145.166 -99 -248.499h604z" />
    <glyph glyph-name="f" unicode="f" horiz-adv-x="608" 
d="M336 1044l174 -0.00195312c42 0 63 -19.667 63 -59s-21 -59 -63 -59h-174v-869c0 -42 -21.333 -63 -64 -63c-42 0 -63 21 -63 63v869h-115c-42 0 -63 19.667 -63 59s21 59 63 59h115v136c0 118.667 24.833 207.667 74.5 267s124.5 89 224.5 89
c30.667 0 61.834 -6.16699 93.501 -18.5s47.5 -32.166 47.5 -59.499c0 -15.333 -4.83301 -29.666 -14.5 -42.999s-21.834 -20 -36.501 -20c-6.66699 0 -17 2.66699 -31 8c-20 8 -41.667 12 -65 12c-60.667 0 -103.5 -18 -128.5 -54s-37.5 -94.333 -37.5 -175v-142z" />
    <glyph glyph-name="g" unicode="g" 
d="M965 94c0 -174.667 -39.6699 -306.001 -119.003 -394.001s-195.333 -132 -348 -132c-73.333 0 -147.666 16 -222.999 48s-113 63.667 -113 95c0 20.667 5.66699 37.5 17 50.5s23.333 19.5 36 19.5s31.667 -7.66699 57 -23c45.333 -25.333 84.833 -43.166 118.5 -53.499
s70.834 -15.5 111.501 -15.5c112 0 196 31.167 252 93.5s84 155.833 84 280.5v99c-29.333 -56 -71.166 -100.333 -125.499 -133s-116.5 -49 -186.5 -49c-132 0 -237.333 48.5 -316 145.5s-118 229.833 -118 398.5c0 168 40.5 300.167 121.5 396.5s190.167 144.5 327.5 144.5
c63.333 0 120.833 -13.833 172.5 -41.5s93.167 -67.167 124.5 -118.5v84c0 41.333 21.667 62 65 62c41.333 0 62 -20.667 62 -62v-895zM837.997 622.999c0 94.667 -28.001 171.834 -84.001 231.501s-127 89.5 -213 89.5c-97.333 0 -175.333 -36.833 -234 -110.5
s-88 -176.834 -88 -309.501c0 -132 28.333 -235.667 85 -311s135.667 -113 237 -113c88.667 0 160.334 30.5 215.001 91.5s82 138.5 82 232.5v199z" />
    <glyph glyph-name="h" unicode="h" horiz-adv-x="1114" 
d="M967 57c0 -42 -20.667 -63 -62 -63c-43.333 0 -65 21 -65 63v602c0 92.667 -21 163.334 -63 212.001s-103.667 73 -185 73c-92 0 -167.167 -32.667 -225.5 -98s-87.5 -154 -87.5 -266v-523c0 -42 -21.333 -63 -64 -63c-42 0 -63 21 -63 63v1416c0 42 21 63 63 63
c42.667 0 64 -21 64 -63v-594c32 57.333 77.167 102.666 135.5 135.999s122.833 50 193.5 50c116.667 0 205.667 -33.167 267 -99.5s92 -156.833 92 -271.5v-637z" />
    <glyph glyph-name="i" unicode="i" horiz-adv-x="430" 
d="M215 1303c-24.667 0 -45 8.66699 -61 26s-24 37.333 -24 60c0 23.333 8.33301 43.5 25 60.5s36.667 25.5 60 25.5s43.5 -8.16699 60.5 -24.5s25.5 -36.833 25.5 -61.5c0 -25.333 -8.16699 -46 -24.5 -62s-36.833 -24 -61.5 -24zM279 57c0 -42 -22 -63 -66 -63
c-40.667 0 -61 21 -61 63v932c0 41.333 21 62 63 62c42.667 0 64 -20.667 64 -62v-932z" />
    <glyph glyph-name="j" unicode="j" horiz-adv-x="430" 
d="M215 1303c-24.667 0 -45 8.66699 -61 26s-24 37.333 -24 60c0 23.333 8.33301 43.5 25 60.5s36.667 25.5 60 25.5s43.5 -8.16699 60.5 -24.5s25.5 -36.833 25.5 -61.5c0 -25.333 -8.16699 -46 -24.5 -62s-36.833 -24 -61.5 -24zM279 -84
c0 -115.333 -25 -202.166 -75 -260.499s-123.333 -87.5 -220 -87.5c-38.667 0 -74.667 5.33301 -108 16s-50 30 -50 58c0 17.333 4.5 32.166 13.5 44.499s20.833 18.5 35.5 18.5c8.66699 0 19 -2 31 -6c24 -8 50.667 -12 80 -12c56.667 0 98.5 18.333 125.5 55
s40.5 96 40.5 178v1067c0 42.667 21 64 63 64c42.667 0 64 -21.333 64 -64v-1071z" />
    <glyph glyph-name="k" unicode="k" horiz-adv-x="950" 
d="M279 575c93.333 66.667 177.669 136.998 253.002 210.998s141.666 152 198.999 234c16 22 33 33 51 33c18.667 0 34.334 -5.66699 47.001 -17s19 -23.666 19 -36.999c0 -12.667 -4.33301 -26.834 -13 -42.501s-36.334 -52.5 -83.001 -110.5s-127.334 -138 -242.001 -240
c45.333 -41.333 90.333 -87.666 135 -138.999s89 -108 133 -170c87.333 -123.333 131 -205.333 131 -246c0 -14 -6.16699 -27.333 -18.5 -40s-27.833 -19 -46.5 -19c-15.333 0 -27 3.83301 -35 11.5s-15.667 18.167 -23 31.5c-54 102.667 -112.333 195.334 -175 278.001
s-129.667 155 -201 217c-65.333 -48.667 -109 -80 -131 -94v-377c0 -43.333 -21.333 -65 -64 -65c-42 0 -63 21.667 -63 65v1414c0 42 21 63 63 63c42.667 0 64 -21 64 -63v-898z" />
    <glyph glyph-name="l" unicode="l" horiz-adv-x="430" 
d="M279 55c0 -40.667 -21.333 -61 -64 -61c-42 0 -63 20.333 -63 61v1420c0 40.667 21 61 63 61c42.667 0 64 -20.333 64 -61v-1420z" />
    <glyph glyph-name="m" unicode="m" horiz-adv-x="1712" 
d="M1565 57c0 -42 -20.6689 -63.001 -62.002 -63.001c-43.333 0 -65 21 -65 63v633c0 78.667 -21.667 140.667 -65 186s-103 68 -179 68c-82 0 -147.833 -29.167 -197.5 -87.5s-74.5 -142.5 -74.5 -252.5v-547c0 -42 -20.667 -63 -62 -63c-43.333 0 -65 21 -65 63v633
c0 80 -20.667 142.333 -62 187s-99.333 67 -174 67c-87.333 0 -155.833 -30.333 -205.5 -91s-74.5 -143.667 -74.5 -249v-547c0 -42 -21.333 -63 -64 -63c-42 0 -63 21 -63 63v930c0 42.667 21 64 63 64c42.667 0 64 -21.333 64 -64v-86c30 50 70.667 89.833 122 119.5
s107.333 44.5 168 44.5c73.333 0 136.333 -15.5 189 -46.5s95 -77.5 127 -139.5c30.667 58.667 73.834 104.334 129.501 137.001s118.167 49 187.5 49c114.667 0 203.834 -31.5 267.501 -94.5s95.5 -150.167 95.5 -261.5v-652z" />
    <glyph glyph-name="n" unicode="n" horiz-adv-x="1114" 
d="M967 57c0 -42 -20.667 -63 -62 -63c-43.333 0 -65 21 -65 63v602c0 92.667 -21 163.334 -63 212.001s-103.667 73 -185 73c-92 0 -167.167 -32.667 -225.5 -98s-87.5 -154 -87.5 -266v-523c0 -42 -21.333 -63 -64 -63c-42 0 -63 21 -63 63v930c0 42.667 21 64 63 64
c42.667 0 64 -21.333 64 -64v-108c32 57.333 77.167 102.666 135.5 135.999s122.833 50 193.5 50c116.667 0 205.667 -33.167 267 -99.5s92 -156.833 92 -271.5v-637z" />
    <glyph glyph-name="o" unicode="o" horiz-adv-x="1100" 
d="M549 -20c-134 0 -243.665 48.832 -328.998 146.499s-128 229.5 -128 395.5c0 172.667 42.667 306.334 128 401.001s195 142 329 142c135.333 0 245.666 -48 330.999 -144s128 -229 128 -399c0 -165.333 -42.833 -297 -128.5 -395s-195.834 -147 -330.501 -147z
M549.002 943.999c-93.333 0 -171.666 -35 -234.999 -105s-95 -175.667 -95 -317c0 -140 33.167 -245.333 99.5 -316s143.166 -106 230.499 -106c88 0 165.333 35.333 232 106s100 176 100 316c0 138.667 -31.167 243.667 -93.5 315s-141.833 107 -238.5 107z" />
    <glyph glyph-name="p" unicode="p" 
d="M575 100c96 0 173.667 39 233 117s89 183 89 315c0 129.333 -28.5 230.333 -85.5 303s-135.833 109 -236.5 109c-87.333 0 -158.5 -29.833 -213.5 -89.5s-82.5 -135.5 -82.5 -227.5v-209c0 -94 27.667 -170.5 83 -229.5s126.333 -88.5 213 -88.5zM573 -20
c-65.333 0 -122.501 13.1689 -171.501 39.502s-89.833 66.166 -122.5 119.499v-510c0 -40.667 -22 -61 -66 -61c-40.667 0 -61 20.333 -61 61v1358c0 42.667 20.333 64 61 64c44 0 66 -21.333 66 -64v-76c29.333 48 70.333 85.667 123 113s110.334 41 173.001 41
c140.667 0 250.667 -46.667 330 -140s119 -224.333 119 -393s-40.833 -302.834 -122.5 -402.501s-191.167 -149.5 -328.5 -149.5z" />
    <glyph glyph-name="q" unicode="q" 
d="M965 -371c0 -40.667 -20.666 -61.001 -61.999 -61.001c-43.333 0 -65 20.333 -65 61v510c-30.667 -50 -71.834 -89 -123.501 -117s-109.5 -42 -173.5 -42c-138.667 0 -248.167 47.333 -328.5 142s-120.5 225.334 -120.5 392.001c0 166 43.167 299.333 129.5 400
s197.5 151 333.5 151c62 0 116.667 -12.833 164 -38.5s87 -64.167 119 -115.5v76c0 42.667 21.667 64 65 64c41.333 0 62 -21.333 62 -64v-1358zM838.001 626.999c0 92.667 -27.8311 168.668 -83.498 228.001s-126.834 89 -213.501 89c-98.667 0 -177 -39 -235 -117
s-87 -182.333 -87 -313c0 -128.667 29 -229.834 87 -303.501s136.333 -110.5 235 -110.5c87.333 0 158.666 29.833 213.999 89.5s83 136.5 83 230.5v207z" />
    <glyph glyph-name="r" unicode="r" horiz-adv-x="698" 
d="M279 918c26.667 48.667 60.834 85.333 102.501 110s91.167 37 148.5 37c50 0 87.167 -6.83301 111.5 -20.5s36.5 -30.834 36.5 -51.501c0 -17.333 -3.83301 -32.5 -11.5 -45.5s-18.834 -19.5 -33.501 -19.5c-8.66699 0 -19 2 -31 6
c-22.667 6.66699 -47.334 10 -74.001 10c-75.333 0 -135.666 -26.667 -180.999 -80s-68 -123.666 -68 -210.999v-596c0 -42 -21.333 -63 -64 -63c-42 0 -63 21 -63 63v932c0 41.333 21 62 63 62c42.667 0 64 -20.667 64 -62v-71z" />
    <glyph glyph-name="s" unicode="s" horiz-adv-x="895" 
d="M442 -20c-54 0 -103.167 5.66992 -147.5 17.0029s-87.833 29.166 -130.5 53.499s-68.334 42.5 -77.001 54.5s-13 25.333 -13 40c0 16.667 5.83301 31.5 17.5 44.5s24.834 19.5 39.501 19.5c16.667 0 33 -6.33301 49 -19c34 -26 74.833 -47.5 122.5 -64.5
s94.167 -25.5 139.5 -25.5c76.667 0 136.5 15.667 179.5 47s64.5 73.666 64.5 126.999c0 48.667 -17 86 -51 112s-79.667 45.333 -137 58c-93.333 19.333 -160.833 35.333 -202.5 48s-77.5 30.167 -107.5 52.5s-53.833 50.666 -71.5 84.999s-26.5 77.833 -26.5 130.5
c0 90 34.833 163.333 104.5 220s158.5 85 266.5 85c79.333 0 153.333 -15.833 222 -47.5s103 -63.5 103 -95.5c0 -16 -6.16699 -31.667 -18.5 -47s-25.833 -23 -40.5 -23c-14 0 -30.333 6.66699 -49 20c-70 48 -143 72 -219 72c-78 0 -137.833 -16.5 -179.5 -49.5
s-62.5 -75.167 -62.5 -126.5c0 -39.333 10.333 -71.5 31 -96.5s48 -44 82 -57s95.667 -29.167 185 -48.5c118.667 -25.333 198 -60.666 238 -105.999s60 -104.333 60 -177c0 -86.667 -33.167 -158.834 -99.5 -216.501s-156.833 -86.5 -271.5 -86.5z" />
    <glyph glyph-name="t" unicode="t" horiz-adv-x="649" 
d="M336 928l0.000976562 -652c0 -58.667 10 -102.667 30 -132s50.333 -44 91 -44c16 0 29.667 1.5 41 4.5s30.333 10.833 57 23.5c8 3.33301 15.667 5 23 5c13.333 0 25.166 -6 35.499 -18s15.5 -25.667 15.5 -41c0 -24 -17.667 -45.667 -53 -65s-76.333 -29 -123 -29
c-86.667 0 -149 23.667 -187 71s-57 119 -57 215v662h-115c-42 0 -63 19 -63 57c0 39.333 21 59 63 59h115v240c0 41.333 21 62 63 62c42.667 0 64 -20.667 64 -62v-240h174c42 0 63 -19.667 63 -59c0 -38 -21 -57 -63 -57h-174z" />
    <glyph glyph-name="u" unicode="u" horiz-adv-x="1114" 
d="M963 57c0 -42 -21.3311 -62.999 -63.998 -62.999c-42 0 -63 21 -63 63v109c-36.667 -62 -82.834 -108.5 -138.501 -139.5s-120.834 -46.5 -195.501 -46.5c-113.333 0 -200.833 34.667 -262.5 104s-92.5 163.666 -92.5 282.999v620c0 42.667 20.667 64 62 64
c43.333 0 65 -21.333 65 -64v-612c0 -83.333 21.5 -150 64.5 -200s103.5 -75 181.5 -75c98 0 175.167 32.833 231.5 98.5s84.5 152.5 84.5 260.5v528c0 42.667 21 64 63 64c42.667 0 64 -21.333 64 -64v-930z" />
    <glyph glyph-name="v" unicode="v" horiz-adv-x="971" 
d="M465 145c64 114 123.331 242.67 177.998 386.003s104.667 301 150 473c8 32.667 26.333 49 55 49c48 0 72 -18.667 72 -56c0 -28 -18.5 -99.667 -55.5 -215s-81.167 -231.833 -132.5 -349.5s-99.666 -216.5 -144.999 -296.5s-73 -123.667 -83 -131s-22.333 -11 -37 -11
h-12c-20 0 -35.5 6.83301 -46.5 20.5s-32.167 49.167 -63.5 106.5s-70.166 143.666 -116.499 258.999s-87.5 238.166 -123.5 368.499s-54 211.166 -54 242.499c0 19.333 6.83301 34.5 20.5 45.5s30.834 16.5 51.501 16.5c31.333 0 50.333 -17.333 57 -52
c25.333 -135.333 63.166 -279.333 113.499 -432s107.5 -294 171.5 -424z" />
    <glyph glyph-name="w" unicode="w" horiz-adv-x="1507" 
d="M748 801c-40.667 -154 -83 -293.669 -127 -419.002s-83.5 -218.833 -118.5 -280.5s-57.5 -95 -67.5 -100s-20.667 -7.5 -32 -7.5h-10c-15.333 0 -30.666 4.33301 -45.999 13s-44.833 64.834 -88.5 168.501s-86.834 235.334 -129.501 395.001s-72 295.167 -88 406.5
c-1.33301 9.33301 -2 16 -2 20c0 37.333 21.667 56 65 56c32.667 0 52 -18 58 -54c20.667 -128.667 51 -269.834 91 -423.501s89.333 -297.167 148 -430.5c109.333 219.333 204.333 504.666 285 855.999c6.66699 34.667 29.334 52 68.001 52c35.333 0 57 -18 65 -54
c68.667 -364 150.667 -648.667 246 -854c64.667 138.667 120 279.334 166 422.001s82.667 287.334 110 434.001c6 34.667 26.667 52 62 52c43.333 0 65 -18 65 -54c0 -7.33301 -1.33301 -18.666 -4 -33.999c-13.333 -80 -46 -202.167 -98 -366.5
s-102.833 -300.833 -152.5 -409.5s-81.334 -168.334 -95.001 -179.001s-30.167 -16 -49.5 -16h-12c-16.667 0 -31.667 4.66699 -45 14s-38.833 59 -76.5 149s-72.167 189.333 -103.5 298s-59.333 224 -84 346z" />
    <glyph glyph-name="x" unicode="x" horiz-adv-x="965" 
d="M588 528c102.667 -85.333 179.834 -167.499 231.501 -246.499s77.5 -154.5 77.5 -226.5c0 -40.667 -22 -61 -66 -61c-40.667 0 -61 21 -61 63c0 58 -25.333 122.667 -76 194s-118 140 -202 206c-87.333 -66.667 -159.833 -136.834 -217.5 -210.501
s-86.5 -137.5 -86.5 -191.5c0 -40.667 -19.333 -61 -58 -61c-46 0 -69 21.667 -69 65c0 69.333 28.667 144.333 86 225s140 162.667 248 246c-88 76 -158.167 154.833 -210.5 236.5s-78.5 156.5 -78.5 224.5c0 40 21.333 60 64 60c42 0 63 -20.667 63 -62
c0 -52 23 -111.833 69 -179.5s110 -137.5 192 -209.5c93.333 82 163.333 155.667 210 221s70 122 70 170c0 40 22 60 66 60c42 0 63 -20.667 63 -62c0 -63.333 -26.333 -133.5 -79 -210.5s-131.334 -160.5 -236.001 -250.5z" />
    <glyph glyph-name="y" unicode="y" horiz-adv-x="971" 
d="M395 37c-106 184.667 -189.83 379.166 -251.497 583.499s-92.5 327.833 -92.5 370.5c0 41.333 24 62 72 62c31.333 0 50.333 -17.333 57 -52c29.333 -150.667 67.833 -297.167 115.5 -439.5s104.167 -280.5 169.5 -414.5c64.667 116 128.667 255.833 192 419.5
s108.666 309.5 135.999 437.5c6.66699 32.667 25 49 55 49c48 0 72 -18.667 72 -56c0 -32 -26.167 -125.667 -78.5 -281s-119.333 -315.166 -201 -479.499s-162.834 -299.666 -243.501 -405.999s-146.834 -177 -198.501 -212s-101.5 -52.5 -149.5 -52.5
c-12 0 -23.5 5.33301 -34.5 16s-16.5 26.334 -16.5 47.001c0 24.667 19 42 57 52c44 11.333 94.333 46.666 151 105.999s119.667 142.666 189 249.999z" />
    <glyph glyph-name="z" unicode="z" horiz-adv-x="874" 
d="M172 119h572.998c42.667 0 64 -20 64 -60c0 -39.333 -21.333 -59 -64 -59h-636c-24 -0 -43 7.83301 -57 23.5s-21 35.834 -21 60.501c0 47.333 24.667 105.333 74 174s162 189.667 338 363c132 129.333 213.667 231 245 305h-543c-42 0 -63 19.667 -63 59s21 59 63 59
h611c52 0 78 -25 78 -75c0 -23.333 -12.667 -59.333 -38 -108s-61.166 -101 -107.499 -157s-138.166 -151.333 -275.499 -286c-132.667 -130.667 -213 -230.334 -241 -299.001z" />
    <glyph glyph-name="braceleft" unicode="{" horiz-adv-x="623" 
d="M193 678c62 -28 106.834 -72.001 134.501 -132.001s41.5 -146.333 41.5 -259v-137c0 -62.667 4.16699 -106.334 12.5 -131.001s20.333 -41.167 36 -49.5s44.167 -13.166 85.5 -14.499c20.667 -1.33301 35.667 -6 45 -14s14 -21.667 14 -41c0 -40 -23 -60 -69 -60
c-84 0 -145.5 21.833 -184.5 65.5s-58.5 129.167 -58.5 256.5v168c0 86 -9.5 148.167 -28.5 186.5s-53.167 68.166 -102.5 89.499c-18.667 8.66699 -34.334 17.834 -47.001 27.501s-19 25.167 -19 46.5c0 34.667 21.333 58 64 70c44 11.333 77.167 40 99.5 86
s33.5 109.333 33.5 190v168c0 137.333 22.167 225.333 66.5 264s101.5 58 171.5 58c49.333 0 74 -18.667 74 -56c0 -39.333 -21.667 -59 -65 -59c-52 0 -86.333 -11.667 -103 -35s-25 -76.666 -25 -159.999v-137c0 -112.667 -13.833 -199 -41.5 -259s-72.5 -104 -134.5 -132
zM443.001 1536z" />
    <glyph glyph-name="bar" unicode="|" horiz-adv-x="446" 
d="M283 -414c0 -40.667 -20 -61 -60 -61c-39.333 0 -59 20.333 -59 61v1995c0 39.333 19 59 57 59c41.333 0 62 -19.667 62 -59v-1995zM223 1536z" />
    <glyph glyph-name="braceright" unicode="}" horiz-adv-x="623" 
d="M430 678c-61.333 27.333 -106.001 70.498 -134.001 129.498s-42 146.167 -42 261.5v137c0 76.667 -7.33301 128.334 -22 155.001s-49.667 40 -105 40c-44 0 -66 19.667 -66 59c0 37.333 24.667 56 74 56c73.333 0 131.333 -20.167 174 -60.5s64 -127.5 64 -261.5v-168
c0 -80.667 11 -144 33 -190s55.667 -74.667 101 -86c42 -11.333 63 -34.666 63 -69.999c0 -21.333 -6.16699 -36.833 -18.5 -46.5s-27.833 -18.834 -46.5 -27.501c-50 -21.333 -84.5 -51.166 -103.5 -89.499s-28.5 -100.5 -28.5 -186.5v-168c0 -124 -19 -208.667 -57 -254
s-99.667 -68 -185 -68c-46.667 0 -70 20 -70 60c0 19.333 4.83301 33 14.5 41s24.834 12.667 45.501 14c42 2 70.5 7 85.5 15s26.667 25 35 51s12.5 69 12.5 129v137c0 118 14.5 206.167 43.5 264.5s73.167 100.5 132.5 126.5zM192.999 1536z" />
    <glyph glyph-name="asciitilde" unicode="~" horiz-adv-x="1165" 
d="M768 387c-62.667 0 -131.001 27.665 -205.001 82.998c-74.667 55.333 -134 83 -178 83c-31.333 0 -58 -7.16699 -80 -21.5s-44.333 -43.5 -67 -87.5c-12.667 -24 -27 -36 -43 -36c-13.333 0 -26 4.66699 -38 14s-18 22.333 -18 39c0 44 22.833 90.833 68.5 140.5
s108.167 74.5 187.5 74.5c64.667 0 134.667 -27.667 210 -83s133 -83 173 -83c28 0 52.5 6.16699 73.5 18.5s43.167 39.5 66.5 81.5c11.333 20.667 20 33.334 26 38.001s13.667 7 23 7c15.333 0 29 -4 41 -12s18 -20.333 18 -37c0 -45.333 -23.667 -93.166 -71 -143.499
s-109.666 -75.5 -186.999 -75.5z" />
    <glyph glyph-name="uni00A0" unicode="&#xa0;" horiz-adv-x="475" 
 />
    <glyph glyph-name="exclamdown" unicode="&#xa1;" horiz-adv-x="514" 
d="M258 1065c26 0 47.833 -8.83301 65.5 -26.5s26.5 -39.5 26.5 -65.5s-8.83301 -48.167 -26.5 -66.5s-39.5 -27.5 -65.5 -27.5c-26.667 0 -49 9 -67 27s-27 40.333 -27 67c0 26 9.16699 47.833 27.5 65.5s40.5 26.5 66.5 26.5zM193 670c0 42 21 63 63 63s63 -21 63 -63
v-967c0 -42 -21 -63 -63 -63s-63 21 -63 63v967z" />
    <glyph glyph-name="cent" unicode="&#xa2;" horiz-adv-x="973" 
d="M602 942l-0.000976562 -839.999c68.667 9.33301 131.667 36 189 80c25.333 19.333 44.333 29 57 29c18.667 0 33.167 -6.66699 43.5 -20s15.5 -27 15.5 -41c0 -31.333 -34.667 -65.833 -104 -103.5s-136.333 -58.5 -201 -62.5v-152c0 -34 -17 -51 -51 -51
c-32.667 0 -49 17 -49 51v152c-126.667 11.333 -226.667 65.5 -300 162.5s-110 222.167 -110 375.5c0 146.667 36.5 268.5 109.5 365.5s173.167 154.833 300.5 173.5v125c0 34 16.333 51 49 51c34 0 51 -17 51 -51v-123c80.667 -4.66699 151.334 -25.5 212.001 -62.5
s91 -70.833 91 -101.5c0 -16.667 -6 -31.334 -18 -44.001s-26.333 -19 -43 -19c-12 0 -30.667 9.33301 -56 28c-60 45.333 -122 71.333 -186 78zM501.999 102.001v836.001c-88 -16 -157.167 -60.833 -207.5 -134.5s-75.5 -167.5 -75.5 -281.5
c0 -118 25.167 -213.833 75.5 -287.5s119.5 -117.834 207.5 -132.501z" />
    <glyph glyph-name="sterling" unicode="&#xa3;" horiz-adv-x="1085" 
d="M467 625c10.667 -45.333 16.001 -94.666 16.001 -147.999c0 -63.333 -14.167 -124.833 -42.5 -184.5s-70.833 -117.5 -127.5 -173.5h588c42.667 0 64 -20 64 -60c0 -39.333 -21.333 -59 -64 -59h-657c-52 0 -78 25.333 -78 76c0 16.667 3.83301 32.334 11.5 47.001
s29.167 41.334 64.5 80.001c43.333 47.333 73.5 91.666 90.5 132.999s25.5 85.666 25.5 132.999c0 53.333 -8 105.333 -24 156h-152c-42 0 -63 19.667 -63 59c0 40.667 21 61 63 61h109c-36.667 94 -55 185.667 -55 275c0 114 37 208 111 282s170 111 288 111
c96 0 176.333 -21 241 -63s97 -77.667 97 -107c0 -16.667 -5.66699 -31.334 -17 -44.001s-26.333 -19 -45 -19c-16.667 0 -37 10 -61 30c-67.333 54.667 -139 82 -215 82c-82.667 0 -148.834 -25 -198.501 -75s-74.5 -114.333 -74.5 -193c0 -66.667 14.667 -137.667 44 -213
l24 -66h326c42 0 63 -20.333 63 -61c0 -39.333 -21 -59 -63 -59h-289z" />
    <glyph glyph-name="currency" unicode="&#xa4;" horiz-adv-x="1085" 
d="M945 98c-14 -12 -27 -18 -39 -18c-16 0 -32.333 8.33301 -49 25l-98 100c-66 -48 -139 -72 -219 -72c-81.333 0 -155 24 -221 72l-98 -98c-18 -18 -33.333 -27 -46 -27c-12 0 -24.833 6.16699 -38.5 18.5s-20.5 25.833 -20.5 40.5c0 15.333 8.33301 31 25 47l98 99
c-46.667 68 -70 141 -70 219c0 80.667 24 154 72 220l-102 95c-16.667 16.667 -25 33 -25 49c0 15.333 7 29.166 21 41.499s26 18.5 36 18.5c15.333 0 32 -9 50 -27l102 -97c64.667 47.333 137 71 217 71s152.333 -23.667 217 -71l100 95c19.333 19.333 34.333 29 45 29
c13.333 0 27 -6.16699 41 -18.5s21 -26.166 21 -41.499c0 -14.667 -8.33301 -30.334 -25 -47.001l-102 -97c49.333 -68 74 -141.333 74 -220c0 -79.333 -24 -151.666 -72 -216.999l100 -101c16.667 -16.667 25 -33 25 -49c0 -11.333 -6.33301 -24.333 -19 -39zM540 233
c72.667 0 136 26.333 190 79s81 116.667 81 192s-26.5 139.333 -79.5 192s-116.833 79 -191.5 79c-75.333 0 -139.333 -26.5 -192 -79.5s-79 -116.833 -79 -191.5c0 -75.333 26.667 -139.333 80 -192s117 -79 191 -79z" />
    <glyph glyph-name="yen" unicode="&#xa5;" horiz-adv-x="1085" 
d="M606 369l0.000976562 -312c0 -42 -21 -63 -63 -63c-44 0 -66 21 -66 63v312h-323c-44 0 -66 19.667 -66 59s22 59 66 59h323v172h-323c-44 0 -66 20 -66 60c0 39.333 22 59 66 59h229c-70 89.333 -130.5 189.5 -181.5 300.5s-76.5 197.167 -76.5 258.5
c0 41.333 21.667 62 65 62c20.667 0 35.167 -5.5 43.5 -16.5s14.5 -26.833 18.5 -47.5c38 -199.333 134.333 -385 289 -557c76.667 82 144 173.333 202 274s95.667 195.667 113 285c4 21.333 10.667 37 20 47s24.666 15 45.999 15c42 0 63 -18.667 63 -56
c0 -53.333 -29.667 -138.833 -89 -256.5s-124 -220.5 -194 -308.5h230c43.333 0 65 -19.667 65 -59c0 -40 -21.667 -60 -65 -60h-326v-172h326c43.333 0 65 -19.667 65 -59s-21.667 -59 -65 -59h-326z" />
    <glyph glyph-name="brokenbar" unicode="&#xa6;" horiz-adv-x="446" 
d="M283 862c0 -40.667 -20 -61 -60 -61c-39.333 0 -59 20.333 -59 61v719c0 39.333 19 59 57 59c41.333 0 62 -19.667 62 -59v-719zM283 -414c0 -40.667 -20 -61 -60 -61c-39.333 0 -59 20.333 -59 61v719c0 40 19 60 57 60c41.333 0 62 -20 62 -60v-719zM223 1536z" />
    <glyph glyph-name="section" unicode="&#xa7;" horiz-adv-x="1018" 
d="M750 227c42 -26 73.667 -58.832 95 -98.499s32 -85.834 32 -138.501c0 -96 -36 -177 -108 -243s-172 -99 -300 -99c-78 0 -160.667 19.167 -248 57.5s-131 73.833 -131 106.5c0 17.333 6.66699 33.166 20 47.499s26.666 21.5 39.999 21.5c14 0 30.333 -6 49 -18
c46.667 -31.333 92.667 -54.833 138 -70.5s90 -23.5 134 -23.5c92 0 161.167 19.833 207.5 59.5s69.5 90.834 69.5 153.501c0 53.333 -16.667 95.833 -50 127.5s-109 70.834 -227 117.501c-93.333 36.667 -160.666 69 -201.999 97s-73 61.5 -95 100.5s-33 85.833 -33 140.5
c0 62 16 116.833 48 164.5s80.333 88.5 145 122.5c-54.667 30.667 -94.334 66.334 -119.001 107.001s-37 90.334 -37 149.001c0 86 34.333 159.667 103 221s159.334 92 272.001 92c68.667 0 127.667 -9 177 -27s83 -32.833 101 -44.5s27 -26.5 27 -44.5
c0 -18.667 -5.83301 -35.334 -17.5 -50.001s-25.5 -22 -41.5 -22c-13.333 0 -33.333 6.66699 -60 20c-29.333 15.333 -59.833 27 -91.5 35s-64.5 12 -98.5 12c-76.667 0 -136.167 -17.333 -178.5 -52s-63.5 -79.334 -63.5 -134.001c0 -50 15.167 -90.333 45.5 -121
s84.166 -61.334 161.499 -92.001c120.667 -48 205.167 -86.667 253.5 -116s85 -64.5 110 -105.5s37.5 -93.5 37.5 -157.5c0 -55.333 -14.167 -109.5 -42.5 -162.5s-69.166 -97.167 -122.499 -132.5zM440 795.001c-57.333 -21.333 -100 -51.165 -128 -89.498
s-42 -80.166 -42 -125.499s13 -84 39 -116s74 -62.333 144 -91l198 -86c42.667 26 76.667 58.667 102 98s38 79.666 38 120.999c0 39.333 -8.66699 74.666 -26 105.999s-61 65.666 -131 102.999z" />
    <glyph glyph-name="dieresis" unicode="&#xa8;" horiz-adv-x="813" 
d="M588 1233c-23.333 0 -43.5 8.5 -60.5 25.5s-25.5 37.167 -25.5 60.5s8.5 43.5 25.5 60.5s37.167 25.5 60.5 25.5c24.667 0 45.167 -8.16699 61.5 -24.5s24.5 -36.833 24.5 -61.5s-8.16699 -45.167 -24.5 -61.5s-36.833 -24.5 -61.5 -24.5zM225 1233
c-23.333 0 -43.5 8.5 -60.5 25.5s-25.5 37.167 -25.5 60.5s8.5 43.5 25.5 60.5s37.167 25.5 60.5 25.5c24.667 0 45.167 -8.16699 61.5 -24.5s24.5 -36.833 24.5 -61.5s-8.16699 -45.167 -24.5 -61.5s-36.833 -24.5 -61.5 -24.5z" />
    <glyph glyph-name="copyright" unicode="&#xa9;" horiz-adv-x="1591" 
d="M795 1413c126 0 244.332 -31.333 354.999 -94s198.167 -149.5 262.5 -260.5s96.5 -231.167 96.5 -360.5c0 -128.667 -32.333 -248.167 -97 -358.5s-152.167 -196.833 -262.5 -259.5s-228.5 -94 -354.5 -94c-127.333 0 -246.166 31.5 -356.499 94.5
s-197.333 149.833 -261 260.5s-95.5 229.667 -95.5 357s31.333 246.5 94 357.5s149.5 198.333 260.5 262s230.5 95.5 358.5 95.5zM794.999 96c166 0 308.167 59.167 426.5 177.5s177.5 259.833 177.5 424.5c0 166 -59.167 308.333 -177.5 427s-260.5 178 -426.5 178
s-307.833 -59.5 -425.5 -178.5s-176.5 -261.167 -176.5 -426.5c0 -164 59 -305.333 177 -424s259.667 -178 425 -178zM1063 1030c8 -12 12.001 -23.667 12.001 -35c0 -16 -5.66699 -28.833 -17 -38.5s-23.333 -14.5 -36 -14.5c-18.667 0 -36.334 9 -53.001 27
c-38.667 40.667 -90 61 -154 61c-80 0 -143.333 -31.667 -190 -95s-70 -141.666 -70 -234.999c0 -94.667 23.333 -173.167 70 -235.5s111.334 -93.5 194.001 -93.5c62 0 120 23 174 69c18 15.333 32.333 23 43 23c15.333 0 28.166 -5.83301 38.499 -17.5
s15.5 -24.167 15.5 -37.5c0 -28 -29.167 -59.333 -87.5 -94s-126.166 -52 -203.499 -52c-102.667 0 -188.167 38.667 -256.5 116s-102.5 184.666 -102.5 321.999c0 126.667 33.167 231.5 99.5 314.5s158.166 124.5 275.499 124.5c103.333 0 186 -36.333 248 -109z" />
    <glyph glyph-name="ordfeminine" unicode="&#xaa;" horiz-adv-x="770" 
d="M688 750c0 -36 -17.666 -54 -52.999 -54c-36.667 0 -55 18 -55 54v47c-44.667 -74 -109.667 -111 -195 -111c-94.667 0 -167.834 33.833 -219.501 101.5s-77.5 155.5 -77.5 263.5c0 109.333 27 197 81 263s129.333 99 226 99c83.333 0 145 -32 185 -96v35
c0 34 18.333 51 55 51c35.333 0 53 -17 53 -51v-602zM580.001 1110c0 57.333 -16.8311 104.835 -50.498 142.502s-77.834 56.5 -132.501 56.5c-62.667 0 -111.667 -23.333 -147 -70s-53 -109.334 -53 -188.001c0 -83.333 17 -147.5 51 -192.5s83.667 -67.5 149 -67.5
c53.333 0 97.166 18.667 131.499 56s51.5 84.666 51.5 141.999v121z" />
    <glyph glyph-name="guillemotleft" unicode="&#xab;" horiz-adv-x="1159" 
d="M243 550l382 -337c18.667 -16.667 28 -33 28 -49c0 -11.333 -5.33301 -24.333 -16 -39c-15.333 -15.333 -28.333 -23 -39 -23c-12 0 -28.333 7.66699 -49 23l-425 374c-19.333 17.333 -29 34.333 -29 51c0 16 9.66699 33 29 51l425 375
c16.667 14.667 32.334 22 47.001 22c15.333 0 28.666 -7 39.999 -21s17 -27.333 17 -40c0 -14 -9.33301 -30.333 -28 -49zM673 550l382 -337c18.667 -16.667 28 -33 28 -49c0 -11.333 -5.33301 -24.333 -16 -39c-15.333 -15.333 -28.333 -23 -39 -23
c-12 0 -28.333 7.66699 -49 23l-425 374c-19.333 17.333 -29 34.333 -29 51c0 14.667 9.66699 31.667 29 51l425 375c16.667 14.667 32.334 22 47.001 22c15.333 0 28.666 -7 39.999 -21s17 -27.333 17 -40c0 -14 -9.33301 -30.333 -28 -49z" />
    <glyph glyph-name="logicalnot" unicode="&#xac;" horiz-adv-x="1085" 
d="M1028 274c0 -42 -19.667 -63 -59 -63c-40 0 -60 21 -60 63v365h-786c-44 0 -66 19 -66 57c0 38.667 22 58 66 58h840c25.333 0 42.5 -4.33301 51.5 -13s13.5 -23.667 13.5 -45v-422zM223 460z" />
    <glyph glyph-name="uni00AD" unicode="&#xad;" horiz-adv-x="737" 
d="M584 485h-430c-42.667 0 -64 21.333 -64 64c0 42 21.333 63 64 63h430c42 0 63 -21 63 -63c0 -42.667 -21 -64 -63 -64z" />
    <glyph glyph-name="registered" unicode="&#xae;" horiz-adv-x="1591" 
d="M795 1413c126 0 244.332 -31.333 354.999 -94s198.167 -149.5 262.5 -260.5s96.5 -231.167 96.5 -360.5c0 -128.667 -32.333 -248.167 -97 -358.5s-152.167 -196.833 -262.5 -259.5s-228.5 -94 -354.5 -94c-127.333 0 -246.166 31.5 -356.499 94.5
s-197.333 149.833 -261 260.5s-95.5 229.667 -95.5 357s31.333 246.5 94 357.5s149.5 198.333 260.5 262s230.5 95.5 358.5 95.5zM794.999 96c166 0 308.167 59.167 426.5 177.5s177.5 259.833 177.5 424.5c0 166 -59.167 308.333 -177.5 427s-260.5 178 -426.5 178
s-307.833 -59.5 -425.5 -178.5s-176.5 -261.167 -176.5 -426.5c0 -164 59 -305.333 177 -424s259.667 -178 425 -178zM665.999 645l-0.00292969 -305c0 -36.667 -18.667 -55 -56 -55c-39.333 0 -59 18.333 -59 55v668c0 72 35.333 108 106 108h136
c89.333 0 156.333 -19.5 201 -58.5s67 -97.167 67 -174.5c0 -48.667 -13.667 -92.167 -41 -130.5s-65.666 -64.5 -114.999 -78.5c38.667 -25.333 80.834 -82.833 126.501 -172.5s68.5 -143.5 68.5 -161.5c0 -15.333 -6 -28.333 -18 -39s-27.333 -16 -46 -16
c-22 0 -37 10.667 -45 32c-40 106.667 -80.167 188 -120.5 244s-86.166 84 -137.499 84h-67zM665.996 1004v-250h118c50 0 89.833 11 119.5 33s44.5 52.667 44.5 92c0 47.333 -12 80 -36 98s-63 27 -117 27h-129z" />
    <glyph glyph-name="uni00AF" unicode="&#xaf;" horiz-adv-x="1024" 
d="M1024 1606h-1024c-36.667 0 -55 19.333 -55 58c0 38 18.333 57 55 57h1024c36.667 0 55 -19 55 -57c0 -38.667 -18.333 -58 -55 -58z" />
    <glyph glyph-name="degree" unicode="&#xb0;" horiz-adv-x="721" 
d="M360 852c-76 0 -141.667 28.333 -197 85s-83 124 -83 202c0 77.333 27.833 144.333 83.5 201s121.167 85 196.5 85c76 0 141.833 -28.167 197.5 -84.5s83.5 -123.5 83.5 -201.5s-27.833 -145.333 -83.5 -202s-121.5 -85 -197.5 -85zM360 1311
c-45.333 0 -84.166 -16.667 -116.499 -50s-48.5 -74 -48.5 -122c0 -46.667 15.667 -87 47 -121s70.666 -51 117.999 -51s86.833 16.833 118.5 50.5s47.5 74.167 47.5 121.5c0 48 -16.333 88.667 -49 122s-71.667 50 -117 50z" />
    <glyph glyph-name="plusminus" unicode="&#xb1;" horiz-adv-x="1085" 
d="M602 584v-283c0 -42 -19.667 -63 -59 -63c-40 0 -60 21 -60 63v283h-360c-44 0 -66 19 -66 57s22 57 66 57h360v283c0 42 20 63 60 63c39.333 0 59 -21 59 -63v-283h361c43.333 0 65 -19 65 -57s-21.667 -57 -65 -57h-361zM963 0h-840c-44 0 -66 19 -66 57
c0 38.667 22 58 66 58h840c43.333 0 65 -19.333 65 -58c0 -38 -21.667 -57 -65 -57zM223 460z" />
    <glyph glyph-name="twosuperior" unicode="&#xb2;" horiz-adv-x="791" 
d="M246 676h336.002c36.667 0 55 -17 55 -51c0 -37.333 -18.333 -56 -55 -56h-334c-36.667 0 -64 8.16699 -82 24.5s-27 41.166 -27 74.499c0 56.667 16.667 106.667 50 150s98.666 100.333 195.999 171c98 68 147 134.333 147 199c0 40 -11.333 70.167 -34 90.5
s-56.334 30.5 -101.001 30.5c-46.667 0 -93.667 -18.667 -141 -56c-16.667 -12 -31 -18 -43 -18c-13.333 0 -25.166 5.66699 -35.499 17s-15.5 24 -15.5 38c0 26 26.833 53 80.5 81s107.167 42 160.5 42c77.333 0 137 -19.5 179 -58.5s63 -92.5 63 -160.5
c0 -48 -13.333 -92.833 -40 -134.5s-80.334 -92.5 -161.001 -152.5c-80 -59.333 -133 -104.166 -159 -134.499s-39 -62.5 -39 -96.5z" />
    <glyph glyph-name="threesuperior" unicode="&#xb3;" horiz-adv-x="791" 
d="M510 1286l-311.001 0.00195312c-34.667 0 -52 17.667 -52 53c0 36 17.333 54 52 54h331c32 0 56.167 -6.33301 72.5 -19s24.5 -31.667 24.5 -57c0 -14 -5 -30.833 -15 -50.5s-25 -42.5 -45 -68.5l-114 -143c65.333 -13.333 114.333 -40.5 147 -81.5s49 -95.833 49 -164.5
c0 -75.333 -27.5 -138.833 -82.5 -190.5s-122.167 -77.5 -201.5 -77.5c-63.333 0 -117.833 12.667 -163.5 38s-68.5 48.666 -68.5 69.999c0 15.333 5.33301 29.166 16 41.499s23.667 18.5 39 18.5c9.33301 0 22.333 -5.66699 39 -17
c22.667 -15.333 45.167 -26.666 67.5 -33.999s44.833 -11 67.5 -11c50.667 0 92.834 15.167 126.501 45.5s50.5 69.166 50.5 116.499c0 52.667 -15.5 92.167 -46.5 118.5s-77.167 39.5 -138.5 39.5c-30 0 -45 15.667 -45 47c0 16 7.66699 32.333 23 49z" />
    <glyph glyph-name="acute" unicode="&#xb4;" horiz-adv-x="416" 
d="M348 1419l-200.999 -156.999c-24.667 -19.333 -43 -29 -55 -29c-16.667 0 -31.334 6 -44.001 18s-19 27 -19 45c0 17.333 13.667 36.666 41 57.999l194 153c28 22 48.667 33 62 33c15.333 0 29.333 -5.83301 42 -17.5s19 -26.167 19 -43.5s-13 -37.333 -39 -60z" />
    <glyph glyph-name="uni00B5" unicode="&#xb5;" horiz-adv-x="1118" 
d="M967 57c0 -42 -21.334 -63 -64.001 -63c-42 0 -63 21 -63 63v109c-32.667 -58 -78 -103.5 -136 -136.5s-122.667 -49.5 -194 -49.5c-46 0 -90.167 8.5 -132.5 25.5s-75.166 39.833 -98.499 68.5v-443c0 -42 -21.333 -63 -64 -63c-42 0 -63 21 -63 63v1356
c0 42.667 21 64 63 64c42.667 0 64 -21.333 64 -64v-602c0 -92.667 21.667 -162.667 65 -210s104 -71 182 -71c93.333 0 169 32.333 227 97s87 152.667 87 264v522c0 42.667 21 64 63 64c42.667 0 64 -21.333 64 -64v-930z" />
    <glyph glyph-name="paragraph" unicode="&#xb6;" horiz-adv-x="1012" 
d="M793 1270v-1409c0 -44 -22 -66 -66 -66c-40.667 0 -61 22 -61 66v1409h-181v-1409c0 -44 -21 -66 -63 -66c-42.667 0 -64 22 -64 66v973c-80.667 4 -147.5 33.5 -200.5 88.5s-79.5 120.833 -79.5 197.5c0 78 28 144 84 198s123.667 81 203 81h534
c42.667 0 64 -21.333 64 -64c0 -43.333 -21.333 -65 -64 -65h-106z" />
    <glyph glyph-name="uni00B7" unicode="&#xb7;" horiz-adv-x="406" 
d="M203 532c-28.667 0 -52.667 9.83203 -72 29.499s-29 42.834 -29 69.501c0 27.333 9.66699 50.833 29 70.5s43.333 29.5 72 29.5c28 0 51.667 -9.66699 71 -29s29 -43 29 -71c0 -26 -9.83301 -49 -29.5 -69s-43.167 -30 -70.5 -30z" />
    <glyph glyph-name="cedilla" unicode="&#xb8;" horiz-adv-x="885" 
d="M428 0l92 -0.000976562l-53 -102c14.667 2.66699 30.334 4 47.001 4c43.333 0 75.666 -12 96.999 -36s32 -54.333 32 -91c0 -47.333 -16.667 -85.5 -50 -114.5s-80.666 -43.5 -141.999 -43.5c-46 0 -81.5 7 -106.5 21s-37.5 29.667 -37.5 47c0 12 3.66699 22.167 11 30.5
s16 12.5 26 12.5c9.33301 0 16.666 -1.33301 21.999 -4c30.667 -15.333 61.667 -23 93 -23c27.333 0 47.833 5.5 61.5 16.5s20.5 27.5 20.5 49.5c0 20.667 -6.66699 36 -20 46s-33.333 15 -60 15c-13.333 0 -26.333 -0.666992 -39 -2s-23.667 -2 -33 -2
c-20.667 0 -31 9.66699 -31 29c0 10.667 4.33301 23.334 13 38.001z" />
    <glyph glyph-name="onesuperior" unicode="&#xb9;" horiz-adv-x="791" 
d="M348 1282l-49 -27.999c-54.667 -33.333 -88 -50 -100 -50c-34.667 0 -52 18.667 -52 56c0 19.333 13 35.166 39 47.499s62.167 33 108.5 62s79.833 43.5 100.5 43.5c42.667 0 64 -23.333 64 -70v-667h123c36.667 0 55 -17.667 55 -53c0 -36 -18.333 -54 -55 -54h-369
c-36.667 0 -55 17.333 -55 52c0 36.667 18.333 55 55 55h135v606z" />
    <glyph glyph-name="ordmasculine" unicode="&#xba;" horiz-adv-x="793" 
d="M395 686c-91.333 0 -165.333 34.333 -222 103s-85 155.334 -85 260.001c0 106.667 27.5 194 82.5 262s129.833 102 224.5 102c93.333 0 167.833 -31.833 223.5 -95.5s83.5 -149.834 83.5 -258.501c0 -112 -28.5 -202.167 -85.5 -270.5s-130.833 -102.5 -221.5 -102.5z
M594 1056c0 80 -17.333 142.166 -52 186.499s-83.667 66.5 -147 66.5c-64.667 0 -113.834 -23.167 -147.501 -69.5s-50.5 -109.833 -50.5 -190.5c0 -77.333 16.833 -140.166 50.5 -188.499s82.834 -72.5 147.501 -72.5c62.667 0 111.5 23.167 146.5 69.5
s52.5 112.5 52.5 198.5z" />
    <glyph glyph-name="guillemotright" unicode="&#xbb;" horiz-adv-x="1159" 
d="M92 125c-10.667 14.667 -16.0029 27.667 -16.0029 39c0 16.667 9.33301 33 28 49l382 337l-382 338c-18.667 16.667 -28 33 -28 49c0 12.667 5.83301 26 17.5 40s24.834 21 39.501 21s30.334 -7.33301 47.001 -22l425 -375c19.333 -17.333 29 -34.333 29 -51
c0 -19.333 -9.66699 -36.333 -29 -51l-425 -374c-17.333 -15.333 -33.666 -23 -48.999 -23c-10.667 0 -23.667 7.66699 -39 23zM521.997 976c14 14.667 27.665 22.001 40.998 22.001c14.667 0 30.334 -7.33301 47.001 -22l425 -375c19.333 -17.333 29 -34.333 29 -51
c0 -19.333 -9.66699 -36.333 -29 -51l-425 -374c-17.333 -15.333 -33.666 -23 -48.999 -23c-10.667 0 -23.667 7.66699 -39 23c-10.667 14.667 -16 27.667 -16 39c0 16.667 9.66699 33 29 49l381 337l-381 338c-19.333 17.333 -29 33.666 -29 48.999
c0 11.333 5.33301 24.333 16 39z" />
    <glyph glyph-name="onequarter" unicode="&#xbc;" horiz-adv-x="1765" 
d="M348 1282l-49 -27.999c-54.667 -33.333 -88 -50 -100 -50c-34.667 0 -52 18.667 -52 56c0 19.333 13 35.166 39 47.499s62.167 33 108.5 62s79.833 43.5 100.5 43.5c42.667 0 64 -23.333 64 -70v-667h123c36.667 0 55 -17.667 55 -53c0 -36 -18.333 -54 -55 -54h-369
c-36.667 0 -55 17.333 -55 52c0 36.667 18.333 55 55 55h135v606zM1389 1319l-894.998 -1307c-14.667 -21.333 -30.334 -32 -47.001 -32c-14 0 -27.167 5.16699 -39.5 15.5s-18.5 20.833 -18.5 31.5c0 9.33301 2.33301 17.333 7 24l909 1329c15.333 22 31 33 47 33
c13.333 0 26.166 -5 38.499 -15s18.5 -20.667 18.5 -32s-6.66699 -27 -20 -47zM1545 191.001l0.000976562 -145.999c0 -34 -18.333 -51 -55 -51c-34 0 -51 17 -51 51v146h-285c-35.333 0 -61.833 6.83301 -79.5 20.5s-26.5 34.167 -26.5 61.5c0 23.333 17.333 69.333 52 138
l130 255c51.333 102 81 157.167 89 165.5s18 12.5 30 12.5c38 0 57 -15.667 57 -47c0 -8.66699 -1.33301 -16.834 -4 -24.501s-30.334 -62.167 -83.001 -163.5l-165 -316h285v293c0 35.333 17 53 51 53c36.667 0 55 -17.667 55 -53v-293h43c34.667 0 52 -17.667 52 -53
c0 -32.667 -17.333 -49 -52 -49h-43z" />
    <glyph glyph-name="onehalf" unicode="&#xbd;" horiz-adv-x="1765" 
d="M348 1282l-49 -27.999c-54.667 -33.333 -88 -50 -100 -50c-34.667 0 -52 18.667 -52 56c0 19.333 13 35.166 39 47.499s62.167 33 108.5 62s79.833 43.5 100.5 43.5c42.667 0 64 -23.333 64 -70v-667h123c36.667 0 55 -17.667 55 -53c0 -36 -18.333 -54 -55 -54h-369
c-36.667 0 -55 17.333 -55 52c0 36.667 18.333 55 55 55h135v606zM1389 1319l-894.998 -1307c-14.667 -21.333 -30.334 -32 -47.001 -32c-14 0 -27.167 5.16699 -39.5 15.5s-18.5 20.833 -18.5 31.5c0 9.33301 2.33301 17.333 7 24l909 1329c15.333 22 31 33 47 33
c13.333 0 26.166 -5 38.499 -15s18.5 -20.667 18.5 -32s-6.66699 -27 -20 -47zM1216 107.001h336.002c36.667 0 55 -17 55 -51c0 -37.333 -18.333 -56 -55 -56h-334c-36.667 0 -64 8.16699 -82 24.5s-27 41.166 -27 74.499c0 56.667 16.667 106.667 50 150
s98.666 100.333 195.999 171c98 68 147 134.333 147 199c0 40 -11.333 70.167 -34 90.5s-56.334 30.5 -101.001 30.5c-46.667 0 -93.667 -18.667 -141 -56c-16.667 -12 -31 -18 -43 -18c-13.333 0 -25.166 5.66699 -35.499 17s-15.5 24 -15.5 38c0 26 26.833 53 80.5 81
s107.167 42 160.5 42c77.333 0 137 -19.5 179 -58.5s63 -92.5 63 -160.5c0 -48 -13.333 -92.833 -40 -134.5s-80.334 -92.5 -161.001 -152.5c-80 -59.333 -133 -104.166 -159 -134.499s-39 -62.5 -39 -96.5z" />
    <glyph glyph-name="threequarters" unicode="&#xbe;" horiz-adv-x="1782" 
d="M510 1286l-311.001 0.00195312c-34.667 0 -52 17.667 -52 53c0 36 17.333 54 52 54h331c32 0 56.167 -6.33301 72.5 -19s24.5 -31.667 24.5 -57c0 -14 -5 -30.833 -15 -50.5s-25 -42.5 -45 -68.5l-114 -143c65.333 -13.333 114.333 -40.5 147 -81.5s49 -95.833 49 -164.5
c0 -75.333 -27.5 -138.833 -82.5 -190.5s-122.167 -77.5 -201.5 -77.5c-63.333 0 -117.833 12.667 -163.5 38s-68.5 48.666 -68.5 69.999c0 15.333 5.33301 29.166 16 41.499s23.667 18.5 39 18.5c9.33301 0 22.333 -5.66699 39 -17
c22.667 -15.333 45.167 -26.666 67.5 -33.999s44.833 -11 67.5 -11c50.667 0 92.834 15.167 126.501 45.5s50.5 69.166 50.5 116.499c0 52.667 -15.5 92.167 -46.5 118.5s-77.167 39.5 -138.5 39.5c-30 0 -45 15.667 -45 47c0 16 7.66699 32.333 23 49zM1395 1319
l-894.998 -1307c-14.667 -21.333 -30.334 -32 -47.001 -32c-14 0 -27.167 5.16699 -39.5 15.5s-18.5 20.833 -18.5 31.5c0 9.33301 2.33301 17.333 7 24l909 1329c15.333 22 31 33 47 33c13.333 0 26.166 -5 38.499 -15s18.5 -20.667 18.5 -32s-6.66699 -27 -20 -47z
M1558 191.002l0.000976562 -145.999c0 -34 -18.333 -51 -55 -51c-34 0 -51 17 -51 51v146h-285c-35.333 0 -61.833 6.83301 -79.5 20.5s-26.5 34.167 -26.5 61.5c0 23.333 17.333 69.333 52 138l130 255c51.333 102 81 157.167 89 165.5s18 12.5 30 12.5
c38 0 57 -15.667 57 -47c0 -8.66699 -1.33301 -16.834 -4 -24.501s-30.334 -62.167 -83.001 -163.5l-165 -316h285v293c0 35.333 17 53 51 53c36.667 0 55 -17.667 55 -53v-293h43c34.667 0 52 -17.667 52 -53c0 -32.667 -17.333 -49 -52 -49h-43z" />
    <glyph glyph-name="questiondown" unicode="&#xbf;" horiz-adv-x="903" 
d="M518 1065c26 0 47.833 -8.83301 65.5 -26.5s26.5 -39.5 26.5 -65.5s-8.83301 -48.167 -26.5 -66.5s-39.5 -27.5 -65.5 -27.5c-26.667 0 -49 9 -67 27s-27 40.333 -27 67c0 26 9.16699 47.833 27.5 65.5s40.5 26.5 66.5 26.5zM455 586l-0.000976562 107.999
c0 42.667 21 64 63 64c42.667 0 64 -21.333 64 -64v-119c0 -77.333 -18.667 -143.666 -56 -198.999s-88.333 -105 -153 -149c-63.333 -44.667 -106.833 -87.167 -130.5 -127.5s-35.5 -83.833 -35.5 -130.5c0 -64.667 23.167 -116.667 69.5 -156s106.5 -59 180.5 -59
c92 0 173.667 32 245 96c20.667 18 34.167 28.667 40.5 32s14.833 5 25.5 5c14.667 0 27.834 -5.16699 39.501 -15.5s17.5 -24.166 17.5 -41.499c0 -40 -37.5 -83.167 -112.5 -129.5s-161.5 -69.5 -259.5 -69.5c-112.667 0 -203.667 31 -273 93s-104 142.333 -104 241
c0 62.667 16.167 122.167 48.5 178.5s90.5 115.833 174.5 178.5c56 42 96 82.167 120 120.5s36 86.166 36 143.499z" />
    <glyph glyph-name="Agrave" unicode="&#xc0;" horiz-adv-x="1171" 
d="M895 410l-611.998 -0.00195312c-56.667 -184.667 -92.334 -307 -107.001 -367c-7.33301 -32.667 -25 -49 -53 -49c-49.333 0 -74 19 -74 57c0 26 21 107.333 63 244c69.333 224.667 127.5 399.834 174.5 525.501s104.167 258.834 171.5 399.501
c48.667 101.333 78.667 156.5 90 165.5s25.333 13.5 42 13.5h14c17.333 0 31 -4.66699 41 -14s46 -79.833 108 -211.5s118.667 -272.334 170 -422.001s102.333 -316.5 153 -500.5c30.667 -111.333 46 -178.666 46 -201.999c0 -36.667 -23.667 -55 -71 -55
c-28.667 0 -47.334 16.333 -56.001 49c-10.667 56 -44 178.333 -100 367zM858.002 534.998c-74 244.667 -161.333 471 -262 679c-104.667 -210 -196 -436.333 -274 -679h536zM606.002 1569l-197.999 157c-27.333 22 -41 42 -41 60c0 17.333 6 31.833 18 43.5
s26.333 17.5 43 17.5c15.333 0 33.666 -9.66699 54.999 -29l203 -157c26 -20 39 -39.333 39 -58c0 -14 -6 -28 -18 -42s-25.667 -21 -41 -21c-13.333 0 -33.333 9.66699 -60 29z" />
    <glyph glyph-name="Aacute" unicode="&#xc1;" horiz-adv-x="1171" 
d="M895 410l-611.998 -0.00195312c-56.667 -184.667 -92.334 -307 -107.001 -367c-7.33301 -32.667 -25 -49 -53 -49c-49.333 0 -74 19 -74 57c0 26 21 107.333 63 244c69.333 224.667 127.5 399.834 174.5 525.501s104.167 258.834 171.5 399.501
c48.667 101.333 78.667 156.5 90 165.5s25.333 13.5 42 13.5h14c17.333 0 31 -4.66699 41 -14s46 -79.833 108 -211.5s118.667 -272.334 170 -422.001s102.333 -316.5 153 -500.5c30.667 -111.333 46 -178.666 46 -201.999c0 -36.667 -23.667 -55 -71 -55
c-28.667 0 -47.334 16.333 -56.001 49c-10.667 56 -44 178.333 -100 367zM858.002 534.998c-74 244.667 -161.333 471 -262 679c-104.667 -210 -196 -436.333 -274 -679h536zM760.002 1726l-200.999 -156.999c-24.667 -19.333 -43 -29 -55 -29
c-16.667 0 -31.334 6 -44.001 18s-19 27 -19 45c0 17.333 13.667 36.666 41 57.999l194 153c28 22 48.667 33 62 33c15.333 0 29.333 -5.83301 42 -17.5s19 -26.167 19 -43.5s-13 -37.333 -39 -60z" />
    <glyph glyph-name="Acircumflex" unicode="&#xc2;" horiz-adv-x="1171" 
d="M895 410l-611.998 -0.00195312c-56.667 -184.667 -92.334 -307 -107.001 -367c-7.33301 -32.667 -25 -49 -53 -49c-49.333 0 -74 19 -74 57c0 26 21 107.333 63 244c69.333 224.667 127.5 399.834 174.5 525.501s104.167 258.834 171.5 399.501
c48.667 101.333 78.667 156.5 90 165.5s25.333 13.5 42 13.5h14c17.333 0 31 -4.66699 41 -14s46 -79.833 108 -211.5s118.667 -272.334 170 -422.001s102.333 -316.5 153 -500.5c30.667 -111.333 46 -178.666 46 -201.999c0 -36.667 -23.667 -55 -71 -55
c-28.667 0 -47.334 16.333 -56.001 49c-10.667 56 -44 178.333 -100 367zM858.002 534.998c-74 244.667 -161.333 471 -262 679c-104.667 -210 -196 -436.333 -274 -679h536zM600.002 1681l-187.998 -123.002c-20.667 -13.333 -38 -20 -52 -20
c-12 0 -23.167 4.66699 -33.5 14s-15.5 22.333 -15.5 39c0 12.667 3.16699 23.334 9.5 32.001s18.166 18.667 35.499 30l179 116c26 16.667 47.667 25 65 25c18 0 40 -8.33301 66 -25l172 -110c34 -22 51 -43.333 51 -64c0 -15.333 -4.83301 -28.666 -14.5 -39.999
s-21.167 -17 -34.5 -17c-12.667 0 -26.334 4.66699 -41.001 14z" />
    <glyph glyph-name="Atilde" unicode="&#xc3;" horiz-adv-x="1171" 
d="M895 410l-611.998 -0.00195312c-56.667 -184.667 -92.334 -307 -107.001 -367c-7.33301 -32.667 -25 -49 -53 -49c-49.333 0 -74 19 -74 57c0 26 21 107.333 63 244c69.333 224.667 127.5 399.834 174.5 525.501s104.167 258.834 171.5 399.501
c48.667 101.333 78.667 156.5 90 165.5s25.333 13.5 42 13.5h14c17.333 0 31 -4.66699 41 -14s46 -79.833 108 -211.5s118.667 -272.334 170 -422.001s102.333 -316.5 153 -500.5c30.667 -111.333 46 -178.666 46 -201.999c0 -36.667 -23.667 -55 -71 -55
c-28.667 0 -47.334 16.333 -56.001 49c-10.667 56 -44 178.333 -100 367zM858.002 534.998c-74 244.667 -161.333 471 -262 679c-104.667 -210 -196 -436.333 -274 -679h536zM700.002 1540c-27.333 0 -67 10.333 -119 31c-52.667 20 -91.334 30 -116.001 30
c-22.667 0 -45 -10 -67 -30c-22.667 -20.667 -40.667 -31 -54 -31c-15.333 0 -29.166 4.83301 -41.499 14.5s-18.5 23.167 -18.5 40.5c0 24.667 19.167 51 57.5 79s77.166 42 116.499 42c29.333 0 69.333 -10 120 -30c50 -20.667 89.333 -31 118 -31
c21.333 0 43.333 10.333 66 31c22.667 20 40.334 30 53.001 30c16.667 0 30.667 -4.83301 42 -14.5s17 -23.167 17 -40.5c0 -24.667 -19 -51 -57 -79s-77 -42 -117 -42z" />
    <glyph glyph-name="Adieresis" unicode="&#xc4;" horiz-adv-x="1171" 
d="M895 410l-611.998 -0.00195312c-56.667 -184.667 -92.334 -307 -107.001 -367c-7.33301 -32.667 -25 -49 -53 -49c-49.333 0 -74 19 -74 57c0 26 21 107.333 63 244c69.333 224.667 127.5 399.834 174.5 525.501s104.167 258.834 171.5 399.501
c48.667 101.333 78.667 156.5 90 165.5s25.333 13.5 42 13.5h14c17.333 0 31 -4.66699 41 -14s46 -79.833 108 -211.5s118.667 -272.334 170 -422.001s102.333 -316.5 153 -500.5c30.667 -111.333 46 -178.666 46 -201.999c0 -36.667 -23.667 -55 -71 -55
c-28.667 0 -47.334 16.333 -56.001 49c-10.667 56 -44 178.333 -100 367zM858.002 534.998c-74 244.667 -161.333 471 -262 679c-104.667 -210 -196 -436.333 -274 -679h536zM774.002 1540c-23.333 0 -43.5 8.5 -60.5 25.5s-25.5 37.167 -25.5 60.5s8.5 43.5 25.5 60.5
s37.167 25.5 60.5 25.5c24.667 0 45.167 -8.16699 61.5 -24.5s24.5 -36.833 24.5 -61.5s-8.16699 -45.167 -24.5 -61.5s-36.833 -24.5 -61.5 -24.5zM411.002 1540c-23.333 0 -43.5 8.5 -60.5 25.5s-25.5 37.167 -25.5 60.5s8.5 43.5 25.5 60.5s37.167 25.5 60.5 25.5
c24.667 0 45.167 -8.16699 61.5 -24.5s24.5 -36.833 24.5 -61.5s-8.16699 -45.167 -24.5 -61.5s-36.833 -24.5 -61.5 -24.5z" />
    <glyph glyph-name="Aring" unicode="&#xc5;" horiz-adv-x="1171" 
d="M895 412h-611.999c-55.333 -180.667 -91 -303.667 -107 -369c-7.33301 -32.667 -25 -49 -53 -49c-49.333 0 -74 19 -74 57s47.667 204.667 143 500s205.333 561 330 797c-32.667 14 -59.167 36.667 -79.5 68s-30.5 66.666 -30.5 105.999c0 52 18.333 96.667 55 134
s79.667 56 129 56s92.333 -18.667 129 -56s55 -82 55 -134c0 -39.333 -10.333 -74.666 -31 -105.999s-47 -54 -79 -68c128 -254.667 235.333 -525 322 -811s130 -448.667 130 -488c0 -36.667 -23.667 -55 -71 -55c-28.667 0 -47.334 16.333 -56.001 49
c-10.667 54 -44 177 -100 369zM596.001 1636c-30.667 0 -56.834 -11.333 -78.501 -34s-32.5 -49.334 -32.5 -80.001c0 -31.333 10.833 -58.333 32.5 -81s47.834 -34 78.501 -34s56.834 11.333 78.501 34s32.5 49.667 32.5 81c0 30.667 -10.833 57.334 -32.5 80.001
s-47.834 34 -78.501 34zM858.001 535c-74 244.667 -161.333 471 -262 679c-104.667 -210 -196 -436.333 -274 -679h536z" />
    <glyph glyph-name="AE" unicode="&#xc6;" horiz-adv-x="1747" 
d="M899 408l-547 0.000976562l-59 -104c-73.333 -127.333 -121 -213 -143 -257c-9.33301 -17.333 -18.5 -30.5 -27.5 -39.5s-21.167 -13.5 -36.5 -13.5c-16.667 0 -32.5 4.83301 -47.5 14.5s-22.5 23.167 -22.5 40.5c0 9.33301 2 19 6 29
c10.667 26 42.167 85.833 94.5 179.5l187 324.5c72.333 122.667 140.833 233 205.5 331s133.5 195.833 206.5 293.5s115.333 151.5 127 161.5s22.667 16.667 33 20s22.833 5 37.5 5h686c44 0 66 -21.333 66 -64c0 -42 -22 -63 -66 -63h-536c-23.333 0 -35 -13 -35 -39v-439
h506c42 0 63 -21.667 63 -65c0 -40.667 -21 -61 -63 -61h-506v-504c0 -20.667 9 -31 27 -31h544c44 0 66 -20.333 66 -61c0 -44 -22 -66 -66 -66h-563c-43.333 0 -77 11.667 -101 35s-36 56.666 -36 99.999v273zM899 535.001v711.999
c-160 -209.333 -318.333 -446.666 -475 -711.999h475z" />
    <glyph glyph-name="Ccedilla" unicode="&#xc7;" horiz-adv-x="1190" 
d="M631 -18c-170.667 12.667 -303.167 83.3379 -397.5 212.005s-141.5 296 -141.5 502c0 213.333 56.833 386.166 170.5 518.499s260.167 198.5 439.5 198.5c112 0 206.667 -20.333 284 -61s116 -77.667 116 -111c0 -18.667 -4.83301 -34.167 -14.5 -46.5
s-23.167 -18.5 -40.5 -18.5c-15.333 0 -37.333 10 -66 30c-80.667 57.333 -173.667 86 -279 86c-144 0 -260.167 -54.5 -348.5 -163.5s-132.5 -253.167 -132.5 -432.5c0 -185.333 42.167 -331 126.5 -437s195.833 -159 334.5 -159c56.667 0 111.5 9.16699 164.5 27.5
s110.167 52.166 171.5 101.499c18.667 15.333 35.667 23 51 23s27.666 -6.33301 36.999 -19s14 -26 14 -40c0 -31.333 -41.667 -72.833 -125 -124.5s-174 -80.5 -272 -86.5l-41 -84c12 2.66699 29 4 51 4c34 0 63 -10 87 -30s36 -51 36 -93
c0 -48.667 -17.833 -87.834 -53.5 -117.501s-83.5 -44.5 -143.5 -44.5c-45.333 0 -79.833 7 -103.5 21s-35.5 29.667 -35.5 47c0 12 3.5 22.167 10.5 30.5s16.5 12.5 28.5 12.5c9.33301 0 17 -1.33301 23 -4c34.667 -15.333 64.667 -23 90 -23
c26 0 45.833 6.16699 59.5 18.5s20.5 28.166 20.5 47.499c0 20.667 -6.5 36 -19.5 46s-32.5 15 -58.5 15c-13.333 0 -26.666 -1 -39.999 -3c-14 -2 -26.667 -3 -38 -3c-18 0 -27 8 -27 24c0 11.333 5 25.666 15 42.999z" />
    <glyph glyph-name="Egrave" unicode="&#xc8;" horiz-adv-x="1032" 
d="M313 788h505.998c42.667 0 64 -21.667 64 -65c0 -40.667 -21.333 -61 -64 -61h-506v-504c0 -20.667 9 -31 27 -31h545c43.333 0 65 -20.333 65 -61c0 -44 -21.667 -66 -65 -66h-563c-43.333 0 -77.166 11.667 -101.499 35s-36.5 56.666 -36.5 99.999v1102
c0 46 11.833 83.5 35.5 112.5s61.834 43.5 114.501 43.5h551c43.333 0 65 -21.333 65 -64c0 -42 -21.667 -63 -65 -63h-537c-10 0 -18.333 -3.66699 -25 -11s-10 -16.666 -10 -27.999v-439zM613.998 1569l-197.999 157c-27.333 22 -41 42 -41 60c0 17.333 6 31.833 18 43.5
s26.333 17.5 43 17.5c15.333 0 33.666 -9.66699 54.999 -29l203 -157c26 -20 39 -39.333 39 -58c0 -14 -6 -28 -18 -42s-25.667 -21 -41 -21c-13.333 0 -33.333 9.66699 -60 29z" />
    <glyph glyph-name="Eacute" unicode="&#xc9;" horiz-adv-x="1032" 
d="M313 788h505.998c42.667 0 64 -21.667 64 -65c0 -40.667 -21.333 -61 -64 -61h-506v-504c0 -20.667 9 -31 27 -31h545c43.333 0 65 -20.333 65 -61c0 -44 -21.667 -66 -65 -66h-563c-43.333 0 -77.166 11.667 -101.499 35s-36.5 56.666 -36.5 99.999v1102
c0 46 11.833 83.5 35.5 112.5s61.834 43.5 114.501 43.5h551c43.333 0 65 -21.333 65 -64c0 -42 -21.667 -63 -65 -63h-537c-10 0 -18.333 -3.66699 -25 -11s-10 -16.666 -10 -27.999v-439zM769.998 1726l-200.999 -156.999c-24.667 -19.333 -43 -29 -55 -29
c-16.667 0 -31.334 6 -44.001 18s-19 27 -19 45c0 17.333 13.667 36.666 41 57.999l194 153c28 22 48.667 33 62 33c15.333 0 29.333 -5.83301 42 -17.5s19 -26.167 19 -43.5s-13 -37.333 -39 -60z" />
    <glyph glyph-name="Ecircumflex" unicode="&#xca;" horiz-adv-x="1032" 
d="M313 788h505.998c42.667 0 64 -21.667 64 -65c0 -40.667 -21.333 -61 -64 -61h-506v-504c0 -20.667 9 -31 27 -31h545c43.333 0 65 -20.333 65 -61c0 -44 -21.667 -66 -65 -66h-563c-43.333 0 -77.166 11.667 -101.499 35s-36.5 56.666 -36.5 99.999v1102
c0 46 11.833 83.5 35.5 112.5s61.834 43.5 114.501 43.5h551c43.333 0 65 -21.333 65 -64c0 -42 -21.667 -63 -65 -63h-537c-10 0 -18.333 -3.66699 -25 -11s-10 -16.666 -10 -27.999v-439zM570.998 1681l-187.998 -123.002c-20.667 -13.333 -38 -20 -52 -20
c-12 0 -23.167 4.66699 -33.5 14s-15.5 22.333 -15.5 39c0 12.667 3.16699 23.334 9.5 32.001s18.166 18.667 35.499 30l179 116c26 16.667 47.667 25 65 25c18 0 40 -8.33301 66 -25l172 -110c34 -22 51 -43.333 51 -64c0 -15.333 -4.83301 -28.666 -14.5 -39.999
s-21.167 -17 -34.5 -17c-12.667 0 -26.334 4.66699 -41.001 14z" />
    <glyph glyph-name="Edieresis" unicode="&#xcb;" horiz-adv-x="1032" 
d="M313 788h505.998c42.667 0 64 -21.667 64 -65c0 -40.667 -21.333 -61 -64 -61h-506v-504c0 -20.667 9 -31 27 -31h545c43.333 0 65 -20.333 65 -61c0 -44 -21.667 -66 -65 -66h-563c-43.333 0 -77.166 11.667 -101.499 35s-36.5 56.666 -36.5 99.999v1102
c0 46 11.833 83.5 35.5 112.5s61.834 43.5 114.501 43.5h551c43.333 0 65 -21.333 65 -64c0 -42 -21.667 -63 -65 -63h-537c-10 0 -18.333 -3.66699 -25 -11s-10 -16.666 -10 -27.999v-439zM767.998 1540c-23.333 0 -43.5 8.5 -60.5 25.5s-25.5 37.167 -25.5 60.5
s8.5 43.5 25.5 60.5s37.167 25.5 60.5 25.5c24.667 0 45.167 -8.16699 61.5 -24.5s24.5 -36.833 24.5 -61.5s-8.16699 -45.167 -24.5 -61.5s-36.833 -24.5 -61.5 -24.5zM404.998 1540c-23.333 0 -43.5 8.5 -60.5 25.5s-25.5 37.167 -25.5 60.5s8.5 43.5 25.5 60.5
s37.167 25.5 60.5 25.5c24.667 0 45.167 -8.16699 61.5 -24.5s24.5 -36.833 24.5 -61.5s-8.16699 -45.167 -24.5 -61.5s-36.833 -24.5 -61.5 -24.5z" />
    <glyph glyph-name="Igrave" unicode="&#xcc;" horiz-adv-x="498" 
d="M313 59c0 -43.333 -21.667 -65 -65 -65c-42.667 0 -64 21.667 -64 65v1276c0 42.667 21.333 64 64 64c43.333 0 65 -21.333 65 -64v-1276zM274 1569l-197.999 157c-27.333 22 -41 42 -41 60c0 17.333 6 31.833 18 43.5s26.333 17.5 43 17.5
c15.333 0 33.666 -9.66699 54.999 -29l203 -157c26 -20 39 -39.333 39 -58c0 -14 -6 -28 -18 -42s-25.667 -21 -41 -21c-13.333 0 -33.333 9.66699 -60 29z" />
    <glyph glyph-name="Iacute" unicode="&#xcd;" horiz-adv-x="498" 
d="M313 59c0 -43.333 -21.667 -65 -65 -65c-42.667 0 -64 21.667 -64 65v1276c0 42.667 21.333 64 64 64c43.333 0 65 -21.333 65 -64v-1276zM430 1726l-200.999 -156.999c-24.667 -19.333 -43 -29 -55 -29c-16.667 0 -31.334 6 -44.001 18s-19 27 -19 45
c0 17.333 13.667 36.666 41 57.999l194 153c28 22 48.667 33 62 33c15.333 0 29.333 -5.83301 42 -17.5s19 -26.167 19 -43.5s-13 -37.333 -39 -60z" />
    <glyph glyph-name="Icircumflex" unicode="&#xce;" horiz-adv-x="498" 
d="M313 59c0 -43.333 -21.667 -65 -65 -65c-42.667 0 -64 21.667 -64 65v1276c0 42.667 21.333 64 64 64c43.333 0 65 -21.333 65 -64v-1276zM245 1681l-187.998 -123.002c-20.667 -13.333 -38 -20 -52 -20c-12 0 -23.167 4.66699 -33.5 14s-15.5 22.333 -15.5 39
c0 12.667 3.16699 23.334 9.5 32.001s18.166 18.667 35.499 30l179 116c26 16.667 47.667 25 65 25c18 0 40 -8.33301 66 -25l172 -110c34 -22 51 -43.333 51 -64c0 -15.333 -4.83301 -28.666 -14.5 -39.999s-21.167 -17 -34.5 -17c-12.667 0 -26.334 4.66699 -41.001 14z
" />
    <glyph glyph-name="Idieresis" unicode="&#xcf;" horiz-adv-x="498" 
d="M313 59c0 -43.333 -21.667 -65 -65 -65c-42.667 0 -64 21.667 -64 65v1276c0 42.667 21.333 64 64 64c43.333 0 65 -21.333 65 -64v-1276zM429 1540c-23.333 0 -43.5 8.5 -60.5 25.5s-25.5 37.167 -25.5 60.5s8.5 43.5 25.5 60.5s37.167 25.5 60.5 25.5
c24.667 0 45.167 -8.16699 61.5 -24.5s24.5 -36.833 24.5 -61.5s-8.16699 -45.167 -24.5 -61.5s-36.833 -24.5 -61.5 -24.5zM66 1540c-23.333 0 -43.5 8.5 -60.5 25.5s-25.5 37.167 -25.5 60.5s8.5 43.5 25.5 60.5s37.167 25.5 60.5 25.5
c24.667 0 45.167 -8.16699 61.5 -24.5s24.5 -36.833 24.5 -61.5s-8.16699 -45.167 -24.5 -61.5s-36.833 -24.5 -61.5 -24.5z" />
    <glyph glyph-name="Eth" unicode="&#xd0;" horiz-adv-x="1311" 
d="M184 664l-85.999 0.00195312c-43.333 0 -65 20.333 -65 61s21.667 61 65 61h86v471c0 43.333 12.167 76.833 36.5 100.5s58.166 35.5 101.499 35.5h258c199.333 0 355.666 -60 468.999 -180s170 -279.333 170 -478c0 -220.667 -57.5 -398.334 -172.5 -533.001
s-270.5 -202 -466.5 -202h-258c-43.333 0 -77.166 11.667 -101.499 35s-36.5 56.666 -36.5 99.999v529zM313.001 664.002l0.000976562 -506c0 -20.667 9 -31 27 -31h246c161.333 0 285.666 53.667 372.999 161s131 253 131 437c0 170.667 -43 303.5 -129 398.5
s-211 142.5 -375 142.5h-246c-18 0 -27 -10.333 -27 -31v-449h318c43.333 0 65 -20.333 65 -61s-21.667 -61 -65 -61h-318z" />
    <glyph glyph-name="Ntilde" unicode="&#xd1;" horiz-adv-x="1360" 
d="M1176 96c0 -30 -9.83398 -54.5 -29.501 -73.5s-45.5 -28.5 -77.5 -28.5c-41.333 0 -72.666 19 -93.999 57l-670 1192v-1186c0 -42 -19.667 -63 -59 -63c-41.333 0 -62 21 -62 63v1231c0 36 10 63.5 30 82.5s45.667 28.5 77 28.5c44 0 76 -18.667 96 -56l668 -1189v1181
c0 42.667 19.667 64 59 64c41.333 0 62 -21.333 62 -64v-1239zM832.999 1540c-27.333 0 -67 10.333 -119 31c-52.667 20 -91.334 30 -116.001 30c-22.667 0 -45 -10 -67 -30c-22.667 -20.667 -40.667 -31 -54 -31c-15.333 0 -29.166 4.83301 -41.499 14.5
s-18.5 23.167 -18.5 40.5c0 24.667 19.167 51 57.5 79s77.166 42 116.499 42c29.333 0 69.333 -10 120 -30c50 -20.667 89.333 -31 118 -31c21.333 0 43.333 10.333 66 31c22.667 20 40.334 30 53.001 30c16.667 0 30.667 -4.83301 42 -14.5s17 -23.167 17 -40.5
c0 -24.667 -19 -51 -57 -79s-77 -42 -117 -42z" />
    <glyph glyph-name="Ograve" unicode="&#xd2;" horiz-adv-x="1356" 
d="M680 -20c-180 0 -322.999 67.168 -428.999 201.501s-159 305.833 -159 514.5c0 213.333 53.167 386.166 159.5 518.499s249.166 198.5 428.499 198.5s321.5 -67 426.5 -201s157.5 -306 157.5 -516c0 -207.333 -52.5 -378.5 -157.5 -513.5s-247.167 -202.5 -426.5 -202.5z
M678.001 1290c-141.333 0 -252.833 -55.667 -334.5 -167s-122.5 -253.666 -122.5 -426.999c0 -172.667 41.5 -314.834 124.5 -426.501s193.833 -167.5 332.5 -167.5c141.333 0 252.833 56 334.5 168s122.5 254 122.5 426s-40.833 314 -122.5 426s-193.167 168 -334.5 168z
M682.001 1569l-197.999 157c-27.333 22 -41 42 -41 60c0 17.333 6 31.833 18 43.5s26.333 17.5 43 17.5c15.333 0 33.666 -9.66699 54.999 -29l203 -157c26 -20 39 -39.333 39 -58c0 -14 -6 -28 -18 -42s-25.667 -21 -41 -21c-13.333 0 -33.333 9.66699 -60 29z" />
    <glyph glyph-name="Oacute" unicode="&#xd3;" horiz-adv-x="1356" 
d="M680 -20c-180 0 -322.999 67.168 -428.999 201.501s-159 305.833 -159 514.5c0 213.333 53.167 386.166 159.5 518.499s249.166 198.5 428.499 198.5s321.5 -67 426.5 -201s157.5 -306 157.5 -516c0 -207.333 -52.5 -378.5 -157.5 -513.5s-247.167 -202.5 -426.5 -202.5z
M678.001 1290c-141.333 0 -252.833 -55.667 -334.5 -167s-122.5 -253.666 -122.5 -426.999c0 -172.667 41.5 -314.834 124.5 -426.501s193.833 -167.5 332.5 -167.5c141.333 0 252.833 56 334.5 168s122.5 254 122.5 426s-40.833 314 -122.5 426s-193.167 168 -334.5 168z
M858.001 1726l-200.999 -156.999c-24.667 -19.333 -43 -29 -55 -29c-16.667 0 -31.334 6 -44.001 18s-19 27 -19 45c0 17.333 13.667 36.666 41 57.999l194 153c28 22 48.667 33 62 33c15.333 0 29.333 -5.83301 42 -17.5s19 -26.167 19 -43.5s-13 -37.333 -39 -60z" />
    <glyph glyph-name="Ocircumflex" unicode="&#xd4;" horiz-adv-x="1356" 
d="M680 -20c-180 0 -322.999 67.168 -428.999 201.501s-159 305.833 -159 514.5c0 213.333 53.167 386.166 159.5 518.499s249.166 198.5 428.499 198.5s321.5 -67 426.5 -201s157.5 -306 157.5 -516c0 -207.333 -52.5 -378.5 -157.5 -513.5s-247.167 -202.5 -426.5 -202.5z
M678.001 1290c-141.333 0 -252.833 -55.667 -334.5 -167s-122.5 -253.666 -122.5 -426.999c0 -172.667 41.5 -314.834 124.5 -426.501s193.833 -167.5 332.5 -167.5c141.333 0 252.833 56 334.5 168s122.5 254 122.5 426s-40.833 314 -122.5 426s-193.167 168 -334.5 168z
M676.001 1681l-187.998 -123.002c-20.667 -13.333 -38 -20 -52 -20c-12 0 -23.167 4.66699 -33.5 14s-15.5 22.333 -15.5 39c0 12.667 3.16699 23.334 9.5 32.001s18.166 18.667 35.499 30l179 116c26 16.667 47.667 25 65 25c18 0 40 -8.33301 66 -25l172 -110
c34 -22 51 -43.333 51 -64c0 -15.333 -4.83301 -28.666 -14.5 -39.999s-21.167 -17 -34.5 -17c-12.667 0 -26.334 4.66699 -41.001 14z" />
    <glyph glyph-name="Otilde" unicode="&#xd5;" horiz-adv-x="1356" 
d="M680 -20c-180 0 -322.999 67.168 -428.999 201.501s-159 305.833 -159 514.5c0 213.333 53.167 386.166 159.5 518.499s249.166 198.5 428.499 198.5s321.5 -67 426.5 -201s157.5 -306 157.5 -516c0 -207.333 -52.5 -378.5 -157.5 -513.5s-247.167 -202.5 -426.5 -202.5z
M678.001 1290c-141.333 0 -252.833 -55.667 -334.5 -167s-122.5 -253.666 -122.5 -426.999c0 -172.667 41.5 -314.834 124.5 -426.501s193.833 -167.5 332.5 -167.5c141.333 0 252.833 56 334.5 168s122.5 254 122.5 426s-40.833 314 -122.5 426s-193.167 168 -334.5 168z
M797.001 1540c-27.333 0 -67 10.333 -119 31c-52.667 20 -91.334 30 -116.001 30c-22.667 0 -45 -10 -67 -30c-22.667 -20.667 -40.667 -31 -54 -31c-15.333 0 -29.166 4.83301 -41.499 14.5s-18.5 23.167 -18.5 40.5c0 24.667 19.167 51 57.5 79s77.166 42 116.499 42
c29.333 0 69.333 -10 120 -30c50 -20.667 89.333 -31 118 -31c21.333 0 43.333 10.333 66 31c22.667 20 40.334 30 53.001 30c16.667 0 30.667 -4.83301 42 -14.5s17 -23.167 17 -40.5c0 -24.667 -19 -51 -57 -79s-77 -42 -117 -42z" />
    <glyph glyph-name="Odieresis" unicode="&#xd6;" horiz-adv-x="1356" 
d="M680 -20c-180 0 -322.999 67.168 -428.999 201.501s-159 305.833 -159 514.5c0 213.333 53.167 386.166 159.5 518.499s249.166 198.5 428.499 198.5s321.5 -67 426.5 -201s157.5 -306 157.5 -516c0 -207.333 -52.5 -378.5 -157.5 -513.5s-247.167 -202.5 -426.5 -202.5z
M678.001 1290c-141.333 0 -252.833 -55.667 -334.5 -167s-122.5 -253.666 -122.5 -426.999c0 -172.667 41.5 -314.834 124.5 -426.501s193.833 -167.5 332.5 -167.5c141.333 0 252.833 56 334.5 168s122.5 254 122.5 426s-40.833 314 -122.5 426s-193.167 168 -334.5 168z
M852.001 1540c-23.333 0 -43.5 8.5 -60.5 25.5s-25.5 37.167 -25.5 60.5s8.5 43.5 25.5 60.5s37.167 25.5 60.5 25.5c24.667 0 45.167 -8.16699 61.5 -24.5s24.5 -36.833 24.5 -61.5s-8.16699 -45.167 -24.5 -61.5s-36.833 -24.5 -61.5 -24.5zM489.001 1540
c-23.333 0 -43.5 8.5 -60.5 25.5s-25.5 37.167 -25.5 60.5s8.5 43.5 25.5 60.5s37.167 25.5 60.5 25.5c24.667 0 45.167 -8.16699 61.5 -24.5s24.5 -36.833 24.5 -61.5s-8.16699 -45.167 -24.5 -61.5s-36.833 -24.5 -61.5 -24.5z" />
    <glyph glyph-name="multiply" unicode="&#xd7;" horiz-adv-x="1085" 
d="M543 438l-315.999 -315c-18 -18 -33 -27 -45 -27c-11.333 0 -24 6 -38 18s-21 26 -21 42c0 14.667 8 30.334 24 47.001l316 315l-318 316c-16 16 -24 32.333 -24 49c0 15.333 6.66699 29 20 41s25.666 18 36.999 18c16 0 32.333 -9 49 -27l316 -317l315 315
c19.333 19.333 34.333 29 45 29c13.333 0 27 -6 41 -18s21 -25.667 21 -41c0 -14.667 -8.33301 -30.334 -25 -47.001l-317 -318l317 -315c16.667 -16.667 25 -33 25 -49c0 -12 -6.16699 -24.667 -18.5 -38s-25.5 -20 -39.5 -20c-16.667 0 -33 8.33301 -49 25z" />
    <glyph glyph-name="Oslash" unicode="&#xd8;" horiz-adv-x="1356" 
d="M289 -80c-13.333 -23.333 -29.001 -35.001 -47.001 -35.001c-11.333 0 -21.666 3.66699 -30.999 11c-19.333 11.333 -29 25 -29 41c0 10 4.33301 22.667 13 38l94 162c-62.667 64 -111.167 144.5 -145.5 241.5s-51.5 202.833 -51.5 317.5c0 208 54.667 379.5 164 514.5
s250.666 202.5 423.999 202.5c108.667 0 207.667 -27.333 297 -82l82 139c14.667 24.667 29.667 37 45 37c12 0 25.167 -5.33301 39.5 -16s21.5 -23 21.5 -37c0 -9.33301 -4 -21.666 -12 -36.999l-90 -155c66.667 -68.667 116.834 -152 150.501 -250
s50.5 -203.333 50.5 -316c0 -207.333 -52.5 -378.5 -157.5 -513.5s-247.167 -202.5 -426.5 -202.5c-116 0 -218.333 29.333 -307 88zM355.999 253.999l557.001 967.001c-64.667 46 -143 69 -235 69c-141.333 0 -252.833 -55.667 -334.5 -167
s-122.5 -253.666 -122.5 -426.999c0 -90.667 11.167 -172.834 33.5 -246.501s56.166 -138.834 101.499 -195.501zM995 1145l-559.001 -969.001c66.667 -49.333 147.334 -74 242.001 -74c141.333 0 252.833 56 334.5 168s122.5 254 122.5 426
c0 92.667 -11.667 176.334 -35 251.001s-58.333 140.667 -105 198z" />
    <glyph glyph-name="Ugrave" unicode="&#xd9;" horiz-adv-x="1319" 
d="M1139 438c0 -138.667 -44.668 -249.667 -134.001 -333s-205.333 -125 -348 -125c-141.333 0 -256.166 41.667 -344.499 125s-132.5 194.333 -132.5 333v897c0 42.667 21.333 64 64 64c43.333 0 65 -21.333 65 -64v-897c0 -103.333 31.5 -185.166 94.5 -245.499
s147.5 -90.5 253.5 -90.5c104.667 0 189.667 30.167 255 90.5s98 142.166 98 245.499v897c0 42.667 21 64 63 64c44 0 66 -21.333 66 -64v-897zM691.999 1569l-197.999 157c-27.333 22 -41 42 -41 60c0 17.333 6 31.833 18 43.5s26.333 17.5 43 17.5
c15.333 0 33.666 -9.66699 54.999 -29l203 -157c26 -20 39 -39.333 39 -58c0 -14 -6 -28 -18 -42s-25.667 -21 -41 -21c-13.333 0 -33.333 9.66699 -60 29z" />
    <glyph glyph-name="Uacute" unicode="&#xda;" horiz-adv-x="1319" 
d="M1139 438c0 -138.667 -44.668 -249.667 -134.001 -333s-205.333 -125 -348 -125c-141.333 0 -256.166 41.667 -344.499 125s-132.5 194.333 -132.5 333v897c0 42.667 21.333 64 64 64c43.333 0 65 -21.333 65 -64v-897c0 -103.333 31.5 -185.166 94.5 -245.499
s147.5 -90.5 253.5 -90.5c104.667 0 189.667 30.167 255 90.5s98 142.166 98 245.499v897c0 42.667 21 64 63 64c44 0 66 -21.333 66 -64v-897zM843.999 1726l-200.999 -156.999c-24.667 -19.333 -43 -29 -55 -29c-16.667 0 -31.334 6 -44.001 18s-19 27 -19 45
c0 17.333 13.667 36.666 41 57.999l194 153c28 22 48.667 33 62 33c15.333 0 29.333 -5.83301 42 -17.5s19 -26.167 19 -43.5s-13 -37.333 -39 -60z" />
    <glyph glyph-name="Ucircumflex" unicode="&#xdb;" horiz-adv-x="1319" 
d="M1139 438c0 -138.667 -44.668 -249.667 -134.001 -333s-205.333 -125 -348 -125c-141.333 0 -256.166 41.667 -344.499 125s-132.5 194.333 -132.5 333v897c0 42.667 21.333 64 64 64c43.333 0 65 -21.333 65 -64v-897c0 -103.333 31.5 -185.166 94.5 -245.499
s147.5 -90.5 253.5 -90.5c104.667 0 189.667 30.167 255 90.5s98 142.166 98 245.499v897c0 42.667 21 64 63 64c44 0 66 -21.333 66 -64v-897zM669.999 1681l-187.998 -123.002c-20.667 -13.333 -38 -20 -52 -20c-12 0 -23.167 4.66699 -33.5 14s-15.5 22.333 -15.5 39
c0 12.667 3.16699 23.334 9.5 32.001s18.166 18.667 35.499 30l179 116c26 16.667 47.667 25 65 25c18 0 40 -8.33301 66 -25l172 -110c34 -22 51 -43.333 51 -64c0 -15.333 -4.83301 -28.666 -14.5 -39.999s-21.167 -17 -34.5 -17c-12.667 0 -26.334 4.66699 -41.001 14z
" />
    <glyph glyph-name="Udieresis" unicode="&#xdc;" horiz-adv-x="1319" 
d="M1139 438c0 -138.667 -44.668 -249.667 -134.001 -333s-205.333 -125 -348 -125c-141.333 0 -256.166 41.667 -344.499 125s-132.5 194.333 -132.5 333v897c0 42.667 21.333 64 64 64c43.333 0 65 -21.333 65 -64v-897c0 -103.333 31.5 -185.166 94.5 -245.499
s147.5 -90.5 253.5 -90.5c104.667 0 189.667 30.167 255 90.5s98 142.166 98 245.499v897c0 42.667 21 64 63 64c44 0 66 -21.333 66 -64v-897zM843.999 1540c-23.333 0 -43.5 8.5 -60.5 25.5s-25.5 37.167 -25.5 60.5s8.5 43.5 25.5 60.5s37.167 25.5 60.5 25.5
c24.667 0 45.167 -8.16699 61.5 -24.5s24.5 -36.833 24.5 -61.5s-8.16699 -45.167 -24.5 -61.5s-36.833 -24.5 -61.5 -24.5zM480.999 1540c-23.333 0 -43.5 8.5 -60.5 25.5s-25.5 37.167 -25.5 60.5s8.5 43.5 25.5 60.5s37.167 25.5 60.5 25.5
c24.667 0 45.167 -8.16699 61.5 -24.5s24.5 -36.833 24.5 -61.5s-8.16699 -45.167 -24.5 -61.5s-36.833 -24.5 -61.5 -24.5z" />
    <glyph glyph-name="Yacute" unicode="&#xdd;" horiz-adv-x="1028" 
d="M565 547l0.00195312 -490.002c0 -42 -21 -63 -63 -63c-44 0 -66 21 -66 63v488c-106 100.667 -197 229.334 -273 386.001s-114 292 -114 406c0 41.333 22 62 66 62c42 0 63 -21.333 63 -64c0 -98 30.167 -211.667 90.5 -341s137.5 -243.666 231.5 -342.999
c94.667 96 175.667 212 243 348s103 248.667 107 338c1.33301 23.333 7.16602 39.5 17.499 48.5s26.166 13.5 47.499 13.5c42.667 0 64 -22 64 -66c0 -99.333 -41.5 -229.5 -124.5 -390.5s-179.5 -292.833 -289.5 -395.5zM706.002 1726l-200.999 -156.999
c-24.667 -19.333 -43 -29 -55 -29c-16.667 0 -31.334 6 -44.001 18s-19 27 -19 45c0 17.333 13.667 36.666 41 57.999l194 153c28 22 48.667 33 62 33c15.333 0 29.333 -5.83301 42 -17.5s19 -26.167 19 -43.5s-13 -37.333 -39 -60z" />
    <glyph glyph-name="Thorn" unicode="&#xde;" horiz-adv-x="1108" 
d="M313 59c0 -43.333 -21.668 -65 -65.001 -65c-42.667 0 -64 21.667 -64 65v1276c0 42.667 21.333 64 64 64c43.333 0 65 -21.333 65 -64v-229h283c141.333 0 248.333 -34.833 321 -104.5s109 -171.5 109 -305.5c0 -122 -40.167 -219 -120.5 -291
s-188.166 -108 -323.499 -108h-269v-238zM312.999 424h279.001c95.333 0 170 23.833 224 71.5s81 114.5 81 200.5c0 96.667 -23.833 168 -71.5 214s-124.834 69 -231.501 69h-281v-555z" />
    <glyph glyph-name="germandbls" unicode="&#xdf;" horiz-adv-x="1059" 
d="M692 803c101.333 -22.667 179.333 -69.335 234 -140.002s82 -159.334 82 -266.001c0 -125.333 -40.167 -226.166 -120.5 -302.499s-180.166 -114.5 -299.499 -114.5c-54.667 0 -98 6.16699 -130 18.5s-48 30.833 -48 55.5c0 12 4.66699 26.5 14 43.5
s22.666 25.5 39.999 25.5c8.66699 0 18.667 -2 30 -6c32 -11.333 60 -17 84 -17c96 0 170.5 26.167 223.5 78.5s79.5 126.5 79.5 222.5c0 84.667 -25.5 154.834 -76.5 210.501s-121.167 90.834 -210.5 105.501c-41.333 6 -62 27.667 -62 65c0 33.333 13.667 55.333 41 66
c74 29.333 129.5 69.166 166.5 119.499s55.5 111.5 55.5 183.5c0 80.667 -22.667 144.834 -68 192.501s-104.666 71.5 -177.999 71.5c-88.667 0 -155.834 -27.833 -201.501 -83.5s-68.5 -132.167 -68.5 -229.5v-1043c0 -43.333 -21.333 -65 -64 -65c-42 0 -63 21.667 -63 65
v1053c0 127.333 34.667 229.833 104 307.5s167 116.5 293 116.5c113.333 0 203.833 -34.833 271.5 -104.5s101.5 -162.5 101.5 -278.5c0 -76 -21.167 -146.5 -63.5 -211.5s-97.833 -111.167 -166.5 -138.5z" />
    <glyph glyph-name="agrave" unicode="&#xe0;" 
d="M965 57c0 -42 -21.3311 -63 -63.998 -63c-42 0 -63 21 -63 63v99c-34.667 -58.667 -78.334 -102.667 -131.001 -132s-114.334 -44 -185.001 -44c-134.667 0 -240 49.667 -316 149s-114 231 -114 395c0 161.333 38.833 291.833 116.5 391.5s187.167 149.5 328.5 149.5
c67.333 0 126 -13.5 176 -40.5s91.667 -67.5 125 -121.5v86c0 41.333 21 62 63 62c42.667 0 64 -20.667 64 -62v-932zM838.002 623c0 94.667 -27.999 171.832 -83.999 231.499s-127 89.5 -213 89.5c-101.333 0 -180.333 -39.667 -237 -119s-85 -179.666 -85 -300.999
c0 -131.333 27 -234.833 81 -310.5s134.333 -113.5 241 -113.5c87.333 0 158.666 29.833 213.999 89.5s83 136.5 83 230.5v203zM561.003 1262l-197.999 157c-27.333 22 -41 42 -41 60c0 17.333 6 31.833 18 43.5s26.333 17.5 43 17.5c15.333 0 33.666 -9.66699 54.999 -29
l203 -157c26 -20 39 -39.333 39 -58c0 -14 -6 -28 -18 -42s-25.667 -21 -41 -21c-13.333 0 -33.333 9.66699 -60 29z" />
    <glyph glyph-name="aacute" unicode="&#xe1;" 
d="M965 57c0 -42 -21.3311 -63 -63.998 -63c-42 0 -63 21 -63 63v99c-34.667 -58.667 -78.334 -102.667 -131.001 -132s-114.334 -44 -185.001 -44c-134.667 0 -240 49.667 -316 149s-114 231 -114 395c0 161.333 38.833 291.833 116.5 391.5s187.167 149.5 328.5 149.5
c67.333 0 126 -13.5 176 -40.5s91.667 -67.5 125 -121.5v86c0 41.333 21 62 63 62c42.667 0 64 -20.667 64 -62v-932zM838.002 623c0 94.667 -27.999 171.832 -83.999 231.499s-127 89.5 -213 89.5c-101.333 0 -180.333 -39.667 -237 -119s-85 -179.666 -85 -300.999
c0 -131.333 27 -234.833 81 -310.5s134.333 -113.5 241 -113.5c87.333 0 158.666 29.833 213.999 89.5s83 136.5 83 230.5v203zM760.003 1419l-200.999 -156.999c-24.667 -19.333 -43 -29 -55 -29c-16.667 0 -31.334 6 -44.001 18s-19 27 -19 45
c0 17.333 13.667 36.666 41 57.999l194 153c28 22 48.667 33 62 33c15.333 0 29.333 -5.83301 42 -17.5s19 -26.167 19 -43.5s-13 -37.333 -39 -60z" />
    <glyph glyph-name="acircumflex" unicode="&#xe2;" 
d="M965 57c0 -42 -21.3311 -63 -63.998 -63c-42 0 -63 21 -63 63v99c-34.667 -58.667 -78.334 -102.667 -131.001 -132s-114.334 -44 -185.001 -44c-134.667 0 -240 49.667 -316 149s-114 231 -114 395c0 161.333 38.833 291.833 116.5 391.5s187.167 149.5 328.5 149.5
c67.333 0 126 -13.5 176 -40.5s91.667 -67.5 125 -121.5v86c0 41.333 21 62 63 62c42.667 0 64 -20.667 64 -62v-932zM838.002 623c0 94.667 -27.999 171.832 -83.999 231.499s-127 89.5 -213 89.5c-101.333 0 -180.333 -39.667 -237 -119s-85 -179.666 -85 -300.999
c0 -131.333 27 -234.833 81 -310.5s134.333 -113.5 241 -113.5c87.333 0 158.666 29.833 213.999 89.5s83 136.5 83 230.5v203zM541.003 1374l-187.998 -123.002c-20.667 -13.333 -38 -20 -52 -20c-12 0 -23.167 4.66699 -33.5 14s-15.5 22.333 -15.5 39
c0 12.667 3.16699 23.334 9.5 32.001s18.166 18.667 35.499 30l179 116c26 16.667 47.667 25 65 25c18 0 40 -8.33301 66 -25l172 -110c34 -22 51 -43.333 51 -64c0 -15.333 -4.83301 -28.666 -14.5 -39.999s-21.167 -17 -34.5 -17c-12.667 0 -26.334 4.66699 -41.001 14z
" />
    <glyph glyph-name="atilde" unicode="&#xe3;" 
d="M965 57c0 -42 -21.3311 -63 -63.998 -63c-42 0 -63 21 -63 63v99c-34.667 -58.667 -78.334 -102.667 -131.001 -132s-114.334 -44 -185.001 -44c-134.667 0 -240 49.667 -316 149s-114 231 -114 395c0 161.333 38.833 291.833 116.5 391.5s187.167 149.5 328.5 149.5
c67.333 0 126 -13.5 176 -40.5s91.667 -67.5 125 -121.5v86c0 41.333 21 62 63 62c42.667 0 64 -20.667 64 -62v-932zM838.002 623c0 94.667 -27.999 171.832 -83.999 231.499s-127 89.5 -213 89.5c-101.333 0 -180.333 -39.667 -237 -119s-85 -179.666 -85 -300.999
c0 -131.333 27 -234.833 81 -310.5s134.333 -113.5 241 -113.5c87.333 0 158.666 29.833 213.999 89.5s83 136.5 83 230.5v203zM674.003 1233c-27.333 0 -67 10.333 -119 31c-52.667 20 -91.334 30 -116.001 30c-22.667 0 -45 -10 -67 -30
c-22.667 -20.667 -40.667 -31 -54 -31c-15.333 0 -29.166 4.83301 -41.499 14.5s-18.5 23.167 -18.5 40.5c0 24.667 19.167 51 57.5 79s77.166 42 116.499 42c29.333 0 69.333 -10 120 -30c50 -20.667 89.333 -31 118 -31c21.333 0 43.333 10.333 66 31
c22.667 20 40.334 30 53.001 30c16.667 0 30.667 -4.83301 42 -14.5s17 -23.167 17 -40.5c0 -24.667 -19 -51 -57 -79s-77 -42 -117 -42z" />
    <glyph glyph-name="adieresis" unicode="&#xe4;" 
d="M965 57c0 -42 -21.3311 -63 -63.998 -63c-42 0 -63 21 -63 63v99c-34.667 -58.667 -78.334 -102.667 -131.001 -132s-114.334 -44 -185.001 -44c-134.667 0 -240 49.667 -316 149s-114 231 -114 395c0 161.333 38.833 291.833 116.5 391.5s187.167 149.5 328.5 149.5
c67.333 0 126 -13.5 176 -40.5s91.667 -67.5 125 -121.5v86c0 41.333 21 62 63 62c42.667 0 64 -20.667 64 -62v-932zM838.002 623c0 94.667 -27.999 171.832 -83.999 231.499s-127 89.5 -213 89.5c-101.333 0 -180.333 -39.667 -237 -119s-85 -179.666 -85 -300.999
c0 -131.333 27 -234.833 81 -310.5s134.333 -113.5 241 -113.5c87.333 0 158.666 29.833 213.999 89.5s83 136.5 83 230.5v203zM738.003 1233c-23.333 0 -43.5 8.5 -60.5 25.5s-25.5 37.167 -25.5 60.5s8.5 43.5 25.5 60.5s37.167 25.5 60.5 25.5
c24.667 0 45.167 -8.16699 61.5 -24.5s24.5 -36.833 24.5 -61.5s-8.16699 -45.167 -24.5 -61.5s-36.833 -24.5 -61.5 -24.5zM375.003 1233c-23.333 0 -43.5 8.5 -60.5 25.5s-25.5 37.167 -25.5 60.5s8.5 43.5 25.5 60.5s37.167 25.5 60.5 25.5
c24.667 0 45.167 -8.16699 61.5 -24.5s24.5 -36.833 24.5 -61.5s-8.16699 -45.167 -24.5 -61.5s-36.833 -24.5 -61.5 -24.5z" />
    <glyph glyph-name="aring" unicode="&#xe5;" 
d="M965 57c0 -42 -21.3311 -63 -63.998 -63c-42 0 -63 21 -63 63v99c-34.667 -58.667 -78.334 -102.667 -131.001 -132s-114.334 -44 -185.001 -44c-134.667 0 -240 49.667 -316 149s-114 231 -114 395c0 161.333 38.833 291.833 116.5 391.5s187.167 149.5 328.5 149.5
c67.333 0 126 -13.5 176 -40.5s91.667 -67.5 125 -121.5v86c0 41.333 21 62 63 62c42.667 0 64 -20.667 64 -62v-932zM838.002 623c0 94.667 -27.999 171.832 -83.999 231.499s-127 89.5 -213 89.5c-101.333 0 -180.333 -39.667 -237 -119s-85 -179.666 -85 -300.999
c0 -131.333 27 -234.833 81 -310.5s134.333 -113.5 241 -113.5c87.333 0 158.666 29.833 213.999 89.5s83 136.5 83 230.5v203zM564.003 1238c-50 0 -93.333 17.833 -130 53.5s-55 79.5 -55 131.5c0 52.667 18.333 96.667 55 132s80 53 130 53s93.333 -17.667 130 -53
s55 -79.333 55 -132c0 -52 -18.5 -95.833 -55.5 -131.5s-80.167 -53.5 -129.5 -53.5zM564.003 1533c-30.667 0 -56.667 -10.167 -78 -30.5s-32 -46.833 -32 -79.5c0 -32 10.667 -58.333 32 -79s47.333 -31 78 -31c30 0 55.833 10.333 77.5 31s32.5 47 32.5 79
s-10.833 58.333 -32.5 79s-47.5 31 -77.5 31z" />
    <glyph glyph-name="ae" unicode="&#xe6;" horiz-adv-x="1731" 
d="M862 836c44 76 97.6699 133.167 161.003 171.5s136 57.5 218 57.5c122.667 0 220.667 -41 294 -123s110 -191.333 110 -328c0 -36 -8.5 -64.333 -25.5 -85s-40.833 -31 -71.5 -31h-639c0 -118.667 31.667 -214.667 95 -288s145 -110 245 -110c89.333 0 177.333 29 264 87
c6 4 13.667 6 23 6c17.333 0 31.166 -7.16699 41.499 -21.5s15.5 -29.833 15.5 -46.5c0 -27.333 -35.333 -58.333 -106 -93s-150.667 -52 -240 -52c-96.667 0 -179 22.833 -247 68.5s-122 114.167 -162 205.5c-45.333 -91.333 -105.333 -159.833 -180 -205.5
s-156.667 -68.5 -246 -68.5c-106.667 0 -189.667 29.167 -249 87.5s-89 125.833 -89 202.5c0 128 54 220.833 162 278.5s290 86.5 546 86.5v31c0 76 -24 141.333 -72 196s-116.667 82 -206 82c-88.667 0 -174 -28.667 -256 -86c-29.333 -20.667 -50 -31 -62 -31
s-23.833 5 -35.5 15s-17.5 24.333 -17.5 43c0 15.333 5.16699 29.5 15.5 42.5s36.166 32.167 77.499 57.5s86.166 45 134.499 59s95.5 21 141.5 21c92 0 168 -19.167 228 -57.5s104 -95.5 132 -171.5zM1518 616c0 95.333 -25.165 173.833 -75.498 235.5
s-118.833 92.5 -205.5 92.5c-90.667 0 -166.334 -30.167 -227.001 -90.5s-94.334 -139.5 -101.001 -237.5h609zM782.005 516c-192.667 0 -337.668 -17.332 -435.001 -51.999s-146 -97.334 -146 -188.001c0 -48.667 18.833 -90.167 56.5 -124.5s90.5 -51.5 158.5 -51.5
c102.667 0 189.334 40.833 260.001 122.5s106 179.5 106 293.5z" />
    <glyph glyph-name="ccedilla" unicode="&#xe7;" horiz-adv-x="987" 
d="M905 899c0 -16.667 -6 -31.333 -18 -44s-26.333 -19 -43 -19c-12 0 -30.667 9.33301 -56 28c-44 32 -83.333 53.333 -118 64s-71 16 -109 16c-102 0 -184.5 -38 -247.5 -114s-94.5 -178.667 -94.5 -308s30.5 -232 91.5 -308s142.5 -114 244.5 -114
c82.667 0 161.334 28.667 236.001 86c25.333 19.333 44.333 29 57 29c17.333 0 31.5 -7 42.5 -21s16.5 -28.667 16.5 -44c0 -31.333 -34 -65.833 -102 -103.5s-139 -59.167 -213 -64.5l-43 -84c14.667 2.66699 30.334 4 47.001 4c43.333 0 75.666 -12 96.999 -36
s32 -54.333 32 -91c0 -47.333 -16.667 -85.5 -50 -114.5s-81 -43.5 -143 -43.5c-45.333 0 -80.5 7 -105.5 21s-37.5 29.667 -37.5 47c0 12 3.66699 22.167 11 30.5s16 12.5 26 12.5c9.33301 0 16.666 -1.33301 21.999 -4c30.667 -15.333 61.667 -23 93 -23
c27.333 0 47.833 5.5 61.5 16.5s20.5 27.5 20.5 49.5c0 20.667 -6.66699 36 -20 46s-33.333 15 -60 15c-13.333 0 -26.333 -0.666992 -39 -2s-23.667 -2 -33 -2c-20.667 0 -31 9.66699 -31 29c0 10.667 4.33301 23.334 13 38.001l47 93
c-126 11.333 -225.5 65.833 -298.5 163.5s-109.5 222.5 -109.5 374.5c0 163.333 44.5 294.666 133.5 393.999s202.167 149 339.5 149c94 0 174.167 -19.667 240.5 -59s99.5 -75 99.5 -107z" />
    <glyph glyph-name="egrave" unicode="&#xe8;" horiz-adv-x="1042" 
d="M221 483c0 -111.333 32.001 -203.002 96.001 -275.002s145.333 -108 244 -108c42 0 84.667 6.83301 128 20.5s80.666 30.834 111.999 51.501c21.333 14 37 21 47 21c16 0 29.5 -7 40.5 -21s16.5 -29 16.5 -45c0 -30 -35.833 -62 -107.5 -96s-151.167 -51 -238.5 -51
c-143.333 0 -257 48.333 -341 145s-126 225.667 -126 387c0 160 41.333 292.167 124 396.5s195 156.5 337 156.5c125.333 0 223.833 -42.167 295.5 -126.5s107.5 -197.166 107.5 -338.499c0 -38 -8.5 -67 -25.5 -87s-40.5 -30 -70.5 -30h-639zM829.001 601.998
c0 101.333 -24.833 183.666 -74.5 246.999s-118.167 95 -205.5 95c-91.333 0 -166.333 -31.167 -225 -93.5s-91.667 -145.166 -99 -248.499h604zM551.001 1261l-197.999 157c-27.333 22 -41 42 -41 60c0 17.333 6 31.833 18 43.5s26.333 17.5 43 17.5
c15.333 0 33.666 -9.66699 54.999 -29l203 -157c26 -20 39 -39.333 39 -58c0 -14 -6 -28 -18 -42s-25.667 -21 -41 -21c-13.333 0 -33.333 9.66699 -60 29z" />
    <glyph glyph-name="eacute" unicode="&#xe9;" horiz-adv-x="1042" 
d="M221 483c0 -111.333 32.001 -203.002 96.001 -275.002s145.333 -108 244 -108c42 0 84.667 6.83301 128 20.5s80.666 30.834 111.999 51.501c21.333 14 37 21 47 21c16 0 29.5 -7 40.5 -21s16.5 -29 16.5 -45c0 -30 -35.833 -62 -107.5 -96s-151.167 -51 -238.5 -51
c-143.333 0 -257 48.333 -341 145s-126 225.667 -126 387c0 160 41.333 292.167 124 396.5s195 156.5 337 156.5c125.333 0 223.833 -42.167 295.5 -126.5s107.5 -197.166 107.5 -338.499c0 -38 -8.5 -67 -25.5 -87s-40.5 -30 -70.5 -30h-639zM829.001 601.998
c0 101.333 -24.833 183.666 -74.5 246.999s-118.167 95 -205.5 95c-91.333 0 -166.333 -31.167 -225 -93.5s-91.667 -145.166 -99 -248.499h604zM725.001 1419l-200.999 -156.999c-24.667 -19.333 -43 -29 -55 -29c-16.667 0 -31.334 6 -44.001 18s-19 27 -19 45
c0 17.333 13.667 36.666 41 57.999l194 153c28 22 48.667 33 62 33c15.333 0 29.333 -5.83301 42 -17.5s19 -26.167 19 -43.5s-13 -37.333 -39 -60z" />
    <glyph glyph-name="ecircumflex" unicode="&#xea;" horiz-adv-x="1042" 
d="M221 483c0 -111.333 32.001 -203.002 96.001 -275.002s145.333 -108 244 -108c42 0 84.667 6.83301 128 20.5s80.666 30.834 111.999 51.501c21.333 14 37 21 47 21c16 0 29.5 -7 40.5 -21s16.5 -29 16.5 -45c0 -30 -35.833 -62 -107.5 -96s-151.167 -51 -238.5 -51
c-143.333 0 -257 48.333 -341 145s-126 225.667 -126 387c0 160 41.333 292.167 124 396.5s195 156.5 337 156.5c125.333 0 223.833 -42.167 295.5 -126.5s107.5 -197.166 107.5 -338.499c0 -38 -8.5 -67 -25.5 -87s-40.5 -30 -70.5 -30h-639zM829.001 601.998
c0 101.333 -24.833 183.666 -74.5 246.999s-118.167 95 -205.5 95c-91.333 0 -166.333 -31.167 -225 -93.5s-91.667 -145.166 -99 -248.499h604zM545.001 1374l-187.998 -123.002c-20.667 -13.333 -38 -20 -52 -20c-12 0 -23.167 4.66699 -33.5 14s-15.5 22.333 -15.5 39
c0 12.667 3.16699 23.334 9.5 32.001s18.166 18.667 35.499 30l179 116c26 16.667 47.667 25 65 25c18 0 40 -8.33301 66 -25l172 -110c34 -22 51 -43.333 51 -64c0 -15.333 -4.83301 -28.666 -14.5 -39.999s-21.167 -17 -34.5 -17c-12.667 0 -26.334 4.66699 -41.001 14z
" />
    <glyph glyph-name="edieresis" unicode="&#xeb;" horiz-adv-x="1042" 
d="M221 483c0 -111.333 32.001 -203.002 96.001 -275.002s145.333 -108 244 -108c42 0 84.667 6.83301 128 20.5s80.666 30.834 111.999 51.501c21.333 14 37 21 47 21c16 0 29.5 -7 40.5 -21s16.5 -29 16.5 -45c0 -30 -35.833 -62 -107.5 -96s-151.167 -51 -238.5 -51
c-143.333 0 -257 48.333 -341 145s-126 225.667 -126 387c0 160 41.333 292.167 124 396.5s195 156.5 337 156.5c125.333 0 223.833 -42.167 295.5 -126.5s107.5 -197.166 107.5 -338.499c0 -38 -8.5 -67 -25.5 -87s-40.5 -30 -70.5 -30h-639zM829.001 601.998
c0 101.333 -24.833 183.666 -74.5 246.999s-118.167 95 -205.5 95c-91.333 0 -166.333 -31.167 -225 -93.5s-91.667 -145.166 -99 -248.499h604zM717.001 1233c-23.333 0 -43.5 8.5 -60.5 25.5s-25.5 37.167 -25.5 60.5s8.5 43.5 25.5 60.5s37.167 25.5 60.5 25.5
c24.667 0 45.167 -8.16699 61.5 -24.5s24.5 -36.833 24.5 -61.5s-8.16699 -45.167 -24.5 -61.5s-36.833 -24.5 -61.5 -24.5zM354.001 1233c-23.333 0 -43.5 8.5 -60.5 25.5s-25.5 37.167 -25.5 60.5s8.5 43.5 25.5 60.5s37.167 25.5 60.5 25.5
c24.667 0 45.167 -8.16699 61.5 -24.5s24.5 -36.833 24.5 -61.5s-8.16699 -45.167 -24.5 -61.5s-36.833 -24.5 -61.5 -24.5z" />
    <glyph glyph-name="igrave" unicode="&#xec;" horiz-adv-x="430" 
d="M279 57c0 -42 -22 -63 -66 -63c-40.667 0 -61 21 -61 63v932c0 41.333 21 62 63 62c42.667 0 64 -20.667 64 -62v-932zM267 1262l-197.999 157c-27.333 22 -41 42 -41 60c0 17.333 6 31.833 18 43.5s26.333 17.5 43 17.5c15.333 0 33.666 -9.66699 54.999 -29l203 -157
c26 -20 39 -39.333 39 -58c0 -14 -6 -28 -18 -42s-25.667 -21 -41 -21c-13.333 0 -33.333 9.66699 -60 29z" />
    <glyph glyph-name="iacute" unicode="&#xed;" horiz-adv-x="430" 
d="M279 57c0 -42 -22 -63 -66 -63c-40.667 0 -61 21 -61 63v932c0 41.333 21 62 63 62c42.667 0 64 -20.667 64 -62v-932zM393 1419l-200.999 -156.999c-24.667 -19.333 -43 -29 -55 -29c-16.667 0 -31.334 6 -44.001 18s-19 27 -19 45c0 17.333 13.667 36.666 41 57.999
l194 153c28 22 48.667 33 62 33c15.333 0 29.333 -5.83301 42 -17.5s19 -26.167 19 -43.5s-13 -37.333 -39 -60z" />
    <glyph glyph-name="icircumflex" unicode="&#xee;" horiz-adv-x="430" 
d="M279 57c0 -42 -22 -63 -66 -63c-40.667 0 -61 21 -61 63v932c0 41.333 21 62 63 62c42.667 0 64 -20.667 64 -62v-932zM216 1374l-187.998 -123.002c-20.667 -13.333 -38 -20 -52 -20c-12 0 -23.167 4.66699 -33.5 14s-15.5 22.333 -15.5 39
c0 12.667 3.16699 23.334 9.5 32.001s18.166 18.667 35.499 30l179 116c26 16.667 47.667 25 65 25c18 0 40 -8.33301 66 -25l172 -110c34 -22 51 -43.333 51 -64c0 -15.333 -4.83301 -28.666 -14.5 -39.999s-21.167 -17 -34.5 -17c-12.667 0 -26.334 4.66699 -41.001 14z
" />
    <glyph glyph-name="idieresis" unicode="&#xef;" horiz-adv-x="430" 
d="M279 57c0 -42 -22 -63 -66 -63c-40.667 0 -61 21 -61 63v932c0 41.333 21 62 63 62c42.667 0 64 -20.667 64 -62v-932zM409 1233c-23.333 0 -43.5 8.5 -60.5 25.5s-25.5 37.167 -25.5 60.5s8.5 43.5 25.5 60.5s37.167 25.5 60.5 25.5
c24.667 0 45.167 -8.16699 61.5 -24.5s24.5 -36.833 24.5 -61.5s-8.16699 -45.167 -24.5 -61.5s-36.833 -24.5 -61.5 -24.5zM46 1233c-23.333 0 -43.5 8.5 -60.5 25.5s-25.5 37.167 -25.5 60.5s8.5 43.5 25.5 60.5s37.167 25.5 60.5 25.5
c24.667 0 45.167 -8.16699 61.5 -24.5s24.5 -36.833 24.5 -61.5s-8.16699 -45.167 -24.5 -61.5s-36.833 -24.5 -61.5 -24.5z" />
    <glyph glyph-name="eth" unicode="&#xf0;" horiz-adv-x="1100" 
d="M618 1341c130 -102.667 227.502 -221.998 292.502 -357.998s97.5 -288.333 97.5 -457c0 -168 -42.833 -301 -128.5 -399s-195.834 -147 -330.501 -147s-244.5 49 -329.5 147s-127.5 222.333 -127.5 373c0 162 41.833 291.167 125.5 387.5s190.167 144.5 319.5 144.5
c97.333 0 181 -28 251 -84c-35.333 65.333 -75.833 124.666 -121.5 177.999s-96.5 100.666 -152.5 141.999l-158 -111c-17.333 -12 -32.333 -18 -45 -18c-11.333 0 -23 7 -35 21s-18 27.333 -18 40c0 19.333 11 35.666 33 48.999l127 86c-24 17.333 -76.667 43.333 -158 78
c-31.333 12 -47 28.333 -47 49c0 19.333 5.16699 36.5 15.5 51.5s24.166 22.5 41.499 22.5c18.667 0 52 -11.167 100 -33.5s99.333 -52.166 154 -89.499l148 103c17.333 12 32.333 18 45 18c14 0 26.333 -7.66699 37 -23s16 -28 16 -38c0 -15.333 -11.667 -32 -35 -50z
M551.002 911.002c-104 0 -185.333 -36.168 -244 -108.501s-88 -173.166 -88 -302.499c0 -122 31.5 -219.167 94.5 -291.5s141.5 -108.5 235.5 -108.5c92 0 170.333 35.167 235 105.5s97 173.833 97 310.5c0 125.333 -27.5 222.5 -82.5 291.5s-137.5 103.5 -247.5 103.5z" />
    <glyph glyph-name="ntilde" unicode="&#xf1;" horiz-adv-x="1114" 
d="M967 57c0 -42 -20.667 -63 -62 -63c-43.333 0 -65 21 -65 63v602c0 92.667 -21 163.334 -63 212.001s-103.667 73 -185 73c-92 0 -167.167 -32.667 -225.5 -98s-87.5 -154 -87.5 -266v-523c0 -42 -21.333 -63 -64 -63c-42 0 -63 21 -63 63v930c0 42.667 21 64 63 64
c42.667 0 64 -21.333 64 -64v-108c32 57.333 77.167 102.666 135.5 135.999s122.833 50 193.5 50c116.667 0 205.667 -33.167 267 -99.5s92 -156.833 92 -271.5v-637zM674 1233c-27.333 0 -67 10.333 -119 31c-52.667 20 -91.334 30 -116.001 30c-22.667 0 -45 -10 -67 -30
c-22.667 -20.667 -40.667 -31 -54 -31c-15.333 0 -29.166 4.83301 -41.499 14.5s-18.5 23.167 -18.5 40.5c0 24.667 19.167 51 57.5 79s77.166 42 116.499 42c29.333 0 69.333 -10 120 -30c50 -20.667 89.333 -31 118 -31c21.333 0 43.333 10.333 66 31
c22.667 20 40.334 30 53.001 30c16.667 0 30.667 -4.83301 42 -14.5s17 -23.167 17 -40.5c0 -24.667 -19 -51 -57 -79s-77 -42 -117 -42z" />
    <glyph glyph-name="ograve" unicode="&#xf2;" horiz-adv-x="1100" 
d="M549 -20c-134 0 -243.665 48.832 -328.998 146.499s-128 229.5 -128 395.5c0 172.667 42.667 306.334 128 401.001s195 142 329 142c135.333 0 245.666 -48 330.999 -144s128 -229 128 -399c0 -165.333 -42.833 -297 -128.5 -395s-195.834 -147 -330.501 -147z
M549.002 943.999c-93.333 0 -171.666 -35 -234.999 -105s-95 -175.667 -95 -317c0 -140 33.167 -245.333 99.5 -316s143.166 -106 230.499 -106c88 0 165.333 35.333 232 106s100 176 100 316c0 138.667 -31.167 243.667 -93.5 315s-141.833 107 -238.5 107zM594.002 1262
l-197.999 157c-27.333 22 -41 42 -41 60c0 17.333 6 31.833 18 43.5s26.333 17.5 43 17.5c15.333 0 33.666 -9.66699 54.999 -29l203 -157c26 -20 39 -39.333 39 -58c0 -14 -6 -28 -18 -42s-25.667 -21 -41 -21c-13.333 0 -33.333 9.66699 -60 29z" />
    <glyph glyph-name="oacute" unicode="&#xf3;" horiz-adv-x="1100" 
d="M549 -20c-134 0 -243.665 48.832 -328.998 146.499s-128 229.5 -128 395.5c0 172.667 42.667 306.334 128 401.001s195 142 329 142c135.333 0 245.666 -48 330.999 -144s128 -229 128 -399c0 -165.333 -42.833 -297 -128.5 -395s-195.834 -147 -330.501 -147z
M549.002 943.999c-93.333 0 -171.666 -35 -234.999 -105s-95 -175.667 -95 -317c0 -140 33.167 -245.333 99.5 -316s143.166 -106 230.499 -106c88 0 165.333 35.333 232 106s100 176 100 316c0 138.667 -31.167 243.667 -93.5 315s-141.833 107 -238.5 107zM719.002 1419
l-200.999 -156.999c-24.667 -19.333 -43 -29 -55 -29c-16.667 0 -31.334 6 -44.001 18s-19 27 -19 45c0 17.333 13.667 36.666 41 57.999l194 153c28 22 48.667 33 62 33c15.333 0 29.333 -5.83301 42 -17.5s19 -26.167 19 -43.5s-13 -37.333 -39 -60z" />
    <glyph glyph-name="ocircumflex" unicode="&#xf4;" horiz-adv-x="1100" 
d="M549 -20c-134 0 -243.665 48.832 -328.998 146.499s-128 229.5 -128 395.5c0 172.667 42.667 306.334 128 401.001s195 142 329 142c135.333 0 245.666 -48 330.999 -144s128 -229 128 -399c0 -165.333 -42.833 -297 -128.5 -395s-195.834 -147 -330.501 -147z
M549.002 943.999c-93.333 0 -171.666 -35 -234.999 -105s-95 -175.667 -95 -317c0 -140 33.167 -245.333 99.5 -316s143.166 -106 230.499 -106c88 0 165.333 35.333 232 106s100 176 100 316c0 138.667 -31.167 243.667 -93.5 315s-141.833 107 -238.5 107zM537.002 1374
l-187.998 -123.002c-20.667 -13.333 -38 -20 -52 -20c-12 0 -23.167 4.66699 -33.5 14s-15.5 22.333 -15.5 39c0 12.667 3.16699 23.334 9.5 32.001s18.166 18.667 35.499 30l179 116c26 16.667 47.667 25 65 25c18 0 40 -8.33301 66 -25l172 -110c34 -22 51 -43.333 51 -64
c0 -15.333 -4.83301 -28.666 -14.5 -39.999s-21.167 -17 -34.5 -17c-12.667 0 -26.334 4.66699 -41.001 14z" />
    <glyph glyph-name="otilde" unicode="&#xf5;" horiz-adv-x="1100" 
d="M549 -20c-134 0 -243.665 48.832 -328.998 146.499s-128 229.5 -128 395.5c0 172.667 42.667 306.334 128 401.001s195 142 329 142c135.333 0 245.666 -48 330.999 -144s128 -229 128 -399c0 -165.333 -42.833 -297 -128.5 -395s-195.834 -147 -330.501 -147z
M549.002 943.999c-93.333 0 -171.666 -35 -234.999 -105s-95 -175.667 -95 -317c0 -140 33.167 -245.333 99.5 -316s143.166 -106 230.499 -106c88 0 165.333 35.333 232 106s100 176 100 316c0 138.667 -31.167 243.667 -93.5 315s-141.833 107 -238.5 107zM659.002 1233
c-27.333 0 -67 10.333 -119 31c-52.667 20 -91.334 30 -116.001 30c-22.667 0 -45 -10 -67 -30c-22.667 -20.667 -40.667 -31 -54 -31c-15.333 0 -29.166 4.83301 -41.499 14.5s-18.5 23.167 -18.5 40.5c0 24.667 19.167 51 57.5 79s77.166 42 116.499 42
c29.333 0 69.333 -10 120 -30c50 -20.667 89.333 -31 118 -31c21.333 0 43.333 10.333 66 31c22.667 20 40.334 30 53.001 30c16.667 0 30.667 -4.83301 42 -14.5s17 -23.167 17 -40.5c0 -24.667 -19 -51 -57 -79s-77 -42 -117 -42z" />
    <glyph glyph-name="odieresis" unicode="&#xf6;" horiz-adv-x="1100" 
d="M549 -20c-134 0 -243.665 48.832 -328.998 146.499s-128 229.5 -128 395.5c0 172.667 42.667 306.334 128 401.001s195 142 329 142c135.333 0 245.666 -48 330.999 -144s128 -229 128 -399c0 -165.333 -42.833 -297 -128.5 -395s-195.834 -147 -330.501 -147z
M549.002 943.999c-93.333 0 -171.666 -35 -234.999 -105s-95 -175.667 -95 -317c0 -140 33.167 -245.333 99.5 -316s143.166 -106 230.499 -106c88 0 165.333 35.333 232 106s100 176 100 316c0 138.667 -31.167 243.667 -93.5 315s-141.833 107 -238.5 107zM721.002 1233
c-23.333 0 -43.5 8.5 -60.5 25.5s-25.5 37.167 -25.5 60.5s8.5 43.5 25.5 60.5s37.167 25.5 60.5 25.5c24.667 0 45.167 -8.16699 61.5 -24.5s24.5 -36.833 24.5 -61.5s-8.16699 -45.167 -24.5 -61.5s-36.833 -24.5 -61.5 -24.5zM358.002 1233
c-23.333 0 -43.5 8.5 -60.5 25.5s-25.5 37.167 -25.5 60.5s8.5 43.5 25.5 60.5s37.167 25.5 60.5 25.5c24.667 0 45.167 -8.16699 61.5 -24.5s24.5 -36.833 24.5 -61.5s-8.16699 -45.167 -24.5 -61.5s-36.833 -24.5 -61.5 -24.5z" />
    <glyph glyph-name="divide" unicode="&#xf7;" horiz-adv-x="1085" 
d="M543 763c-24.667 0 -45.834 8.50098 -63.501 25.501s-26.5 37.833 -26.5 62.5c0 26 9 47.5 27 64.5s39 25.5 63 25.5c24.667 0 45.834 -8.83301 63.501 -26.5s26.5 -38.834 26.5 -63.501s-9 -45.5 -27 -62.5s-39 -25.5 -63 -25.5zM963 460.001h-840c-44 0 -66 19 -66 57
s22 57 66 57h840c43.333 0 65 -19 65 -57s-21.667 -57 -65 -57zM543 93.001c-24.667 0 -45.834 8.50098 -63.501 25.501s-26.5 37.833 -26.5 62.5c0 26 9 47.5 27 64.5s39 25.5 63 25.5c24.667 0 45.834 -8.83301 63.501 -26.5s26.5 -38.834 26.5 -63.501
s-9 -45.5 -27 -62.5s-39 -25.5 -63 -25.5z" />
    <glyph glyph-name="oslash" unicode="&#xf8;" horiz-adv-x="1100" 
d="M209 -51c-17.333 -24.667 -32.998 -37.0029 -46.998 -37.0029c-8.66699 0 -18.667 4 -30 12c-17.333 13.333 -26 26.333 -26 39c0 10.667 5.66699 24.334 17 41.001l90 129c-40.667 48 -71 104.5 -91 169.5s-30 138.167 -30 219.5c0 172.667 42.667 306.334 128 401.001
s195 142 329 142c98.667 0 185.334 -26.667 260.001 -80l80 113c15.333 21.333 31.666 32 48.999 32c11.333 0 23.333 -5.33301 36 -16s19 -21.667 19 -33s-5.33301 -24.333 -16 -39l-90 -129c40 -48.667 70.167 -105.667 90.5 -171s30.5 -138.666 30.5 -219.999
c0 -165.333 -42.833 -297 -128.5 -395s-195.834 -147 -330.501 -147c-102.667 0 -189.334 27 -260.001 81zM289.002 241.997l447.999 641c-54 40.667 -116.667 61 -188 61c-93.333 0 -171.666 -35 -234.999 -105s-95 -175.667 -95 -317c0 -60 5.83301 -113.333 17.5 -160
s29.167 -86.667 52.5 -120zM811.001 804.997l-451 -641c56.667 -42.667 119.667 -64 189 -64c90 0 167.833 35.5 233.5 106.5s98.5 176.167 98.5 315.5c0 58 -5.83301 110.5 -17.5 157.5s-29.167 88.833 -52.5 125.5z" />
    <glyph glyph-name="ugrave" unicode="&#xf9;" horiz-adv-x="1114" 
d="M963 57c0 -42 -21.3311 -62.999 -63.998 -62.999c-42 0 -63 21 -63 63v109c-36.667 -62 -82.834 -108.5 -138.501 -139.5s-120.834 -46.5 -195.501 -46.5c-113.333 0 -200.833 34.667 -262.5 104s-92.5 163.666 -92.5 282.999v620c0 42.667 20.667 64 62 64
c43.333 0 65 -21.333 65 -64v-612c0 -83.333 21.5 -150 64.5 -200s103.5 -75 181.5 -75c98 0 175.167 32.833 231.5 98.5s84.5 152.5 84.5 260.5v528c0 42.667 21 64 63 64c42.667 0 64 -21.333 64 -64v-930zM565.002 1262l-197.999 157c-27.333 22 -41 42 -41 60
c0 17.333 6 31.833 18 43.5s26.333 17.5 43 17.5c15.333 0 33.666 -9.66699 54.999 -29l203 -157c26 -20 39 -39.333 39 -58c0 -14 -6 -28 -18 -42s-25.667 -21 -41 -21c-13.333 0 -33.333 9.66699 -60 29z" />
    <glyph glyph-name="uacute" unicode="&#xfa;" horiz-adv-x="1114" 
d="M963 57c0 -42 -21.3311 -62.999 -63.998 -62.999c-42 0 -63 21 -63 63v109c-36.667 -62 -82.834 -108.5 -138.501 -139.5s-120.834 -46.5 -195.501 -46.5c-113.333 0 -200.833 34.667 -262.5 104s-92.5 163.666 -92.5 282.999v620c0 42.667 20.667 64 62 64
c43.333 0 65 -21.333 65 -64v-612c0 -83.333 21.5 -150 64.5 -200s103.5 -75 181.5 -75c98 0 175.167 32.833 231.5 98.5s84.5 152.5 84.5 260.5v528c0 42.667 21 64 63 64c42.667 0 64 -21.333 64 -64v-930zM758.002 1419l-200.999 -156.999
c-24.667 -19.333 -43 -29 -55 -29c-16.667 0 -31.334 6 -44.001 18s-19 27 -19 45c0 17.333 13.667 36.666 41 57.999l194 153c28 22 48.667 33 62 33c15.333 0 29.333 -5.83301 42 -17.5s19 -26.167 19 -43.5s-13 -37.333 -39 -60z" />
    <glyph glyph-name="ucircumflex" unicode="&#xfb;" horiz-adv-x="1114" 
d="M963 57c0 -42 -21.3311 -62.999 -63.998 -62.999c-42 0 -63 21 -63 63v109c-36.667 -62 -82.834 -108.5 -138.501 -139.5s-120.834 -46.5 -195.501 -46.5c-113.333 0 -200.833 34.667 -262.5 104s-92.5 163.666 -92.5 282.999v620c0 42.667 20.667 64 62 64
c43.333 0 65 -21.333 65 -64v-612c0 -83.333 21.5 -150 64.5 -200s103.5 -75 181.5 -75c98 0 175.167 32.833 231.5 98.5s84.5 152.5 84.5 260.5v528c0 42.667 21 64 63 64c42.667 0 64 -21.333 64 -64v-930zM551.002 1374l-187.998 -123.002
c-20.667 -13.333 -38 -20 -52 -20c-12 0 -23.167 4.66699 -33.5 14s-15.5 22.333 -15.5 39c0 12.667 3.16699 23.334 9.5 32.001s18.166 18.667 35.499 30l179 116c26 16.667 47.667 25 65 25c18 0 40 -8.33301 66 -25l172 -110c34 -22 51 -43.333 51 -64
c0 -15.333 -4.83301 -28.666 -14.5 -39.999s-21.167 -17 -34.5 -17c-12.667 0 -26.334 4.66699 -41.001 14z" />
    <glyph glyph-name="udieresis" unicode="&#xfc;" horiz-adv-x="1114" 
d="M963 57c0 -42 -21.3311 -62.999 -63.998 -62.999c-42 0 -63 21 -63 63v109c-36.667 -62 -82.834 -108.5 -138.501 -139.5s-120.834 -46.5 -195.501 -46.5c-113.333 0 -200.833 34.667 -262.5 104s-92.5 163.666 -92.5 282.999v620c0 42.667 20.667 64 62 64
c43.333 0 65 -21.333 65 -64v-612c0 -83.333 21.5 -150 64.5 -200s103.5 -75 181.5 -75c98 0 175.167 32.833 231.5 98.5s84.5 152.5 84.5 260.5v528c0 42.667 21 64 63 64c42.667 0 64 -21.333 64 -64v-930zM735.002 1233c-23.333 0 -43.5 8.5 -60.5 25.5
s-25.5 37.167 -25.5 60.5s8.5 43.5 25.5 60.5s37.167 25.5 60.5 25.5c24.667 0 45.167 -8.16699 61.5 -24.5s24.5 -36.833 24.5 -61.5s-8.16699 -45.167 -24.5 -61.5s-36.833 -24.5 -61.5 -24.5zM372.002 1233c-23.333 0 -43.5 8.5 -60.5 25.5s-25.5 37.167 -25.5 60.5
s8.5 43.5 25.5 60.5s37.167 25.5 60.5 25.5c24.667 0 45.167 -8.16699 61.5 -24.5s24.5 -36.833 24.5 -61.5s-8.16699 -45.167 -24.5 -61.5s-36.833 -24.5 -61.5 -24.5z" />
    <glyph glyph-name="yacute" unicode="&#xfd;" horiz-adv-x="971" 
d="M395 37c-106 184.667 -189.83 379.166 -251.497 583.499s-92.5 327.833 -92.5 370.5c0 41.333 24 62 72 62c31.333 0 50.333 -17.333 57 -52c29.333 -150.667 67.833 -297.167 115.5 -439.5s104.167 -280.5 169.5 -414.5c64.667 116 128.667 255.833 192 419.5
s108.666 309.5 135.999 437.5c6.66699 32.667 25 49 55 49c48 0 72 -18.667 72 -56c0 -32 -26.167 -125.667 -78.5 -281s-119.333 -315.166 -201 -479.499s-162.834 -299.666 -243.501 -405.999s-146.834 -177 -198.501 -212s-101.5 -52.5 -149.5 -52.5
c-12 0 -23.5 5.33301 -34.5 16s-16.5 26.334 -16.5 47.001c0 24.667 19 42 57 52c44 11.333 94.333 46.666 151 105.999s119.667 142.666 189 249.999zM651.003 1419l-200.999 -156.999c-24.667 -19.333 -43 -29 -55 -29c-16.667 0 -31.334 6 -44.001 18s-19 27 -19 45
c0 17.333 13.667 36.666 41 57.999l194 153c28 22 48.667 33 62 33c15.333 0 29.333 -5.83301 42 -17.5s19 -26.167 19 -43.5s-13 -37.333 -39 -60z" />
    <glyph glyph-name="thorn" unicode="&#xfe;" 
d="M575 100c96 0 173.667 39 233 117s89 183 89 315c0 129.333 -28.5 230.333 -85.5 303s-135.833 109 -236.5 109c-87.333 0 -158.5 -29.833 -213.5 -89.5s-82.5 -135.5 -82.5 -227.5v-209c0 -94 27.667 -170.5 83 -229.5s126.333 -88.5 213 -88.5zM573 -20
c-65.333 0 -122.501 13.1689 -171.501 39.502s-89.833 66.166 -122.5 119.499v-510c0 -40.667 -22 -61 -66 -61c-40.667 0 -61 20.333 -61 61v1844c0 42 20.333 63 61 63c44 0 66 -21 66 -63v-562c29.333 48 70.333 85.667 123 113s110.334 41 173.001 41
c140.667 0 250.667 -46.667 330 -140s119 -224.333 119 -393s-40.833 -302.834 -122.5 -402.501s-191.167 -149.5 -328.5 -149.5z" />
    <glyph glyph-name="ydieresis" unicode="&#xff;" horiz-adv-x="971" 
d="M395 37c-106 184.667 -189.83 379.166 -251.497 583.499s-92.5 327.833 -92.5 370.5c0 41.333 24 62 72 62c31.333 0 50.333 -17.333 57 -52c29.333 -150.667 67.833 -297.167 115.5 -439.5s104.167 -280.5 169.5 -414.5c64.667 116 128.667 255.833 192 419.5
s108.666 309.5 135.999 437.5c6.66699 32.667 25 49 55 49c48 0 72 -18.667 72 -56c0 -32 -26.167 -125.667 -78.5 -281s-119.333 -315.166 -201 -479.499s-162.834 -299.666 -243.501 -405.999s-146.834 -177 -198.501 -212s-101.5 -52.5 -149.5 -52.5
c-12 0 -23.5 5.33301 -34.5 16s-16.5 26.334 -16.5 47.001c0 24.667 19 42 57 52c44 11.333 94.333 46.666 151 105.999s119.667 142.666 189 249.999zM658.003 1233c-23.333 0 -43.5 8.5 -60.5 25.5s-25.5 37.167 -25.5 60.5s8.5 43.5 25.5 60.5s37.167 25.5 60.5 25.5
c24.667 0 45.167 -8.16699 61.5 -24.5s24.5 -36.833 24.5 -61.5s-8.16699 -45.167 -24.5 -61.5s-36.833 -24.5 -61.5 -24.5zM295.003 1233c-23.333 0 -43.5 8.5 -60.5 25.5s-25.5 37.167 -25.5 60.5s8.5 43.5 25.5 60.5s37.167 25.5 60.5 25.5
c24.667 0 45.167 -8.16699 61.5 -24.5s24.5 -36.833 24.5 -61.5s-8.16699 -45.167 -24.5 -61.5s-36.833 -24.5 -61.5 -24.5z" />
    <glyph glyph-name="Amacron" unicode="&#x100;" horiz-adv-x="1171" 
d="M895 410l-611.998 -0.00195312c-56.667 -184.667 -92.334 -307 -107.001 -367c-7.33301 -32.667 -25 -49 -53 -49c-49.333 0 -74 19 -74 57c0 26 21 107.333 63 244c69.333 224.667 127.5 399.834 174.5 525.501s104.167 258.834 171.5 399.501
c48.667 101.333 78.667 156.5 90 165.5s25.333 13.5 42 13.5h14c17.333 0 31 -4.66699 41 -14s46 -79.833 108 -211.5s118.667 -272.334 170 -422.001s102.333 -316.5 153 -500.5c30.667 -111.333 46 -178.666 46 -201.999c0 -36.667 -23.667 -55 -71 -55
c-28.667 0 -47.334 16.333 -56.001 49c-10.667 56 -44 178.333 -100 367zM858.002 534.998c-74 244.667 -161.333 471 -262 679c-104.667 -210 -196 -436.333 -274 -679h536zM807.002 1532l-428 0.000976562c-29.333 0 -48.666 5.16699 -57.999 15.5s-14 24.166 -14 41.499
s4.66699 31.333 14 42s28.666 16 57.999 16h428c29.333 0 49 -5 59 -15s15 -24.333 15 -43c0 -38 -24.667 -57 -74 -57z" />
    <glyph glyph-name="amacron" unicode="&#x101;" 
d="M965 57c0 -42 -21.3311 -63 -63.998 -63c-42 0 -63 21 -63 63v99c-34.667 -58.667 -78.334 -102.667 -131.001 -132s-114.334 -44 -185.001 -44c-134.667 0 -240 49.667 -316 149s-114 231 -114 395c0 161.333 38.833 291.833 116.5 391.5s187.167 149.5 328.5 149.5
c67.333 0 126 -13.5 176 -40.5s91.667 -67.5 125 -121.5v86c0 41.333 21 62 63 62c42.667 0 64 -20.667 64 -62v-932zM838.002 623c0 94.667 -27.999 171.832 -83.999 231.499s-127 89.5 -213 89.5c-101.333 0 -180.333 -39.667 -237 -119s-85 -179.666 -85 -300.999
c0 -131.333 27 -234.833 81 -310.5s134.333 -113.5 241 -113.5c87.333 0 158.666 29.833 213.999 89.5s83 136.5 83 230.5v203zM772.003 1235l-428 0.000976562c-29.333 0 -48.666 5.16699 -57.999 15.5s-14 24.166 -14 41.499s4.66699 31.333 14 42s28.666 16 57.999 16
h428c29.333 0 49 -5 59 -15s15 -24.333 15 -43c0 -38 -24.667 -57 -74 -57z" />
    <glyph glyph-name="Abreve" unicode="&#x102;" horiz-adv-x="1171" 
d="M895 410l-611.998 -0.00195312c-56.667 -184.667 -92.334 -307 -107.001 -367c-7.33301 -32.667 -25 -49 -53 -49c-49.333 0 -74 19 -74 57c0 26 21 107.333 63 244c69.333 224.667 127.5 399.834 174.5 525.501s104.167 258.834 171.5 399.501
c48.667 101.333 78.667 156.5 90 165.5s25.333 13.5 42 13.5h14c17.333 0 31 -4.66699 41 -14s46 -79.833 108 -211.5s118.667 -272.334 170 -422.001s102.333 -316.5 153 -500.5c30.667 -111.333 46 -178.666 46 -201.999c0 -36.667 -23.667 -55 -71 -55
c-28.667 0 -47.334 16.333 -56.001 49c-10.667 56 -44 178.333 -100 367zM858.002 534.998c-74 244.667 -161.333 471 -262 679c-104.667 -210 -196 -436.333 -274 -679h536zM590.002 1524c-68.667 0 -127.832 20.6689 -177.499 62.002s-74.5 82.666 -74.5 123.999
c0 14.667 5.83301 26.834 17.5 36.501s25.167 14.5 40.5 14.5c14 0 26 -6.66699 36 -20c27.333 -36.667 47 -60.834 59 -72.501s25.667 -20.667 41 -27s34.666 -9.5 57.999 -9.5c53.333 0 95.666 21.667 126.999 65c20 26.667 34.333 44 43 52s18.334 12 29.001 12
c14.667 0 27.5 -4.83301 38.5 -14.5s16.5 -21.834 16.5 -36.501c0 -42 -24.667 -83.5 -74 -124.5s-109.333 -61.5 -180 -61.5z" />
    <glyph glyph-name="abreve" unicode="&#x103;" 
d="M965 57c0 -42 -21.3311 -63 -63.998 -63c-42 0 -63 21 -63 63v99c-34.667 -58.667 -78.334 -102.667 -131.001 -132s-114.334 -44 -185.001 -44c-134.667 0 -240 49.667 -316 149s-114 231 -114 395c0 161.333 38.833 291.833 116.5 391.5s187.167 149.5 328.5 149.5
c67.333 0 126 -13.5 176 -40.5s91.667 -67.5 125 -121.5v86c0 41.333 21 62 63 62c42.667 0 64 -20.667 64 -62v-932zM838.002 623c0 94.667 -27.999 171.832 -83.999 231.499s-127 89.5 -213 89.5c-101.333 0 -180.333 -39.667 -237 -119s-85 -179.666 -85 -300.999
c0 -131.333 27 -234.833 81 -310.5s134.333 -113.5 241 -113.5c87.333 0 158.666 29.833 213.999 89.5s83 136.5 83 230.5v203zM557.003 1233c-68.667 0 -127.832 20.6689 -177.499 62.002s-74.5 82.666 -74.5 123.999c0 14.667 5.83301 26.834 17.5 36.501
s25.167 14.5 40.5 14.5c14 0 26 -6.66699 36 -20c27.333 -36.667 47 -60.834 59 -72.501s25.667 -20.667 41 -27s34.666 -9.5 57.999 -9.5c53.333 0 95.666 21.667 126.999 65c20 26.667 34.333 44 43 52s18.334 12 29.001 12c14.667 0 27.5 -4.83301 38.5 -14.5
s16.5 -21.834 16.5 -36.501c0 -42 -24.667 -83.5 -74 -124.5s-109.333 -61.5 -180 -61.5z" />
    <glyph glyph-name="Aogonek" unicode="&#x104;" horiz-adv-x="1171" 
d="M895 410l-611.998 -0.00292969c-56.667 -184.667 -92.334 -307 -107.001 -367c-7.33301 -32.667 -25 -49 -53 -49c-49.333 0 -74 19 -74 57c0 26 21 107.333 63 244c69.333 224.667 127.5 399.834 174.5 525.501s104.167 258.834 171.5 399.501
c48.667 101.333 78.667 156.5 90 165.5s25.333 13.5 42 13.5h14c17.333 0 31 -4.66699 41 -14s46 -79.833 108 -211.5s118.667 -272.334 170 -422.001s102.333 -316.5 153 -500.5c30.667 -111.333 46 -178.666 46 -201.999c0 -18.667 -8 -33.667 -24 -45
c-36 -43.333 -62.5 -83.666 -79.5 -120.999s-25.5 -66.666 -25.5 -87.999c0 -24.667 5.5 -43.167 16.5 -55.5s27.5 -18.5 49.5 -18.5c31.333 0 63 9.33301 95 28c6 3.33301 12.667 5 20 5c25.333 0 38 -15 38 -45c0 -22 -18 -41.167 -54 -57.5s-74.667 -24.5 -116 -24.5
c-54.667 0 -95.5 12.167 -122.5 36.5s-40.5 60.833 -40.5 109.5c0 36 10.667 74 32 114s53.666 81.667 96.999 125c-6.66699 7.33301 -11 17.666 -13 30.999c-10.667 56 -44 178.333 -100 367zM858.002 534.997c-74 244.667 -161.333 471 -262 679
c-104.667 -210 -196 -436.333 -274 -679h536z" />
    <glyph glyph-name="aogonek" unicode="&#x105;" 
d="M754.5 -115.5c21 39.667 52.835 81.498 95.502 125.498c-8 10 -12 25.667 -12 47v99c-34.667 -58.667 -78.334 -102.667 -131.001 -132s-114.334 -44 -185.001 -44c-134.667 0 -240 49.667 -316 149s-114 231 -114 395c0 161.333 38.833 291.833 116.5 391.5
s187.167 149.5 328.5 149.5c67.333 0 126 -13.5 176 -40.5s91.667 -67.5 125 -121.5v86c0 41.333 21 62 63 62c42.667 0 64 -20.667 64 -62v-932c0 -24.667 -7.66699 -42.334 -23 -53.001c-36 -43.333 -62.333 -83.666 -79 -120.999s-25 -66.666 -25 -87.999
c0 -24.667 5.33301 -43.167 16 -55.5s27 -18.5 49 -18.5c31.333 0 63 9.33301 95 28c6 3.33301 12.667 5 20 5c26 0 39 -15 39 -45c0 -22 -18 -41.167 -54 -57.5s-74.667 -24.5 -116 -24.5c-54.667 0 -95.667 12.167 -123 36.5s-41 60.833 -41 109.5
c0 34.667 10.5 71.834 31.5 111.501zM838.002 622.998c0 94.667 -27.999 171.832 -83.999 231.499s-127 89.5 -213 89.5c-101.333 0 -180.333 -39.667 -237 -119s-85 -179.666 -85 -300.999c0 -131.333 27 -234.833 81 -310.5s134.333 -113.5 241 -113.5
c87.333 0 158.666 29.833 213.999 89.5s83 136.5 83 230.5v203z" />
    <glyph glyph-name="Cacute" unicode="&#x106;" horiz-adv-x="1190" 
d="M680 -20c-181.333 0 -324.667 64.667 -430 194s-158 303.333 -158 522c0 213.333 56.833 386.166 170.5 518.499s260.167 198.5 439.5 198.5c110 0 204.167 -20.167 282.5 -60.5s117.5 -78.166 117.5 -113.499c0 -17.333 -6.33301 -32.166 -19 -44.499
s-25.667 -18.5 -39 -18.5c-8 0 -15.167 1.33301 -21.5 4s-20.166 11.334 -41.499 26.001c-80.667 57.333 -173.667 86 -279 86c-144 0 -260.167 -54.5 -348.5 -163.5s-132.5 -253.167 -132.5 -432.5c0 -185.333 42.167 -331 126.5 -437s195.833 -159 334.5 -159
c56.667 0 111.5 9.16699 164.5 27.5s110.167 52.166 171.5 101.499c18.667 15.333 35.667 23 51 23s27.666 -6.33301 36.999 -19s14 -26 14 -40c0 -32.667 -45.333 -76.334 -136 -131.001s-192 -82 -304 -82zM873.999 1716l-200.999 -156.999
c-24.667 -19.333 -43 -29 -55 -29c-16.667 0 -31.334 6 -44.001 18s-19 27 -19 45c0 17.333 13.667 36.666 41 57.999l194 153c28 22 48.667 33 62 33c15.333 0 29.333 -5.83301 42 -17.5s19 -26.167 19 -43.5s-13 -37.333 -39 -60z" />
    <glyph glyph-name="cacute" unicode="&#x107;" horiz-adv-x="987" 
d="M905 899c0 -16.667 -6.00098 -31.332 -18.001 -43.999s-26.333 -19 -43 -19c-12 0 -30.667 9.33301 -56 28c-44 32 -83.333 53.333 -118 64s-71 16 -109 16c-102 0 -184.5 -38 -247.5 -114s-94.5 -178.667 -94.5 -308s30.5 -232 91.5 -308s142.5 -114 244.5 -114
c82.667 0 161.334 28.667 236.001 86c25.333 19.333 44.333 29 57 29c17.333 0 31.5 -7 42.5 -21s16.5 -28.667 16.5 -44c0 -32 -37 -68.333 -111 -109s-155.667 -61 -245 -61c-138 0 -249 49.5 -333 148.5s-126 230.167 -126 393.5s44.5 294.666 133.5 393.999
s202.167 149 339.5 149c94 0 174.167 -19.667 240.5 -59s99.5 -75 99.5 -107zM750.999 1419l-200.999 -156.999c-24.667 -19.333 -43 -29 -55 -29c-16.667 0 -31.334 6 -44.001 18s-19 27 -19 45c0 17.333 13.667 36.666 41 57.999l194 153c28 22 48.667 33 62 33
c15.333 0 29.333 -5.83301 42 -17.5s19 -26.167 19 -43.5s-13 -37.333 -39 -60z" />
    <glyph glyph-name="Ccaron" unicode="&#x10c;" horiz-adv-x="1190" 
d="M680 -20c-181.333 0 -324.667 64.667 -430 194s-158 303.333 -158 522c0 213.333 56.833 386.166 170.5 518.499s260.167 198.5 439.5 198.5c110 0 204.167 -20.167 282.5 -60.5s117.5 -78.166 117.5 -113.499c0 -17.333 -6.33301 -32.166 -19 -44.499
s-25.667 -18.5 -39 -18.5c-8 0 -15.167 1.33301 -21.5 4s-20.166 11.334 -41.499 26.001c-80.667 57.333 -173.667 86 -279 86c-144 0 -260.167 -54.5 -348.5 -163.5s-132.5 -253.167 -132.5 -432.5c0 -185.333 42.167 -331 126.5 -437s195.833 -159 334.5 -159
c56.667 0 111.5 9.16699 164.5 27.5s110.167 52.166 171.5 101.499c18.667 15.333 35.667 23 51 23s27.666 -6.33301 36.999 -19s14 -26 14 -40c0 -32.667 -45.333 -76.334 -136 -131.001s-192 -82 -304 -82zM677.999 1639l188.001 122.002c21.333 14 38.666 21 51.999 21
c12 0 23.167 -5.5 33.5 -16.5s15.5 -23.167 15.5 -36.5c0 -12.667 -3.16699 -23.334 -9.5 -32.001s-18.166 -18.667 -35.499 -30l-178 -117c-24.667 -16 -46.667 -24 -66 -24c-18.667 0 -40.334 8 -65.001 24l-173 111c-34 22 -51 43.333 -51 64
c0 15.333 5 28.666 15 39.999s22 17 36 17c11.333 0 24.333 -4.66699 39 -14z" />
    <glyph glyph-name="ccaron" unicode="&#x10d;" horiz-adv-x="987" 
d="M905 899c0 -16.667 -6.00098 -31.332 -18.001 -43.999s-26.333 -19 -43 -19c-12 0 -30.667 9.33301 -56 28c-44 32 -83.333 53.333 -118 64s-71 16 -109 16c-102 0 -184.5 -38 -247.5 -114s-94.5 -178.667 -94.5 -308s30.5 -232 91.5 -308s142.5 -114 244.5 -114
c82.667 0 161.334 28.667 236.001 86c25.333 19.333 44.333 29 57 29c17.333 0 31.5 -7 42.5 -21s16.5 -28.667 16.5 -44c0 -32 -37 -68.333 -111 -109s-155.667 -61 -245 -61c-138 0 -249 49.5 -333 148.5s-126 230.167 -126 393.5s44.5 294.666 133.5 393.999
s202.167 149 339.5 149c94 0 174.167 -19.667 240.5 -59s99.5 -75 99.5 -107zM538.999 1346l188.001 122.002c21.333 14 38.666 21 51.999 21c12 0 23.167 -5.5 33.5 -16.5s15.5 -23.167 15.5 -36.5c0 -12.667 -3.16699 -23.334 -9.5 -32.001s-18.166 -18.667 -35.499 -30
l-178 -117c-24.667 -16 -46.667 -24 -66 -24c-18.667 0 -40.334 8 -65.001 24l-173 111c-34 22 -51 43.333 -51 64c0 15.333 5 28.666 15 39.999s22 17 36 17c11.333 0 24.333 -4.66699 39 -14z" />
    <glyph glyph-name="Dcaron" unicode="&#x10e;" horiz-adv-x="1311" 
d="M580 0l-257.999 0.00195312c-43.333 0 -77.166 11.667 -101.499 35s-36.5 56.666 -36.5 99.999v1122c0 43.333 12.167 76.833 36.5 100.5s58.166 35.5 101.499 35.5h258c199.333 0 355.666 -60 468.999 -180s170 -279.333 170 -478
c0 -220.667 -57.5 -398.334 -172.5 -533.001s-270.5 -202 -466.5 -202zM586.001 1266h-245.999c-18 0 -27 -10.333 -27 -31v-1077c0 -20.667 9 -31 27 -31h246c161.333 0 285.666 53.667 372.999 161s131 253 131 437c0 170.667 -43 303.5 -129 398.5s-211 142.5 -375 142.5
zM602.002 1639l188.001 122.002c21.333 14 38.666 21 51.999 21c12 0 23.167 -5.5 33.5 -16.5s15.5 -23.167 15.5 -36.5c0 -12.667 -3.16699 -23.334 -9.5 -32.001s-18.166 -18.667 -35.499 -30l-178 -117c-24.667 -16 -46.667 -24 -66 -24c-18.667 0 -40.334 8 -65.001 24
l-173 111c-34 22 -51 43.333 -51 64c0 15.333 5 28.666 15 39.999s22 17 36 17c11.333 0 24.333 -4.66699 39 -14z" />
    <glyph glyph-name="dcaron" unicode="&#x10f;" horiz-adv-x="1190" 
d="M965 57c0 -42 -20.668 -63.001 -62.001 -63.001c-43.333 0 -65 21 -65 63v80c-30 -49.333 -71.667 -87.833 -125 -115.5s-110.666 -41.5 -171.999 -41.5c-142 0 -252.333 47.333 -331 142s-118 226 -118 394c0 164.667 40.833 297.334 122.5 398.001s190.5 151 326.5 151
c63.333 0 120.833 -13.833 172.5 -41.5s93.167 -67.167 124.5 -118.5v570c0 40.667 21.667 61 65 61c41.333 0 62 -20.333 62 -61v-1418zM837.999 622.999c0 94.667 -28 171.833 -84 231.5s-127 89.5 -213 89.5c-94 0 -171.167 -39.167 -231.5 -117.5
s-90.5 -181.833 -90.5 -310.5c0 -133.333 28.5 -236 85.5 -308s135.833 -108 236.5 -108c86 0 157 30.5 213 91.5s84 138.5 84 232.5v199zM1135 1260c-18.667 0 -32.834 5 -42.501 15s-14.5 21.333 -14.5 34c0 9.33301 6 22.666 18 39.999s18 36 18 56c0 11.333 -2 23 -6 35
c-4 11.333 -6 22.333 -6 33c0 40.667 22.667 61 68 61c20.667 0 36.334 -7.66699 47.001 -23s16 -43 16 -83c0 -41.333 -9.33301 -79.666 -28 -114.999s-42 -53 -70 -53z" />
    <glyph glyph-name="Dcroat" unicode="&#x110;" horiz-adv-x="1311" 
d="M184 664l-85.999 0.00195312c-43.333 0 -65 20.333 -65 61s21.667 61 65 61h86v471c0 43.333 12.167 76.833 36.5 100.5s58.166 35.5 101.499 35.5h258c199.333 0 355.666 -60 468.999 -180s170 -279.333 170 -478c0 -220.667 -57.5 -398.334 -172.5 -533.001
s-270.5 -202 -466.5 -202h-258c-43.333 0 -77.166 11.667 -101.499 35s-36.5 56.666 -36.5 99.999v529zM313.001 664.002l0.000976562 -506c0 -20.667 9 -31 27 -31h246c161.333 0 285.666 53.667 372.999 161s131 253 131 437c0 170.667 -43 303.5 -129 398.5
s-211 142.5 -375 142.5h-246c-18 0 -27 -10.333 -27 -31v-449h318c43.333 0 65 -20.333 65 -61s-21.667 -61 -65 -61h-318z" />
    <glyph glyph-name="dcroat" unicode="&#x111;" 
d="M965 57c0 -42 -20.668 -63.001 -62.001 -63.001c-43.333 0 -65 21 -65 63v80c-30 -49.333 -71.667 -87.833 -125 -115.5s-110.666 -41.5 -171.999 -41.5c-142 0 -252.333 47.333 -331 142s-118 226 -118 394c0 164.667 40.833 297.334 122.5 398.001s190.5 151 326.5 151
c63.333 0 120.833 -13.833 172.5 -41.5s93.167 -67.167 124.5 -118.5v324h-275c-40.667 0 -61 20.333 -61 61c0 40 20.333 60 61 60h275v125c0 40.667 21.667 61 65 61c41.333 0 62 -20.333 62 -61v-125h71c41.333 0 62 -20 62 -60c0 -40.667 -20.667 -61 -62 -61h-71v-1172
zM837.999 622.999c0 94.667 -28 171.833 -84 231.5s-127 89.5 -213 89.5c-94 0 -171.167 -39.167 -231.5 -117.5s-90.5 -181.833 -90.5 -310.5c0 -133.333 28.5 -236 85.5 -308s135.833 -108 236.5 -108c86 0 157 30.5 213 91.5s84 138.5 84 232.5v199z" />
    <glyph glyph-name="Emacron" unicode="&#x112;" horiz-adv-x="1032" 
d="M313 788h505.998c42.667 0 64 -21.667 64 -65c0 -40.667 -21.333 -61 -64 -61h-506v-504c0 -20.667 9 -31 27 -31h545c43.333 0 65 -20.333 65 -61c0 -44 -21.667 -66 -65 -66h-563c-43.333 0 -77.166 11.667 -101.499 35s-36.5 56.666 -36.5 99.999v1102
c0 46 11.833 83.5 35.5 112.5s61.834 43.5 114.501 43.5h551c43.333 0 65 -21.333 65 -64c0 -42 -21.667 -63 -65 -63h-537c-10 0 -18.333 -3.66699 -25 -11s-10 -16.666 -10 -27.999v-439zM781.998 1536l-428 0.000976562c-29.333 0 -48.666 5.16699 -57.999 15.5
s-14 24.166 -14 41.499s4.66699 31.333 14 42s28.666 16 57.999 16h428c29.333 0 49 -5 59 -15s15 -24.333 15 -43c0 -38 -24.667 -57 -74 -57z" />
    <glyph glyph-name="emacron" unicode="&#x113;" horiz-adv-x="1042" 
d="M221 483c0 -111.333 32.001 -203.002 96.001 -275.002s145.333 -108 244 -108c42 0 84.667 6.83301 128 20.5s80.666 30.834 111.999 51.501c21.333 14 37 21 47 21c16 0 29.5 -7 40.5 -21s16.5 -29 16.5 -45c0 -30 -35.833 -62 -107.5 -96s-151.167 -51 -238.5 -51
c-143.333 0 -257 48.333 -341 145s-126 225.667 -126 387c0 160 41.333 292.167 124 396.5s195 156.5 337 156.5c125.333 0 223.833 -42.167 295.5 -126.5s107.5 -197.166 107.5 -338.499c0 -38 -8.5 -67 -25.5 -87s-40.5 -30 -70.5 -30h-639zM829.001 601.998
c0 101.333 -24.833 183.666 -74.5 246.999s-118.167 95 -205.5 95c-91.333 0 -166.333 -31.167 -225 -93.5s-91.667 -145.166 -99 -248.499h604zM739.001 1235l-428 0.000976562c-29.333 0 -48.666 5.16699 -57.999 15.5s-14 24.166 -14 41.499s4.66699 31.333 14 42
s28.666 16 57.999 16h428c29.333 0 49 -5 59 -15s15 -24.333 15 -43c0 -38 -24.667 -57 -74 -57z" />
    <glyph glyph-name="Ebreve" unicode="&#x114;" horiz-adv-x="1032" 
d="M313 788h505.998c42.667 0 64 -21.667 64 -65c0 -40.667 -21.333 -61 -64 -61h-506v-504c0 -20.667 9 -31 27 -31h545c43.333 0 65 -20.333 65 -61c0 -44 -21.667 -66 -65 -66h-563c-43.333 0 -77.166 11.667 -101.499 35s-36.5 56.666 -36.5 99.999v1102
c0 46 11.833 83.5 35.5 112.5s61.834 43.5 114.501 43.5h551c43.333 0 65 -21.333 65 -64c0 -42 -21.667 -63 -65 -63h-537c-10 0 -18.333 -3.66699 -25 -11s-10 -16.666 -10 -27.999v-439zM560.998 1530c-68.667 0 -127.832 20.6689 -177.499 62.002
s-74.5 82.666 -74.5 123.999c0 14.667 5.83301 26.834 17.5 36.501s25.167 14.5 40.5 14.5c14 0 26 -6.66699 36 -20c27.333 -36.667 47 -60.834 59 -72.501s25.667 -20.667 41 -27s34.666 -9.5 57.999 -9.5c53.333 0 95.666 21.667 126.999 65c20 26.667 34.333 44 43 52
s18.334 12 29.001 12c14.667 0 27.5 -4.83301 38.5 -14.5s16.5 -21.834 16.5 -36.501c0 -42 -24.667 -83.5 -74 -124.5s-109.333 -61.5 -180 -61.5z" />
    <glyph glyph-name="ebreve" unicode="&#x115;" horiz-adv-x="1042" 
d="M221 483c0 -111.333 32.001 -203.002 96.001 -275.002s145.333 -108 244 -108c42 0 84.667 6.83301 128 20.5s80.666 30.834 111.999 51.501c21.333 14 37 21 47 21c16 0 29.5 -7 40.5 -21s16.5 -29 16.5 -45c0 -30 -35.833 -62 -107.5 -96s-151.167 -51 -238.5 -51
c-143.333 0 -257 48.333 -341 145s-126 225.667 -126 387c0 160 41.333 292.167 124 396.5s195 156.5 337 156.5c125.333 0 223.833 -42.167 295.5 -126.5s107.5 -197.166 107.5 -338.499c0 -38 -8.5 -67 -25.5 -87s-40.5 -30 -70.5 -30h-639zM829.001 601.998
c0 101.333 -24.833 183.666 -74.5 246.999s-118.167 95 -205.5 95c-91.333 0 -166.333 -31.167 -225 -93.5s-91.667 -145.166 -99 -248.499h604zM526.001 1233c-68.667 0 -127.832 20.6689 -177.499 62.002s-74.5 82.666 -74.5 123.999c0 14.667 5.83301 26.834 17.5 36.501
s25.167 14.5 40.5 14.5c14 0 26 -6.66699 36 -20c27.333 -36.667 47 -60.834 59 -72.501s25.667 -20.667 41 -27s34.666 -9.5 57.999 -9.5c53.333 0 95.666 21.667 126.999 65c20 26.667 34.333 44 43 52s18.334 12 29.001 12c14.667 0 27.5 -4.83301 38.5 -14.5
s16.5 -21.834 16.5 -36.501c0 -42 -24.667 -83.5 -74 -124.5s-109.333 -61.5 -180 -61.5z" />
    <glyph glyph-name="Edotaccent" unicode="&#x116;" horiz-adv-x="1032" 
d="M313 788h505.998c42.667 0 64 -21.667 64 -65c0 -40.667 -21.333 -61 -64 -61h-506v-504c0 -20.667 9 -31 27 -31h545c43.333 0 65 -20.333 65 -61c0 -44 -21.667 -66 -65 -66h-563c-43.333 0 -77.166 11.667 -101.499 35s-36.5 56.666 -36.5 99.999v1102
c0 46 11.833 83.5 35.5 112.5s61.834 43.5 114.501 43.5h551c43.333 0 65 -21.333 65 -64c0 -42 -21.667 -63 -65 -63h-537c-10 0 -18.333 -3.66699 -25 -11s-10 -16.666 -10 -27.999v-439zM593.998 1520c-27.333 0 -51 9.83301 -71 29.5s-30 43.167 -30 70.5
c0 28 9.83301 51.833 29.5 71.5s43.5 29.5 71.5 29.5c27.333 0 50.833 -10 70.5 -30s29.5 -43.667 29.5 -71c0 -28 -9.66699 -51.667 -29 -71s-43 -29 -71 -29z" />
    <glyph glyph-name="edotaccent" unicode="&#x117;" horiz-adv-x="1042" 
d="M221 483c0 -111.333 32.001 -203.002 96.001 -275.002s145.333 -108 244 -108c42 0 84.667 6.83301 128 20.5s80.666 30.834 111.999 51.501c21.333 14 37 21 47 21c16 0 29.5 -7 40.5 -21s16.5 -29 16.5 -45c0 -30 -35.833 -62 -107.5 -96s-151.167 -51 -238.5 -51
c-143.333 0 -257 48.333 -341 145s-126 225.667 -126 387c0 160 41.333 292.167 124 396.5s195 156.5 337 156.5c125.333 0 223.833 -42.167 295.5 -126.5s107.5 -197.166 107.5 -338.499c0 -38 -8.5 -67 -25.5 -87s-40.5 -30 -70.5 -30h-639zM829.001 601.998
c0 101.333 -24.833 183.666 -74.5 246.999s-118.167 95 -205.5 95c-91.333 0 -166.333 -31.167 -225 -93.5s-91.667 -145.166 -99 -248.499h604zM527.001 1233c-27.333 0 -51 9.83301 -71 29.5s-30 43.167 -30 70.5c0 28 9.83301 51.833 29.5 71.5s43.5 29.5 71.5 29.5
c27.333 0 50.833 -10 70.5 -30s29.5 -43.667 29.5 -71c0 -28 -9.66699 -51.667 -29 -71s-43 -29 -71 -29z" />
    <glyph glyph-name="Eogonek" unicode="&#x118;" horiz-adv-x="1032" 
d="M748 0h-426.001c-43.333 0 -77.166 11.667 -101.499 35s-36.5 56.666 -36.5 99.999v1102c0 46 11.833 83.5 35.5 112.5s61.834 43.5 114.501 43.5h551c43.333 0 65 -21.333 65 -64c0 -42 -21.667 -63 -65 -63h-537c-10 0 -18.333 -3.66699 -25 -11
s-10 -16.666 -10 -27.999v-439h506c42.667 0 64 -21.667 64 -65c0 -40.667 -21.333 -61 -64 -61h-506v-504c0 -20.667 9 -31 27 -31h545c43.333 0 65 -20.333 65 -61c0 -44 -21.667 -66 -65 -66h-39c-35.333 -42 -61 -81.333 -77 -118s-24 -65.667 -24 -87
c0 -24.667 5.5 -43.167 16.5 -55.5s27.5 -18.5 49.5 -18.5c31.333 0 63 9.33301 95 28c6 3.33301 12.667 5 20 5c26 0 39 -15 39 -45c0 -21.333 -18.167 -40.333 -54.5 -57s-74.833 -25 -115.5 -25c-54.667 0 -95.667 12.167 -123 36.5s-41 60.833 -41 109.5
c0 34 9.66699 69.833 29 107.5s48.666 77.5 87.999 119.5z" />
    <glyph glyph-name="eogonek" unicode="&#x119;" horiz-adv-x="1042" 
d="M584 -20l-24.998 -0.00292969c-143.333 0 -257 48.333 -341 145s-126 225.667 -126 387c0 160 41.333 292.167 124 396.5s195 156.5 337 156.5c125.333 0 223.833 -42.167 295.5 -126.5s107.5 -197.166 107.5 -338.499c0 -38 -8.5 -67 -25.5 -87s-40.5 -30 -70.5 -30
h-639c0 -111.333 32 -203 96 -275s145.333 -108 244 -108c42 0 84.667 6.83301 128 20.5s80.666 30.834 111.999 51.501c21.333 14 37 21 47 21c16 0 29.5 -7 40.5 -21s16.5 -29 16.5 -45c0 -11.333 -6.16699 -24.166 -18.5 -38.499s-36.166 -30.666 -71.499 -48.999
s-75 -32.833 -119 -43.5c-32.667 -42 -56.834 -80.833 -72.501 -116.5s-23.5 -63.834 -23.5 -84.501c0 -24.667 5.5 -43.167 16.5 -55.5s27.5 -18.5 49.5 -18.5c32.667 0 64 9.33301 94 28c6 3.33301 12.667 5 20 5c26 0 39 -15 39 -45c0 -22 -18 -41.167 -54 -57.5
s-74.667 -24.5 -116 -24.5c-54.667 0 -95.667 12.167 -123 36.5s-41 60.833 -41 109.5c0 30.667 8.16699 63.167 24.5 97.5s41.166 70.833 74.499 109.5zM829.002 601.997v7.99902c0 96 -24.833 175.667 -74.5 239s-118.167 95 -205.5 95
c-91.333 0 -166.333 -31.167 -225 -93.5s-91.667 -145.166 -99 -248.499h604z" />
    <glyph glyph-name="Ecaron" unicode="&#x11a;" horiz-adv-x="1032" 
d="M313 788h505.998c42.667 0 64 -21.667 64 -65c0 -40.667 -21.333 -61 -64 -61h-506v-504c0 -20.667 9 -31 27 -31h545c43.333 0 65 -20.333 65 -61c0 -44 -21.667 -66 -65 -66h-563c-43.333 0 -77.166 11.667 -101.499 35s-36.5 56.666 -36.5 99.999v1102
c0 46 11.833 83.5 35.5 112.5s61.834 43.5 114.501 43.5h551c43.333 0 65 -21.333 65 -64c0 -42 -21.667 -63 -65 -63h-537c-10 0 -18.333 -3.66699 -25 -11s-10 -16.666 -10 -27.999v-439zM572.998 1633l188.001 122.002c21.333 14 38.666 21 51.999 21
c12 0 23.167 -5.5 33.5 -16.5s15.5 -23.167 15.5 -36.5c0 -12.667 -3.16699 -23.334 -9.5 -32.001s-18.166 -18.667 -35.499 -30l-178 -117c-24.667 -16 -46.667 -24 -66 -24c-18.667 0 -40.334 8 -65.001 24l-173 111c-34 22 -51 43.333 -51 64
c0 15.333 5 28.666 15 39.999s22 17 36 17c11.333 0 24.333 -4.66699 39 -14z" />
    <glyph glyph-name="ecaron" unicode="&#x11b;" horiz-adv-x="1042" 
d="M221 483c0 -111.333 32.001 -203.002 96.001 -275.002s145.333 -108 244 -108c42 0 84.667 6.83301 128 20.5s80.666 30.834 111.999 51.501c21.333 14 37 21 47 21c16 0 29.5 -7 40.5 -21s16.5 -29 16.5 -45c0 -30 -35.833 -62 -107.5 -96s-151.167 -51 -238.5 -51
c-143.333 0 -257 48.333 -341 145s-126 225.667 -126 387c0 160 41.333 292.167 124 396.5s195 156.5 337 156.5c125.333 0 223.833 -42.167 295.5 -126.5s107.5 -197.166 107.5 -338.499c0 -38 -8.5 -67 -25.5 -87s-40.5 -30 -70.5 -30h-639zM829.001 601.998
c0 101.333 -24.833 183.666 -74.5 246.999s-118.167 95 -205.5 95c-91.333 0 -166.333 -31.167 -225 -93.5s-91.667 -145.166 -99 -248.499h604zM526.001 1346l188.001 122.002c21.333 14 38.666 21 51.999 21c12 0 23.167 -5.5 33.5 -16.5s15.5 -23.167 15.5 -36.5
c0 -12.667 -3.16699 -23.334 -9.5 -32.001s-18.166 -18.667 -35.499 -30l-178 -117c-24.667 -16 -46.667 -24 -66 -24c-18.667 0 -40.334 8 -65.001 24l-173 111c-34 22 -51 43.333 -51 64c0 15.333 5 28.666 15 39.999s22 17 36 17c11.333 0 24.333 -4.66699 39 -14z" />
    <glyph glyph-name="Gbreve" unicode="&#x11e;" horiz-adv-x="1319" 
d="M1165 217c0 -50.667 -13.167 -89.3281 -39.5 -115.995s-77.833 -53.5 -154.5 -80.5s-163.334 -40.5 -260.001 -40.5c-190.667 0 -341.5 64.167 -452.5 192.5s-166.5 300.166 -166.5 515.499c0 147.333 27.5 275.666 82.5 384.999s132.833 193.333 233.5 252
s207.667 88 321 88c63.333 0 122.333 -7.33301 177 -22s103.5 -34.834 146.5 -60.501s68.167 -43.834 75.5 -54.501s11 -22.334 11 -35.001c0 -16 -6.5 -31.167 -19.5 -45.5s-27.833 -21.5 -44.5 -21.5c-9.33301 0 -18.333 2.66699 -27 8l-28 18
c-90 61.333 -188.333 92 -295 92c-145.333 0 -265.666 -54.167 -360.999 -162.5s-143 -255.5 -143 -441.5c0 -178 44.333 -320.5 133 -427.5s209.667 -160.5 363 -160.5c71.333 0 137 10 197 30s95.333 35.167 106 45.5s16 30.5 16 60.5v366h-309c-42 0 -63 21.333 -63 64
c0 42 21 63 63 63h377c40.667 0 61 -21 61 -63v-449zM704 1522.01c-68.667 0 -127.832 20.6689 -177.499 62.002s-74.5 82.666 -74.5 123.999c0 14.667 5.83301 26.834 17.5 36.501s25.167 14.5 40.5 14.5c14 0 26 -6.66699 36 -20c27.333 -36.667 47 -60.834 59 -72.501
s25.667 -20.667 41 -27s34.666 -9.5 57.999 -9.5c53.333 0 95.666 21.667 126.999 65c20 26.667 34.333 44 43 52s18.334 12 29.001 12c14.667 0 27.5 -4.83301 38.5 -14.5s16.5 -21.834 16.5 -36.501c0 -42 -24.667 -83.5 -74 -124.5s-109.333 -61.5 -180 -61.5z" />
    <glyph glyph-name="gbreve" unicode="&#x11f;" 
d="M965 94c0 -174.667 -39.6699 -306.001 -119.003 -394.001s-195.333 -132 -348 -132c-73.333 0 -147.666 16 -222.999 48s-113 63.667 -113 95c0 20.667 5.66699 37.5 17 50.5s23.333 19.5 36 19.5s31.667 -7.66699 57 -23c45.333 -25.333 84.833 -43.166 118.5 -53.499
s70.834 -15.5 111.501 -15.5c112 0 196 31.167 252 93.5s84 155.833 84 280.5v99c-29.333 -56 -71.166 -100.333 -125.499 -133s-116.5 -49 -186.5 -49c-132 0 -237.333 48.5 -316 145.5s-118 229.833 -118 398.5c0 168 40.5 300.167 121.5 396.5s190.167 144.5 327.5 144.5
c63.333 0 120.833 -13.833 172.5 -41.5s93.167 -67.167 124.5 -118.5v84c0 41.333 21.667 62 65 62c41.333 0 62 -20.667 62 -62v-895zM837.997 622.999c0 94.667 -28.001 171.834 -84.001 231.501s-127 89.5 -213 89.5c-97.333 0 -175.333 -36.833 -234 -110.5
s-88 -176.834 -88 -309.501c0 -132 28.333 -235.667 85 -311s135.667 -113 237 -113c88.667 0 160.334 30.5 215.001 91.5s82 138.5 82 232.5v199zM519.996 1233c-68.667 0 -127.832 20.6689 -177.499 62.002s-74.5 82.666 -74.5 123.999
c0 14.667 5.83301 26.834 17.5 36.501s25.167 14.5 40.5 14.5c14 0 26 -6.66699 36 -20c27.333 -36.667 47 -60.834 59 -72.501s25.667 -20.667 41 -27s34.666 -9.5 57.999 -9.5c53.333 0 95.666 21.667 126.999 65c20 26.667 34.333 44 43 52s18.334 12 29.001 12
c14.667 0 27.5 -4.83301 38.5 -14.5s16.5 -21.834 16.5 -36.501c0 -42 -24.667 -83.5 -74 -124.5s-109.333 -61.5 -180 -61.5z" />
    <glyph glyph-name="Gcommaaccent" unicode="&#x122;" horiz-adv-x="1319" 
d="M1165 217c0 -50.667 -13.167 -89.3281 -39.5 -115.995s-77.833 -53.5 -154.5 -80.5s-163.334 -40.5 -260.001 -40.5c-190.667 0 -341.5 64.167 -452.5 192.5s-166.5 300.166 -166.5 515.499c0 147.333 27.5 275.666 82.5 384.999s132.833 193.333 233.5 252
s207.667 88 321 88c63.333 0 122.333 -7.33301 177 -22s103.5 -34.834 146.5 -60.501s68.167 -43.834 75.5 -54.501s11 -22.334 11 -35.001c0 -16 -6.5 -31.167 -19.5 -45.5s-27.833 -21.5 -44.5 -21.5c-9.33301 0 -18.333 2.66699 -27 8l-28 18
c-90 61.333 -188.333 92 -295 92c-145.333 0 -265.666 -54.167 -360.999 -162.5s-143 -255.5 -143 -441.5c0 -178 44.333 -320.5 133 -427.5s209.667 -160.5 363 -160.5c71.333 0 137 10 197 30s95.333 35.167 106 45.5s16 30.5 16 60.5v366h-309c-42 0 -63 21.333 -63 64
c0 42 21 63 63 63h377c40.667 0 61 -21 61 -63v-449zM686 -392.994c-18.667 0 -32.834 5 -42.501 15s-14.5 21.333 -14.5 34c0 9.33301 6 22.666 18 39.999s18 36 18 56c0 11.333 -2 23 -6 35c-4 11.333 -6 22.333 -6 33c0 40.667 22.667 61 68 61
c20.667 0 36.334 -7.66699 47.001 -23s16 -43 16 -83c0 -41.333 -9.33301 -79.666 -28 -114.999s-42 -53 -70 -53z" />
    <glyph glyph-name="gcommaaccent" unicode="&#x123;" 
d="M965 94c0 -174.667 -39.6699 -306.001 -119.003 -394.001s-195.333 -132 -348 -132c-73.333 0 -147.666 16 -222.999 48s-113 63.667 -113 95c0 20.667 5.66699 37.5 17 50.5s23.333 19.5 36 19.5s31.667 -7.66699 57 -23c45.333 -25.333 84.833 -43.166 118.5 -53.499
s70.834 -15.5 111.501 -15.5c112 0 196 31.167 252 93.5s84 155.833 84 280.5v99c-29.333 -56 -71.166 -100.333 -125.499 -133s-116.5 -49 -186.5 -49c-132 0 -237.333 48.5 -316 145.5s-118 229.833 -118 398.5c0 168 40.5 300.167 121.5 396.5s190.167 144.5 327.5 144.5
c63.333 0 120.833 -13.833 172.5 -41.5s93.167 -67.167 124.5 -118.5v84c0 41.333 21.667 62 65 62c41.333 0 62 -20.667 62 -62v-895zM837.997 622.999c0 94.667 -28.001 171.834 -84.001 231.501s-127 89.5 -213 89.5c-97.333 0 -175.333 -36.833 -234 -110.5
s-88 -176.834 -88 -309.501c0 -132 28.333 -235.667 85 -311s135.667 -113 237 -113c88.667 0 160.334 30.5 215.001 91.5s82 138.5 82 232.5v199zM566.996 1509c18.667 0 32.999 -5 42.999 -15s15 -21.333 15 -34c0 -10.667 -6.66699 -24.334 -20 -41.001
c-11.333 -19.333 -17 -37.666 -17 -54.999c0 -11.333 2 -22.666 6 -33.999c4 -12 6 -23.333 6 -34c0 -20.667 -5.66699 -36 -17 -46s-28.333 -15 -51 -15c-21.333 0 -37.166 8.83301 -47.499 26.5s-15.5 44.167 -15.5 79.5c0 41.333 9.33301 79.666 28 114.999s42 53 70 53z
" />
    <glyph glyph-name="Imacron" unicode="&#x12a;" horiz-adv-x="498" 
d="M313 59c0 -43.333 -21.667 -65 -65 -65c-42.667 0 -64 21.667 -64 65v1276c0 42.667 21.333 64 64 64c43.333 0 65 -21.333 65 -64v-1276zM460 1534l-428 0.000976562c-29.333 0 -48.666 5.16699 -57.999 15.5s-14 24.166 -14 41.499s4.66699 31.333 14 42
s28.666 16 57.999 16h428c29.333 0 49 -5 59 -15s15 -24.333 15 -43c0 -38 -24.667 -57 -74 -57z" />
    <glyph glyph-name="imacron" unicode="&#x12b;" horiz-adv-x="430" 
d="M279 57c0 -42 -22 -63 -66 -63c-40.667 0 -61 21 -61 63v932c0 41.333 21 62 63 62c42.667 0 64 -20.667 64 -62v-932zM429 1235l-428 0.000976562c-29.333 0 -48.666 5.16699 -57.999 15.5s-14 24.166 -14 41.499s4.66699 31.333 14 42s28.666 16 57.999 16h428
c29.333 0 49 -5 59 -15s15 -24.333 15 -43c0 -38 -24.667 -57 -74 -57z" />
    <glyph glyph-name="Iogonek" unicode="&#x12e;" horiz-adv-x="498" 
d="M199 12c-10 10 -15 25.667 -15 47v1276c0 42.667 21.333 64 64 64c43.333 0 65 -21.333 65 -64v-1276c0 -27.333 -8 -46.333 -24 -57c-27.333 -33.333 -47.833 -67.333 -61.5 -102s-20.5 -69.667 -20.5 -105c0 -24.667 5.33301 -43.167 16 -55.5s27 -18.5 49 -18.5
c31.333 0 63 9.33301 95 28c6 3.33301 12.667 5 20 5c26 0 39 -15 39 -45c0 -22 -18 -41.167 -54 -57.5s-74.667 -24.5 -116 -24.5c-54.667 0 -95.667 12.167 -123 36.5s-41 60.833 -41 109.5c0 44 8.83301 86 26.5 126s44.5 77.667 80.5 113z" />
    <glyph glyph-name="iogonek" unicode="&#x12f;" horiz-adv-x="430" 
d="M215 1303c-24.667 0 -45 8.66699 -61 26s-24 37.333 -24 60c0 23.333 8.33301 43.5 25 60.5s36.667 25.5 60 25.5s43.5 -8.16699 60.5 -24.5s25.5 -36.833 25.5 -61.5c0 -25.333 -8.16699 -46 -24.5 -62s-36.833 -24 -61.5 -24zM83.5 -104
c17.667 39.333 44.5 77.334 80.5 114.001c-8 10 -12 25.667 -12 47v932c0 41.333 21 62 63 62c42.667 0 64 -20.667 64 -62v-932c0 -24.667 -7.66699 -42.334 -23 -53.001c-28 -34 -49 -68.5 -63 -103.5s-21 -70.167 -21 -105.5c0 -24.667 5.5 -43.167 16.5 -55.5
s27.5 -18.5 49.5 -18.5c32.667 0 64 9.33301 94 28c6 3.33301 12.667 5 20 5c26 0 39 -15 39 -45c0 -22 -18 -41.167 -54 -57.5s-74.667 -24.5 -116 -24.5c-54.667 0 -95.667 12.167 -123 36.5s-41 60.833 -41 109.5c0 42.667 8.83301 83.667 26.5 123z" />
    <glyph glyph-name="Idotaccent" unicode="&#x130;" horiz-adv-x="498" 
d="M313 59c0 -43.333 -21.667 -65 -65 -65c-42.667 0 -64 21.667 -64 65v1276c0 42.667 21.333 64 64 64c43.333 0 65 -21.333 65 -64v-1276zM249 1522c-27.333 0 -51 9.83301 -71 29.5s-30 43.167 -30 70.5c0 28 9.83301 51.833 29.5 71.5s43.5 29.5 71.5 29.5
c27.333 0 50.833 -10 70.5 -30s29.5 -43.667 29.5 -71c0 -28 -9.66699 -51.667 -29 -71s-43 -29 -71 -29z" />
    <glyph glyph-name="dotlessi" unicode="&#x131;" horiz-adv-x="430" 
d="M279 57c0 -42 -22 -63 -66 -63c-40.667 0 -61 21 -61 63v932c0 41.333 21 62 63 62c42.667 0 64 -20.667 64 -62v-932z" />
    <glyph glyph-name="Kcommaaccent" unicode="&#x136;" horiz-adv-x="1157" 
d="M473 686l-159.997 -122.997v-506c0 -42 -21.667 -63 -65 -63c-42.667 0 -64 21 -64 63v1278c0 42.667 21.333 64 64 64c43.333 0 65 -21.333 65 -64v-620c121.333 88.667 233.666 187.667 336.999 297s197.333 228.666 282 357.999c13.333 20.667 29.666 31 48.999 31
c17.333 0 33.333 -6 48 -18s22 -26 22 -42c0 -8 -2.33301 -17.333 -7 -28s-33.167 -51.334 -85.5 -122.001s-112.5 -142.834 -180.5 -216.501s-137.667 -141.167 -209 -202.5c90 -91.333 172.667 -182.833 248 -274.5s142.5 -181.5 201.5 -269.5s90.333 -137 94 -147
s5.5 -19.333 5.5 -28c0 -15.333 -7.33301 -29.333 -22 -42s-30.334 -19 -47.001 -19c-19.333 0 -37.333 11.667 -54 35c-85.333 132 -171.5 252.833 -258.5 362.5s-174.833 208.5 -263.5 296.5zM567.003 -392.997c-18.667 0 -32.834 5 -42.501 15s-14.5 21.333 -14.5 34
c0 9.33301 6 22.666 18 39.999s18 36 18 56c0 11.333 -2 23 -6 35c-4 11.333 -6 22.333 -6 33c0 40.667 22.667 61 68 61c20.667 0 36.334 -7.66699 47.001 -23s16 -43 16 -83c0 -41.333 -9.33301 -79.666 -28 -114.999s-42 -53 -70 -53z" />
    <glyph glyph-name="kcommaaccent" unicode="&#x137;" horiz-adv-x="950" 
d="M279 575c93.333 66.667 177.669 136.998 253.002 210.998s141.666 152 198.999 234c16 22 33 33 51 33c18.667 0 34.334 -5.66699 47.001 -17s19 -23.666 19 -36.999c0 -12.667 -4.33301 -26.834 -13 -42.501s-36.334 -52.5 -83.001 -110.5s-127.334 -138 -242.001 -240
c45.333 -41.333 90.333 -87.666 135 -138.999s89 -108 133 -170c87.333 -123.333 131 -205.333 131 -246c0 -14 -6.16699 -27.333 -18.5 -40s-27.833 -19 -46.5 -19c-15.333 0 -27 3.83301 -35 11.5s-15.667 18.167 -23 31.5c-54 102.667 -112.333 195.334 -175 278.001
s-129.667 155 -201 217c-65.333 -48.667 -109 -80 -131 -94v-377c0 -43.333 -21.333 -65 -64 -65c-42 0 -63 21.667 -63 65v1414c0 42 21 63 63 63c42.667 0 64 -21 64 -63v-898zM488.003 -393.002c-18.667 0 -32.834 5 -42.501 15s-14.5 21.333 -14.5 34
c0 9.33301 6 22.666 18 39.999s18 36 18 56c0 11.333 -2 23 -6 35c-4 11.333 -6 22.333 -6 33c0 40.667 22.667 61 68 61c20.667 0 36.334 -7.66699 47.001 -23s16 -43 16 -83c0 -41.333 -9.33301 -79.666 -28 -114.999s-42 -53 -70 -53z" />
    <glyph glyph-name="Lacute" unicode="&#x139;" horiz-adv-x="954" 
d="M860 0l-536 0.000976562c-43.333 0 -77.5 11.667 -102.5 35s-37.5 56.666 -37.5 99.999v1200c0 42.667 22 64 66 64c42 0 63 -21.333 63 -64v-1175c0 -22 9.66699 -33 29 -33h518c44 0 66 -20.333 66 -61c0 -44 -22 -66 -66 -66zM506 1648l-200.999 -156.999
c-24.667 -19.333 -43 -29 -55 -29c-16.667 0 -31.334 6 -44.001 18s-19 27 -19 45c0 17.333 13.667 36.666 41 57.999l194 153c28 22 48.667 33 62 33c15.333 0 29.333 -5.83301 42 -17.5s19 -26.167 19 -43.5s-13 -37.333 -39 -60z" />
    <glyph glyph-name="lacute" unicode="&#x13a;" horiz-adv-x="430" 
d="M279 55c0 -40.667 -21.333 -61 -64 -61c-42 0 -63 20.333 -63 61v1420c0 40.667 21 61 63 61c42.667 0 64 -20.333 64 -61v-1420zM401 1763l-200.999 -156.999c-24.667 -19.333 -43 -29 -55 -29c-16.667 0 -31.334 6 -44.001 18s-19 27 -19 45
c0 17.333 13.667 36.666 41 57.999l194 153c28 22 48.667 33 62 33c15.333 0 29.333 -5.83301 42 -17.5s19 -26.167 19 -43.5s-13 -37.333 -39 -60z" />
    <glyph glyph-name="Lcommaaccent" unicode="&#x13b;" horiz-adv-x="954" 
d="M860 0l-536 0.000976562c-43.333 0 -77.5 11.667 -102.5 35s-37.5 56.666 -37.5 99.999v1200c0 42.667 22 64 66 64c42 0 63 -21.333 63 -64v-1175c0 -22 9.66699 -33 29 -33h518c44 0 66 -20.333 66 -61c0 -44 -22 -66 -66 -66zM537 -392.999
c-18.667 0 -32.834 5 -42.501 15s-14.5 21.333 -14.5 34c0 9.33301 6 22.666 18 39.999s18 36 18 56c0 11.333 -2 23 -6 35c-4 11.333 -6 22.333 -6 33c0 40.667 22.667 61 68 61c20.667 0 36.334 -7.66699 47.001 -23s16 -43 16 -83
c0 -41.333 -9.33301 -79.666 -28 -114.999s-42 -53 -70 -53z" />
    <glyph glyph-name="lcommaaccent" unicode="&#x13c;" horiz-adv-x="430" 
d="M279 55c0 -40.667 -21.333 -61 -64 -61c-42 0 -63 20.333 -63 61v1420c0 40.667 21 61 63 61c42.667 0 64 -20.333 64 -61v-1420zM190 -393c-18.667 0 -32.834 5 -42.501 15s-14.5 21.333 -14.5 34c0 9.33301 6 22.666 18 39.999s18 36 18 56c0 11.333 -2 23 -6 35
c-4 11.333 -6 22.333 -6 33c0 40.667 22.667 61 68 61c20.667 0 36.334 -7.66699 47.001 -23s16 -43 16 -83c0 -41.333 -9.33301 -79.666 -28 -114.999s-42 -53 -70 -53z" />
    <glyph glyph-name="Lcaron" unicode="&#x13d;" horiz-adv-x="954" 
d="M860 0l-536 0.000976562c-43.333 0 -77.5 11.667 -102.5 35s-37.5 56.666 -37.5 99.999v1200c0 42.667 22 64 66 64c42 0 63 -21.333 63 -64v-1175c0 -22 9.66699 -33 29 -33h518c44 0 66 -20.333 66 -61c0 -44 -22 -66 -66 -66zM674 1116
c-18.667 0 -32.834 5 -42.501 15s-14.5 21.333 -14.5 34c0 9.33301 6 22.666 18 39.999s18 36 18 56c0 11.333 -2 23 -6 35c-4 11.333 -6 22.333 -6 33c0 40.667 22.667 61 68 61c20.667 0 36.334 -7.66699 47.001 -23s16 -43 16 -83
c0 -41.333 -9.33301 -79.666 -28 -114.999s-42 -53 -70 -53z" />
    <glyph glyph-name="lcaron" unicode="&#x13e;" horiz-adv-x="504" 
d="M279 55c0 -40.667 -21.333 -61 -64 -61c-42 0 -63 20.333 -63 61v1420c0 40.667 21 61 63 61c42.667 0 64 -20.333 64 -61v-1420zM450 1262c-18.667 0 -32.834 5 -42.501 15s-14.5 21.333 -14.5 34c0 9.33301 6 22.666 18 39.999s18 36 18 56c0 11.333 -2 23 -6 35
c-4 11.333 -6 22.333 -6 33c0 40.667 22.667 61 68 61c20.667 0 36.334 -7.66699 47.001 -23s16 -43 16 -83c0 -41.333 -9.33301 -79.666 -28 -114.999s-42 -53 -70 -53z" />
    <glyph glyph-name="Lslash" unicode="&#x141;" horiz-adv-x="975" 
d="M205 567l-76.001 -42.998c-14 -8 -27.667 -12 -41 -12c-16.667 0 -30 7.5 -40 22.5s-15 29.5 -15 43.5c0 19.333 12.333 36.333 37 51l135 78v628c0 42.667 21.667 64 65 64c42.667 0 64 -21.333 64 -64v-555l229 133c14.667 8.66699 28.334 13 41.001 13
c17.333 0 30.833 -7.83301 40.5 -23.5s14.5 -29.834 14.5 -42.501c0 -20 -12 -37 -36 -51l-289 -168v-481c0 -22 9.33301 -33 28 -33h519c43.333 0 65 -21.333 65 -64c0 -42 -21.667 -63 -65 -63h-537c-43.333 0 -77.333 11.667 -102 35s-37 56.666 -37 99.999v432z" />
    <glyph glyph-name="lslash" unicode="&#x142;" horiz-adv-x="508" 
d="M317 739v-684c0 -40.667 -21 -61 -63 -61c-42.667 0 -64 20.333 -64 61v611l-96 -56c-14 -8 -27.667 -12 -41 -12c-16.667 0 -30 7.5 -40 22.5s-15 29.5 -15 43.5c0 19.333 12.333 36.333 37 51l155 90v670c0 40.667 21.333 61 64 61c42 0 63 -20.333 63 -61v-596l97 55
c14 8 27.667 12 41 12c16.667 0 30 -7.66699 40 -23s15 -29.333 15 -42c0 -20 -12.333 -37.333 -37 -52z" />
    <glyph glyph-name="Nacute" unicode="&#x143;" horiz-adv-x="1360" 
d="M1176 96c0 -30 -9.83398 -54.5 -29.501 -73.5s-45.5 -28.5 -77.5 -28.5c-41.333 0 -72.666 19 -93.999 57l-670 1192v-1186c0 -42 -19.667 -63 -59 -63c-41.333 0 -62 21 -62 63v1231c0 36 10 63.5 30 82.5s45.667 28.5 77 28.5c44 0 76 -18.667 96 -56l668 -1189v1181
c0 42.667 19.667 64 59 64c41.333 0 62 -21.333 62 -64v-1239zM920.999 1716l-200.999 -156.999c-24.667 -19.333 -43 -29 -55 -29c-16.667 0 -31.334 6 -44.001 18s-19 27 -19 45c0 17.333 13.667 36.666 41 57.999l194 153c28 22 48.667 33 62 33
c15.333 0 29.333 -5.83301 42 -17.5s19 -26.167 19 -43.5s-13 -37.333 -39 -60z" />
    <glyph glyph-name="nacute" unicode="&#x144;" horiz-adv-x="1114" 
d="M967 57c0 -42 -20.667 -63 -62 -63c-43.333 0 -65 21 -65 63v602c0 92.667 -21 163.334 -63 212.001s-103.667 73 -185 73c-92 0 -167.167 -32.667 -225.5 -98s-87.5 -154 -87.5 -266v-523c0 -42 -21.333 -63 -64 -63c-42 0 -63 21 -63 63v930c0 42.667 21 64 63 64
c42.667 0 64 -21.333 64 -64v-108c32 57.333 77.167 102.666 135.5 135.999s122.833 50 193.5 50c116.667 0 205.667 -33.167 267 -99.5s92 -156.833 92 -271.5v-637zM770 1419l-200.999 -156.999c-24.667 -19.333 -43 -29 -55 -29c-16.667 0 -31.334 6 -44.001 18
s-19 27 -19 45c0 17.333 13.667 36.666 41 57.999l194 153c28 22 48.667 33 62 33c15.333 0 29.333 -5.83301 42 -17.5s19 -26.167 19 -43.5s-13 -37.333 -39 -60z" />
    <glyph glyph-name="Ncommaaccent" unicode="&#x145;" horiz-adv-x="1360" 
d="M1176 96c0 -30 -9.83398 -54.5 -29.501 -73.5s-45.5 -28.5 -77.5 -28.5c-41.333 0 -72.666 19 -93.999 57l-670 1192v-1186c0 -42 -19.667 -63 -59 -63c-41.333 0 -62 21 -62 63v1231c0 36 10 63.5 30 82.5s45.667 28.5 77 28.5c44 0 76 -18.667 96 -56l668 -1189v1181
c0 42.667 19.667 64 59 64c41.333 0 62 -21.333 62 -64v-1239zM646.999 -393c-18.667 0 -32.834 5 -42.501 15s-14.5 21.333 -14.5 34c0 9.33301 6 22.666 18 39.999s18 36 18 56c0 11.333 -2 23 -6 35c-4 11.333 -6 22.333 -6 33c0 40.667 22.667 61 68 61
c20.667 0 36.334 -7.66699 47.001 -23s16 -43 16 -83c0 -41.333 -9.33301 -79.666 -28 -114.999s-42 -53 -70 -53z" />
    <glyph glyph-name="ncommaaccent" unicode="&#x146;" horiz-adv-x="1114" 
d="M967 57c0 -42 -20.667 -63 -62 -63c-43.333 0 -65 21 -65 63v602c0 92.667 -21 163.334 -63 212.001s-103.667 73 -185 73c-92 0 -167.167 -32.667 -225.5 -98s-87.5 -154 -87.5 -266v-523c0 -42 -21.333 -63 -64 -63c-42 0 -63 21 -63 63v930c0 42.667 21 64 63 64
c42.667 0 64 -21.333 64 -64v-108c32 57.333 77.167 102.666 135.5 135.999s122.833 50 193.5 50c116.667 0 205.667 -33.167 267 -99.5s92 -156.833 92 -271.5v-637zM537 -393c-18.667 0 -32.834 5 -42.501 15s-14.5 21.333 -14.5 34c0 9.33301 6 22.666 18 39.999
s18 36 18 56c0 11.333 -2 23 -6 35c-4 11.333 -6 22.333 -6 33c0 40.667 22.667 61 68 61c20.667 0 36.334 -7.66699 47.001 -23s16 -43 16 -83c0 -41.333 -9.33301 -79.666 -28 -114.999s-42 -53 -70 -53z" />
    <glyph glyph-name="Ncaron" unicode="&#x147;" horiz-adv-x="1360" 
d="M1176 96c0 -30 -9.83398 -54.5 -29.501 -73.5s-45.5 -28.5 -77.5 -28.5c-41.333 0 -72.666 19 -93.999 57l-670 1192v-1186c0 -42 -19.667 -63 -59 -63c-41.333 0 -62 21 -62 63v1231c0 36 10 63.5 30 82.5s45.667 28.5 77 28.5c44 0 76 -18.667 96 -56l668 -1189v1181
c0 42.667 19.667 64 59 64c41.333 0 62 -21.333 62 -64v-1239zM679.999 1641l188.001 122.002c21.333 14 38.666 21 51.999 21c12 0 23.167 -5.5 33.5 -16.5s15.5 -23.167 15.5 -36.5c0 -12.667 -3.16699 -23.334 -9.5 -32.001s-18.166 -18.667 -35.499 -30l-178 -117
c-24.667 -16 -46.667 -24 -66 -24c-18.667 0 -40.334 8 -65.001 24l-173 111c-34 22 -51 43.333 -51 64c0 15.333 5 28.666 15 39.999s22 17 36 17c11.333 0 24.333 -4.66699 39 -14z" />
    <glyph glyph-name="ncaron" unicode="&#x148;" horiz-adv-x="1114" 
d="M967 57c0 -42 -20.667 -63 -62 -63c-43.333 0 -65 21 -65 63v602c0 92.667 -21 163.334 -63 212.001s-103.667 73 -185 73c-92 0 -167.167 -32.667 -225.5 -98s-87.5 -154 -87.5 -266v-523c0 -42 -21.333 -63 -64 -63c-42 0 -63 21 -63 63v930c0 42.667 21 64 63 64
c42.667 0 64 -21.333 64 -64v-108c32 57.333 77.167 102.666 135.5 135.999s122.833 50 193.5 50c116.667 0 205.667 -33.167 267 -99.5s92 -156.833 92 -271.5v-637zM557 1346l188.001 122.002c21.333 14 38.666 21 51.999 21c12 0 23.167 -5.5 33.5 -16.5
s15.5 -23.167 15.5 -36.5c0 -12.667 -3.16699 -23.334 -9.5 -32.001s-18.166 -18.667 -35.499 -30l-178 -117c-24.667 -16 -46.667 -24 -66 -24c-18.667 0 -40.334 8 -65.001 24l-173 111c-34 22 -51 43.333 -51 64c0 15.333 5 28.666 15 39.999s22 17 36 17
c11.333 0 24.333 -4.66699 39 -14z" />
    <glyph glyph-name="Omacron" unicode="&#x14c;" horiz-adv-x="1356" 
d="M680 -20c-180 0 -322.999 67.168 -428.999 201.501s-159 305.833 -159 514.5c0 213.333 53.167 386.166 159.5 518.499s249.166 198.5 428.499 198.5s321.5 -67 426.5 -201s157.5 -306 157.5 -516c0 -207.333 -52.5 -378.5 -157.5 -513.5s-247.167 -202.5 -426.5 -202.5z
M678.001 1290c-141.333 0 -252.833 -55.667 -334.5 -167s-122.5 -253.666 -122.5 -426.999c0 -172.667 41.5 -314.834 124.5 -426.501s193.833 -167.5 332.5 -167.5c141.333 0 252.833 56 334.5 168s122.5 254 122.5 426s-40.833 314 -122.5 426s-193.167 168 -334.5 168z
M891.001 1528l-428 0.000976562c-29.333 0 -48.666 5.16699 -57.999 15.5s-14 24.166 -14 41.499s4.66699 31.333 14 42s28.666 16 57.999 16h428c29.333 0 49 -5 59 -15s15 -24.333 15 -43c0 -38 -24.667 -57 -74 -57z" />
    <glyph glyph-name="omacron" unicode="&#x14d;" horiz-adv-x="1100" 
d="M549 -20c-134 0 -243.665 48.832 -328.998 146.499s-128 229.5 -128 395.5c0 172.667 42.667 306.334 128 401.001s195 142 329 142c135.333 0 245.666 -48 330.999 -144s128 -229 128 -399c0 -165.333 -42.833 -297 -128.5 -395s-195.834 -147 -330.501 -147z
M549.002 943.999c-93.333 0 -171.666 -35 -234.999 -105s-95 -175.667 -95 -317c0 -140 33.167 -245.333 99.5 -316s143.166 -106 230.499 -106c88 0 165.333 35.333 232 106s100 176 100 316c0 138.667 -31.167 243.667 -93.5 315s-141.833 107 -238.5 107zM764.002 1235
l-428 0.000976562c-29.333 0 -48.666 5.16699 -57.999 15.5s-14 24.166 -14 41.499s4.66699 31.333 14 42s28.666 16 57.999 16h428c29.333 0 49 -5 59 -15s15 -24.333 15 -43c0 -38 -24.667 -57 -74 -57z" />
    <glyph glyph-name="Obreve" unicode="&#x14e;" horiz-adv-x="1356" 
d="M680 -20c-180 0 -322.999 67.168 -428.999 201.501s-159 305.833 -159 514.5c0 213.333 53.167 386.166 159.5 518.499s249.166 198.5 428.499 198.5s321.5 -67 426.5 -201s157.5 -306 157.5 -516c0 -207.333 -52.5 -378.5 -157.5 -513.5s-247.167 -202.5 -426.5 -202.5z
M678.001 1290c-141.333 0 -252.833 -55.667 -334.5 -167s-122.5 -253.666 -122.5 -426.999c0 -172.667 41.5 -314.834 124.5 -426.501s193.833 -167.5 332.5 -167.5c141.333 0 252.833 56 334.5 168s122.5 254 122.5 426s-40.833 314 -122.5 426s-193.167 168 -334.5 168z
M678.001 1530c-68.667 0 -127.832 20.6689 -177.499 62.002s-74.5 82.666 -74.5 123.999c0 14.667 5.83301 26.834 17.5 36.501s25.167 14.5 40.5 14.5c14 0 26 -6.66699 36 -20c27.333 -36.667 47 -60.834 59 -72.501s25.667 -20.667 41 -27s34.666 -9.5 57.999 -9.5
c53.333 0 95.666 21.667 126.999 65c20 26.667 34.333 44 43 52s18.334 12 29.001 12c14.667 0 27.5 -4.83301 38.5 -14.5s16.5 -21.834 16.5 -36.501c0 -42 -24.667 -83.5 -74 -124.5s-109.333 -61.5 -180 -61.5z" />
    <glyph glyph-name="obreve" unicode="&#x14f;" horiz-adv-x="1100" 
d="M549 -20c-134 0 -243.665 48.832 -328.998 146.499s-128 229.5 -128 395.5c0 172.667 42.667 306.334 128 401.001s195 142 329 142c135.333 0 245.666 -48 330.999 -144s128 -229 128 -399c0 -165.333 -42.833 -297 -128.5 -395s-195.834 -147 -330.501 -147z
M549.002 943.999c-93.333 0 -171.666 -35 -234.999 -105s-95 -175.667 -95 -317c0 -140 33.167 -245.333 99.5 -316s143.166 -106 230.499 -106c88 0 165.333 35.333 232 106s100 176 100 316c0 138.667 -31.167 243.667 -93.5 315s-141.833 107 -238.5 107zM549.002 1233
c-68.667 0 -127.832 20.6689 -177.499 62.002s-74.5 82.666 -74.5 123.999c0 14.667 5.83301 26.834 17.5 36.501s25.167 14.5 40.5 14.5c14 0 26 -6.66699 36 -20c27.333 -36.667 47 -60.834 59 -72.501s25.667 -20.667 41 -27s34.666 -9.5 57.999 -9.5
c53.333 0 95.666 21.667 126.999 65c20 26.667 34.333 44 43 52s18.334 12 29.001 12c14.667 0 27.5 -4.83301 38.5 -14.5s16.5 -21.834 16.5 -36.501c0 -42 -24.667 -83.5 -74 -124.5s-109.333 -61.5 -180 -61.5z" />
    <glyph glyph-name="Ohungarumlaut" unicode="&#x150;" horiz-adv-x="1356" 
d="M680 -20c-180 0 -322.999 67.168 -428.999 201.501s-159 305.833 -159 514.5c0 213.333 53.167 386.166 159.5 518.499s249.166 198.5 428.499 198.5s321.5 -67 426.5 -201s157.5 -306 157.5 -516c0 -207.333 -52.5 -378.5 -157.5 -513.5s-247.167 -202.5 -426.5 -202.5z
M678.001 1290c-141.333 0 -252.833 -55.667 -334.5 -167s-122.5 -253.666 -122.5 -426.999c0 -172.667 41.5 -314.834 124.5 -426.501s193.833 -167.5 332.5 -167.5c141.333 0 252.833 56 334.5 168s122.5 254 122.5 426s-40.833 314 -122.5 426s-193.167 168 -334.5 168z
M1038 1720l-146.998 -157.001c-18 -19.333 -36.667 -29 -56 -29c-14 0 -27.333 5.16699 -40 15.5s-19 24.833 -19 43.5c0 8 2.16699 15.833 6.5 23.5s15.833 21.834 34.5 42.501l145 158c17.333 18.667 36.666 28 57.999 28c13.333 0 26.166 -6.16699 38.499 -18.5
s18.5 -27.166 18.5 -44.499c0 -12.667 -13 -33.334 -39 -62.001zM729.003 1720l-148 -157.001c-18 -19.333 -36.333 -29 -55 -29c-14.667 0 -28.167 5.16699 -40.5 15.5s-18.5 24.833 -18.5 43.5c0 8 2.16699 15.833 6.5 23.5s15.833 21.834 34.5 42.501l145 158
c17.333 18.667 36.333 28 57 28c13.333 0 26.333 -6.16699 39 -18.5s19 -27.166 19 -44.499c0 -12.667 -13 -33.334 -39 -62.001z" />
    <glyph glyph-name="ohungarumlaut" unicode="&#x151;" horiz-adv-x="1100" 
d="M549 -20c-134 0 -243.665 48.832 -328.998 146.499s-128 229.5 -128 395.5c0 172.667 42.667 306.334 128 401.001s195 142 329 142c135.333 0 245.666 -48 330.999 -144s128 -229 128 -399c0 -165.333 -42.833 -297 -128.5 -395s-195.834 -147 -330.501 -147z
M549.002 943.999c-93.333 0 -171.666 -35 -234.999 -105s-95 -175.667 -95 -317c0 -140 33.167 -245.333 99.5 -316s143.166 -106 230.499 -106c88 0 165.333 35.333 232 106s100 176 100 316c0 138.667 -31.167 243.667 -93.5 315s-141.833 107 -238.5 107zM891.002 1419
l-146.998 -157.001c-18 -19.333 -36.667 -29 -56 -29c-14 0 -27.333 5.16699 -40 15.5s-19 24.833 -19 43.5c0 8 2.16699 15.833 6.5 23.5s15.833 21.834 34.5 42.501l145 158c17.333 18.667 36.666 28 57.999 28c13.333 0 26.166 -6.16699 38.499 -18.5
s18.5 -27.166 18.5 -44.499c0 -12.667 -13 -33.334 -39 -62.001zM582.004 1419l-148 -157.001c-18 -19.333 -36.333 -29 -55 -29c-14.667 0 -28.167 5.16699 -40.5 15.5s-18.5 24.833 -18.5 43.5c0 8 2.16699 15.833 6.5 23.5s15.833 21.834 34.5 42.501l145 158
c17.333 18.667 36.333 28 57 28c13.333 0 26.333 -6.16699 39 -18.5s19 -27.166 19 -44.499c0 -12.667 -13 -33.334 -39 -62.001z" />
    <glyph glyph-name="OE" unicode="&#x152;" horiz-adv-x="1851" 
d="M1004 158c-39.333 -59.333 -89.5 -103.834 -150.5 -133.501s-132.5 -44.5 -214.5 -44.5c-173.333 0 -307.833 64.333 -403.5 193s-143.5 303 -143.5 523c0 216 49 389.5 147 520.5s231.333 196.5 400 196.5c82 0 153.5 -14.833 214.5 -44.5s111.167 -74.167 150.5 -133.5
v2c0 46 11.833 83.5 35.5 112.5s61.5 43.5 113.5 43.5h551c43.333 0 65 -21.333 65 -64c0 -42 -21.667 -63 -65 -63h-537c-10 0 -18.167 -3.66699 -24.5 -11s-9.5 -16.666 -9.5 -27.999v-439h505c42.667 0 64 -21.667 64 -65c0 -40.667 -21.333 -61 -64 -61h-505v-504
c0 -20.667 8.66699 -31 26 -31h545c43.333 0 65 -20.333 65 -61c0 -44 -21.667 -66 -65 -66h-563c-50.667 0 -86.167 12.667 -106.5 38s-30.5 65.333 -30.5 120zM1004 415.999v542c0 88.667 -36.667 166.5 -110 233.5s-159 100.5 -257 100.5
c-135.333 0 -238.5 -52.667 -309.5 -158s-106.5 -251.333 -106.5 -438c0 -184 36 -329.333 108 -436s174.667 -160 308 -160c103.333 0 190.333 33.333 261 100s106 138.667 106 216z" />
    <glyph glyph-name="oe" unicode="&#x153;" horiz-adv-x="1792" 
d="M971 483c0 -113.333 32 -205.499 96 -276.499s145.333 -106.5 244 -106.5c88.667 0 176.334 29 263.001 87c6 4 13.667 6 23 6c16 0 29.667 -6.83301 41 -20.5s17 -28.834 17 -45.501c0 -28 -35.333 -59.5 -106 -94.5s-150.667 -52.5 -240 -52.5
c-92.667 0 -172.5 19.667 -239.5 59s-121.167 98.666 -162.5 177.999c-32.667 -70 -81.667 -127 -147 -171s-141.333 -66 -228 -66c-127.333 0 -232.5 48.333 -315.5 145s-124.5 229 -124.5 397c0 173.333 41 307.166 123 401.499s187.667 141.5 317 141.5
c90 0 168 -22.833 234 -68.5s115 -103.5 147 -173.5c40.667 80.667 93.5 141.167 158.5 181.5s142.167 60.5 231.5 60.5c125.333 0 223.833 -42.167 295.5 -126.5s107.5 -197.166 107.5 -338.499c0 -35.333 -8.33301 -63.666 -25 -84.999s-40.334 -32 -71.001 -32h-639z
M1579 602.001l-0.00195312 8.00098c0 97.333 -25 177.666 -75 240.999s-118.667 95 -206 95c-89.333 0 -163.666 -30.833 -222.999 -92.5s-92.666 -145.5 -99.999 -251.5h604zM527.998 944.002c-86 0 -159.001 -34.5 -219.001 -103.5s-90 -175.167 -90 -318.5
c0 -142.667 31.333 -249 94 -319s134.334 -105 215.001 -105c82.667 0 155.334 35.5 218.001 106.5s94 176.833 94 317.5c0 138.667 -29.333 243.667 -88 315s-133.334 107 -224.001 107z" />
    <glyph glyph-name="Racute" unicode="&#x154;" horiz-adv-x="1139" 
d="M313 627l-0.00390625 -569.999c0 -42 -21 -63 -63 -63c-44 0 -66 21 -66 63v1180c0 46 11.833 83.5 35.5 112.5s61.834 43.5 114.501 43.5h239c147.333 0 258 -31.167 332 -93.5s111 -155.5 111 -279.5c0 -94 -30.833 -174 -92.5 -240s-141.5 -105.333 -239.5 -118
c48.667 -18.667 95.167 -54 139.5 -106s86.833 -121 127.5 -207c81.333 -171.333 122 -269.333 122 -294c0 -18.667 -7.16699 -33.834 -21.5 -45.501s-33.166 -17.5 -56.499 -17.5s-39 10.333 -47 31c-79.333 209.333 -155.666 362.333 -228.999 459
s-160.666 145 -261.999 145h-144zM312.996 754.001l248 -0.000976562c102.667 0 182.667 23.667 240 71s86 113 86 197s-25.167 145.667 -75.5 185s-130.5 59 -240.5 59h-223c-10 0 -18.333 -3.66699 -25 -11s-10 -16.666 -10 -27.999v-473zM781.996 1714l-200.999 -156.999
c-24.667 -19.333 -43 -29 -55 -29c-16.667 0 -31.334 6 -44.001 18s-19 27 -19 45c0 17.333 13.667 36.666 41 57.999l194 153c28 22 48.667 33 62 33c15.333 0 29.333 -5.83301 42 -17.5s19 -26.167 19 -43.5s-13 -37.333 -39 -60z" />
    <glyph glyph-name="racute" unicode="&#x155;" horiz-adv-x="698" 
d="M279 918c26.667 48.667 60.834 85.333 102.501 110s91.167 37 148.5 37c50 0 87.167 -6.83301 111.5 -20.5s36.5 -30.834 36.5 -51.501c0 -17.333 -3.83301 -32.5 -11.5 -45.5s-18.834 -19.5 -33.501 -19.5c-8.66699 0 -19 2 -31 6
c-22.667 6.66699 -47.334 10 -74.001 10c-75.333 0 -135.666 -26.667 -180.999 -80s-68 -123.666 -68 -210.999v-596c0 -42 -21.333 -63 -64 -63c-42 0 -63 21 -63 63v932c0 41.333 21 62 63 62c42.667 0 64 -20.667 64 -62v-71zM588 1419l-200.999 -156.999
c-24.667 -19.333 -43 -29 -55 -29c-16.667 0 -31.334 6 -44.001 18s-19 27 -19 45c0 17.333 13.667 36.666 41 57.999l194 153c28 22 48.667 33 62 33c15.333 0 29.333 -5.83301 42 -17.5s19 -26.167 19 -43.5s-13 -37.333 -39 -60z" />
    <glyph glyph-name="Rcommaaccent" unicode="&#x156;" horiz-adv-x="1139" 
d="M313 627l-0.00390625 -569.999c0 -42 -21 -63 -63 -63c-44 0 -66 21 -66 63v1180c0 46 11.833 83.5 35.5 112.5s61.834 43.5 114.501 43.5h239c147.333 0 258 -31.167 332 -93.5s111 -155.5 111 -279.5c0 -94 -30.833 -174 -92.5 -240s-141.5 -105.333 -239.5 -118
c48.667 -18.667 95.167 -54 139.5 -106s86.833 -121 127.5 -207c81.333 -171.333 122 -269.333 122 -294c0 -18.667 -7.16699 -33.834 -21.5 -45.501s-33.166 -17.5 -56.499 -17.5s-39 10.333 -47 31c-79.333 209.333 -155.666 362.333 -228.999 459
s-160.666 145 -261.999 145h-144zM312.996 754.001l248 -0.000976562c102.667 0 182.667 23.667 240 71s86 113 86 197s-25.167 145.667 -75.5 185s-130.5 59 -240.5 59h-223c-10 0 -18.333 -3.66699 -25 -11s-10 -16.666 -10 -27.999v-473zM573.996 -393
c-18.667 0 -32.834 5 -42.501 15s-14.5 21.333 -14.5 34c0 9.33301 6 22.666 18 39.999s18 36 18 56c0 11.333 -2 23 -6 35c-4 11.333 -6 22.333 -6 33c0 40.667 22.667 61 68 61c20.667 0 36.334 -7.66699 47.001 -23s16 -43 16 -83
c0 -41.333 -9.33301 -79.666 -28 -114.999s-42 -53 -70 -53z" />
    <glyph glyph-name="rcommaaccent" unicode="&#x157;" horiz-adv-x="698" 
d="M279 918c26.667 48.667 60.834 85.333 102.501 110s91.167 37 148.5 37c50 0 87.167 -6.83301 111.5 -20.5s36.5 -30.834 36.5 -51.501c0 -17.333 -3.83301 -32.5 -11.5 -45.5s-18.834 -19.5 -33.501 -19.5c-8.66699 0 -19 2 -31 6
c-22.667 6.66699 -47.334 10 -74.001 10c-75.333 0 -135.666 -26.667 -180.999 -80s-68 -123.666 -68 -210.999v-596c0 -42 -21.333 -63 -64 -63c-42 0 -63 21 -63 63v932c0 41.333 21 62 63 62c42.667 0 64 -20.667 64 -62v-71zM196 -393.001
c-18.667 0 -32.834 5 -42.501 15s-14.5 21.333 -14.5 34c0 9.33301 6 22.666 18 39.999s18 36 18 56c0 11.333 -2 23 -6 35c-4 11.333 -6 22.333 -6 33c0 40.667 22.667 61 68 61c20.667 0 36.334 -7.66699 47.001 -23s16 -43 16 -83
c0 -41.333 -9.33301 -79.666 -28 -114.999s-42 -53 -70 -53z" />
    <glyph glyph-name="Rcaron" unicode="&#x158;" horiz-adv-x="1139" 
d="M313 627l-0.00390625 -569.999c0 -42 -21 -63 -63 -63c-44 0 -66 21 -66 63v1180c0 46 11.833 83.5 35.5 112.5s61.834 43.5 114.501 43.5h239c147.333 0 258 -31.167 332 -93.5s111 -155.5 111 -279.5c0 -94 -30.833 -174 -92.5 -240s-141.5 -105.333 -239.5 -118
c48.667 -18.667 95.167 -54 139.5 -106s86.833 -121 127.5 -207c81.333 -171.333 122 -269.333 122 -294c0 -18.667 -7.16699 -33.834 -21.5 -45.501s-33.166 -17.5 -56.499 -17.5s-39 10.333 -47 31c-79.333 209.333 -155.666 362.333 -228.999 459
s-160.666 145 -261.999 145h-144zM312.996 754.001l248 -0.000976562c102.667 0 182.667 23.667 240 71s86 113 86 197s-25.167 145.667 -75.5 185s-130.5 59 -240.5 59h-223c-10 0 -18.333 -3.66699 -25 -11s-10 -16.666 -10 -27.999v-473zM531.996 1637l188.001 122.002
c21.333 14 38.666 21 51.999 21c12 0 23.167 -5.5 33.5 -16.5s15.5 -23.167 15.5 -36.5c0 -12.667 -3.16699 -23.334 -9.5 -32.001s-18.166 -18.667 -35.499 -30l-178 -117c-24.667 -16 -46.667 -24 -66 -24c-18.667 0 -40.334 8 -65.001 24l-173 111
c-34 22 -51 43.333 -51 64c0 15.333 5 28.666 15 39.999s22 17 36 17c11.333 0 24.333 -4.66699 39 -14z" />
    <glyph glyph-name="rcaron" unicode="&#x159;" horiz-adv-x="698" 
d="M279 918c26.667 48.667 60.834 85.333 102.501 110s91.167 37 148.5 37c50 0 87.167 -6.83301 111.5 -20.5s36.5 -30.834 36.5 -51.501c0 -17.333 -3.83301 -32.5 -11.5 -45.5s-18.834 -19.5 -33.501 -19.5c-8.66699 0 -19 2 -31 6
c-22.667 6.66699 -47.334 10 -74.001 10c-75.333 0 -135.666 -26.667 -180.999 -80s-68 -123.666 -68 -210.999v-596c0 -42 -21.333 -63 -64 -63c-42 0 -63 21 -63 63v932c0 41.333 21 62 63 62c42.667 0 64 -20.667 64 -62v-71zM411 1346l188.001 122.002
c21.333 14 38.666 21 51.999 21c12 0 23.167 -5.5 33.5 -16.5s15.5 -23.167 15.5 -36.5c0 -12.667 -3.16699 -23.334 -9.5 -32.001s-18.166 -18.667 -35.499 -30l-178 -117c-24.667 -16 -46.667 -24 -66 -24c-18.667 0 -40.334 8 -65.001 24l-173 111
c-34 22 -51 43.333 -51 64c0 15.333 5 28.666 15 39.999s22 17 36 17c11.333 0 24.333 -4.66699 39 -14z" />
    <glyph glyph-name="Sacute" unicode="&#x15a;" horiz-adv-x="1042" 
d="M508 -20c-115.333 0 -214.833 23.501 -298.5 70.501s-125.5 88.833 -125.5 125.5c0 16.667 6.33301 31.834 19 45.501s26.667 20.5 42 20.5c16 0 33.333 -7.66699 52 -23c94.667 -78 198.334 -117 311.001 -117c89.333 0 160.833 24.167 214.5 72.5
s80.5 114.5 80.5 198.5c0 50.667 -11.833 93 -35.5 127s-54 60.833 -91 80.5s-100.167 43.167 -189.5 70.5c-102.667 30 -177.334 59.833 -224.001 89.5s-83.334 68.5 -110.001 116.5s-40 107 -40 177c0 112.667 39.833 204 119.5 274s178.167 105 295.5 105
c101.333 0 190.833 -22.667 268.5 -68s116.5 -86 116.5 -122c0 -16.667 -6.16699 -31.5 -18.5 -44.5s-27.166 -19.5 -44.499 -19.5c-10.667 0 -19.5 2.5 -26.5 7.5s-17.167 12.833 -30.5 23.5c-53.333 40 -99.833 66.667 -139.5 80s-81.5 20 -125.5 20
c-88 0 -157.667 -23.333 -209 -70s-77 -108.667 -77 -186c0 -48.667 10.833 -88.834 32.5 -120.501s49.834 -56.834 84.501 -75.501s91.667 -39.334 171 -62.001c161.333 -46 268.666 -101 321.999 -165s80 -143.333 80 -238c0 -117.333 -39.833 -212.166 -119.5 -284.499
s-181.167 -108.5 -304.5 -108.5zM702 1710l-200.999 -156.999c-24.667 -19.333 -43 -29 -55 -29c-16.667 0 -31.334 6 -44.001 18s-19 27 -19 45c0 17.333 13.667 36.666 41 57.999l194 153c28 22 48.667 33 62 33c15.333 0 29.333 -5.83301 42 -17.5s19 -26.167 19 -43.5
s-13 -37.333 -39 -60z" />
    <glyph glyph-name="sacute" unicode="&#x15b;" horiz-adv-x="895" 
d="M442 -20c-54 0 -103.167 5.66992 -147.5 17.0029s-87.833 29.166 -130.5 53.499s-68.334 42.5 -77.001 54.5s-13 25.333 -13 40c0 16.667 5.83301 31.5 17.5 44.5s24.834 19.5 39.501 19.5c16.667 0 33 -6.33301 49 -19c34 -26 74.833 -47.5 122.5 -64.5
s94.167 -25.5 139.5 -25.5c76.667 0 136.5 15.667 179.5 47s64.5 73.666 64.5 126.999c0 48.667 -17 86 -51 112s-79.667 45.333 -137 58c-93.333 19.333 -160.833 35.333 -202.5 48s-77.5 30.167 -107.5 52.5s-53.833 50.666 -71.5 84.999s-26.5 77.833 -26.5 130.5
c0 90 34.833 163.333 104.5 220s158.5 85 266.5 85c79.333 0 153.333 -15.833 222 -47.5s103 -63.5 103 -95.5c0 -16 -6.16699 -31.667 -18.5 -47s-25.833 -23 -40.5 -23c-14 0 -30.333 6.66699 -49 20c-70 48 -143 72 -219 72c-78 0 -137.833 -16.5 -179.5 -49.5
s-62.5 -75.167 -62.5 -126.5c0 -39.333 10.333 -71.5 31 -96.5s48 -44 82 -57s95.667 -29.167 185 -48.5c118.667 -25.333 198 -60.666 238 -105.999s60 -104.333 60 -177c0 -86.667 -33.167 -158.834 -99.5 -216.501s-156.833 -86.5 -271.5 -86.5zM651 1419
l-200.999 -156.999c-24.667 -19.333 -43 -29 -55 -29c-16.667 0 -31.334 6 -44.001 18s-19 27 -19 45c0 17.333 13.667 36.666 41 57.999l194 153c28 22 48.667 33 62 33c15.333 0 29.333 -5.83301 42 -17.5s19 -26.167 19 -43.5s-13 -37.333 -39 -60z" />
    <glyph glyph-name="Scedilla" unicode="&#x15e;" horiz-adv-x="1042" 
d="M467 -19c-98 4.66699 -186.336 29.3311 -265.003 73.998s-118 85 -118 121c0 16.667 6.5 31.834 19.5 45.501s26.833 20.5 41.5 20.5c16 0 33.333 -7.66699 52 -23c94.667 -78 198.334 -117 311.001 -117c90 0 161.667 24.333 215 73s80 114.667 80 198
c0 48 -11.167 89.333 -33.5 124s-54.5 63 -96.5 85s-104 45 -186 69c-89.333 26 -159.666 53.5 -210.999 82.5s-91.333 68 -120 117s-43 110.167 -43 183.5c0 112 39.5 203.167 118.5 273.5s177.833 105.5 296.5 105.5c101.333 0 190.833 -22.5 268.5 -67.5
s116.5 -85.833 116.5 -122.5c0 -16.667 -6.16699 -31.5 -18.5 -44.5s-27.166 -19.5 -44.499 -19.5c-12.667 0 -26 5.66699 -40 17c-92 76 -186 114 -282 114c-88 0 -157.667 -23.5 -209 -70.5s-77 -108.833 -77 -185.5c0 -46 10.5 -85.333 31.5 -118s49 -58.167 84 -76.5
s92.5 -39.5 172.5 -63.5c157.333 -45.333 263.666 -99.5 318.999 -162.5s83 -143.167 83 -240.5c0 -106.667 -33.5 -195.5 -100.5 -266.5s-157.5 -112.167 -271.5 -123.5l-44 -85c18.667 2.66699 34.334 4 47.001 4c40.667 0 72.334 -11.333 95.001 -34s34 -53.667 34 -93
c0 -47.333 -16.667 -85.5 -50 -114.5s-80.666 -43.5 -141.999 -43.5c-42.667 0 -77.334 6.66699 -104.001 20s-40 29.333 -40 48c0 12 3.66699 22.167 11 30.5s16 12.5 26 12.5c9.33301 0 16.666 -1.33301 21.999 -4c31.333 -15.333 62.333 -23 93 -23
c27.333 0 47.833 5.5 61.5 16.5s20.5 27.5 20.5 49.5c0 20.667 -6.66699 36 -20 46s-33.333 15 -60 15c-13.333 0 -26.333 -0.666992 -39 -2c-12 -1.33301 -23 -2 -33 -2c-20.667 0 -31 9.66699 -31 29c0 10.667 4.33301 23.334 13 38.001z" />
    <glyph glyph-name="scedilla" unicode="&#x15f;" horiz-adv-x="895" 
d="M414 -19c-48 2 -94.3398 9.66797 -139.007 23.001s-85.167 30.666 -121.5 51.999s-58.666 37.666 -66.999 48.999s-12.5 24.666 -12.5 39.999c0 16.667 5.83301 31.5 17.5 44.5s24.834 19.5 39.501 19.5c18 0 34.333 -6.33301 49 -19
c36.667 -26.667 78.334 -48.334 125.001 -65.001s92.334 -25 137.001 -25c77.333 0 137.333 15.667 180 47s64 73.666 64 126.999c0 34 -9.5 63.667 -28.5 89s-47.167 44.666 -84.5 57.999s-99 29 -185 47c-113.333 23.333 -191.333 58.5 -234 105.5s-64 109.167 -64 186.5
c0 88.667 34.5 161.667 103.5 219s158.167 86 267.5 86c82 0 156.667 -16 224 -48s101 -63.667 101 -95c0 -16 -6 -31.667 -18 -47s-25.667 -23 -41 -23c-14 0 -30.333 6.66699 -49 20c-70 48 -143 72 -219 72c-76.667 0 -136.167 -16.333 -178.5 -49s-63.5 -75 -63.5 -127
c0 -35.333 9.33301 -66.166 28 -92.499s46.834 -46.666 84.501 -60.999s99.5 -30.5 185.5 -48.5c114 -24 192.167 -58.333 234.5 -103s63.5 -104.667 63.5 -180c0 -77.333 -27.167 -143.666 -81.5 -198.999s-129.166 -88.666 -224.499 -99.999l-44 -86
c18.667 2.66699 34.334 4 47.001 4c40.667 0 72.334 -11.333 95.001 -34s34 -53.667 34 -93c0 -47.333 -16.667 -85.5 -50 -114.5s-80.666 -43.5 -141.999 -43.5c-42.667 0 -77.334 6.66699 -104.001 20s-40 29.333 -40 48c0 12 3.66699 22.167 11 30.5s16 12.5 26 12.5
c9.33301 0 16.666 -1.33301 21.999 -4c31.333 -15.333 62.333 -23 93 -23c27.333 0 47.833 5.5 61.5 16.5s20.5 27.5 20.5 49.5c0 20.667 -6.66699 36 -20 46s-33.333 15 -60 15c-13.333 0 -26.333 -0.666992 -39 -2c-12 -1.33301 -23 -2 -33 -2
c-20.667 0 -31 9.66699 -31 29c0 10.667 4.33301 23.334 13 38.001z" />
    <glyph glyph-name="Scaron" unicode="&#x160;" horiz-adv-x="1042" 
d="M508 -20c-115.333 0 -214.833 23.501 -298.5 70.501s-125.5 88.833 -125.5 125.5c0 16.667 6.33301 31.834 19 45.501s26.667 20.5 42 20.5c16 0 33.333 -7.66699 52 -23c94.667 -78 198.334 -117 311.001 -117c89.333 0 160.833 24.167 214.5 72.5
s80.5 114.5 80.5 198.5c0 50.667 -11.833 93 -35.5 127s-54 60.833 -91 80.5s-100.167 43.167 -189.5 70.5c-102.667 30 -177.334 59.833 -224.001 89.5s-83.334 68.5 -110.001 116.5s-40 107 -40 177c0 112.667 39.833 204 119.5 274s178.167 105 295.5 105
c101.333 0 190.833 -22.667 268.5 -68s116.5 -86 116.5 -122c0 -16.667 -6.16699 -31.5 -18.5 -44.5s-27.166 -19.5 -44.499 -19.5c-10.667 0 -19.5 2.5 -26.5 7.5s-17.167 12.833 -30.5 23.5c-53.333 40 -99.833 66.667 -139.5 80s-81.5 20 -125.5 20
c-88 0 -157.667 -23.333 -209 -70s-77 -108.667 -77 -186c0 -48.667 10.833 -88.834 32.5 -120.501s49.834 -56.834 84.501 -75.501s91.667 -39.334 171 -62.001c161.333 -46 268.666 -101 321.999 -165s80 -143.333 80 -238c0 -117.333 -39.833 -212.166 -119.5 -284.499
s-181.167 -108.5 -304.5 -108.5zM539 1653l188.001 122.002c21.333 14 38.666 21 51.999 21c12 0 23.167 -5.5 33.5 -16.5s15.5 -23.167 15.5 -36.5c0 -12.667 -3.16699 -23.334 -9.5 -32.001s-18.166 -18.667 -35.499 -30l-178 -117c-24.667 -16 -46.667 -24 -66 -24
c-18.667 0 -40.334 8 -65.001 24l-173 111c-34 22 -51 43.333 -51 64c0 15.333 5 28.666 15 39.999s22 17 36 17c11.333 0 24.333 -4.66699 39 -14z" />
    <glyph glyph-name="scaron" unicode="&#x161;" horiz-adv-x="895" 
d="M442 -20c-54 0 -103.167 5.66992 -147.5 17.0029s-87.833 29.166 -130.5 53.499s-68.334 42.5 -77.001 54.5s-13 25.333 -13 40c0 16.667 5.83301 31.5 17.5 44.5s24.834 19.5 39.501 19.5c16.667 0 33 -6.33301 49 -19c34 -26 74.833 -47.5 122.5 -64.5
s94.167 -25.5 139.5 -25.5c76.667 0 136.5 15.667 179.5 47s64.5 73.666 64.5 126.999c0 48.667 -17 86 -51 112s-79.667 45.333 -137 58c-93.333 19.333 -160.833 35.333 -202.5 48s-77.5 30.167 -107.5 52.5s-53.833 50.666 -71.5 84.999s-26.5 77.833 -26.5 130.5
c0 90 34.833 163.333 104.5 220s158.5 85 266.5 85c79.333 0 153.333 -15.833 222 -47.5s103 -63.5 103 -95.5c0 -16 -6.16699 -31.667 -18.5 -47s-25.833 -23 -40.5 -23c-14 0 -30.333 6.66699 -49 20c-70 48 -143 72 -219 72c-78 0 -137.833 -16.5 -179.5 -49.5
s-62.5 -75.167 -62.5 -126.5c0 -39.333 10.333 -71.5 31 -96.5s48 -44 82 -57s95.667 -29.167 185 -48.5c118.667 -25.333 198 -60.666 238 -105.999s60 -104.333 60 -177c0 -86.667 -33.167 -158.834 -99.5 -216.501s-156.833 -86.5 -271.5 -86.5zM452 1346
l188.001 122.002c21.333 14 38.666 21 51.999 21c12 0 23.167 -5.5 33.5 -16.5s15.5 -23.167 15.5 -36.5c0 -12.667 -3.16699 -23.334 -9.5 -32.001s-18.166 -18.667 -35.499 -30l-178 -117c-24.667 -16 -46.667 -24 -66 -24c-18.667 0 -40.334 8 -65.001 24l-173 111
c-34 22 -51 43.333 -51 64c0 15.333 5 28.666 15 39.999s22 17 36 17c11.333 0 24.333 -4.66699 39 -14z" />
    <glyph glyph-name="Tcommaaccent" unicode="&#x162;" horiz-adv-x="973" 
d="M551 1266v-1207c0 -43.333 -21.333 -65 -64 -65c-43.333 0 -65 21.667 -65 65v1207h-340c-44 0 -66 21 -66 63c0 42.667 22 64 66 64h809c43.333 0 65 -21.333 65 -64c0 -42 -21.667 -63 -65 -63h-340zM465 -393c-18.667 0 -32.834 5 -42.501 15s-14.5 21.333 -14.5 34
c0 9.33301 6 22.666 18 39.999s18 36 18 56c0 11.333 -2 23 -6 35c-4 11.333 -6 22.333 -6 33c0 40.667 22.667 61 68 61c20.667 0 36.334 -7.66699 47.001 -23s16 -43 16 -83c0 -41.333 -9.33301 -79.666 -28 -114.999s-42 -53 -70 -53z" />
    </font>
</defs>
</svg>
